Grade 1 lc.ufo
<glyph name="quotedbl" format="2">
  <advance width="914"/>
  <unicode hex="0022"/>
  <outline>
    <contour>
      <point x="225.75" y="915.33" type="line"/>
      <point x="128.75" y="1404.74" type="line"/>
      <point x="128.75" y="1462.3500000000001"/>
      <point x="196.48999999999998" y="1558.0"/>
      <point x="268.4" y="1558.0" type="qcurve" smooth="yes"/>
      <point x="339.89000000000004" y="1558.0"/>
      <point x="407.63" y="1462.3500000000001"/>
      <point x="407.63" y="1404.74" type="qcurve"/>
      <point x="308.63" y="915.33" type="line"/>
    </contour>
    <contour>
      <point x="603.3399999999999" y="915.33" type="line"/>
      <point x="506.03000000000003" y="1404.74" type="line"/>
      <point x="506.03000000000003" y="1462.3500000000001"/>
      <point x="574.0799999999999" y="1558.0"/>
      <point x="645.6800000000001" y="1558.0" type="qcurve" smooth="yes"/>
      <point x="717.17" y="1558.0"/>
      <point x="784.91" y="1462.3500000000001"/>
      <point x="784.91" y="1404.74" type="qcurve"/>
      <point x="686.22" y="915.33" type="line"/>
    </contour>
  </outline>
</glyph>
<glyph name="dollar" format="2">
  <advance width="1039"/>
  <unicode hex="0024"/>
  <outline>
    <contour>
      <point x="31.489999999999995" y="258.57" type="qcurve"/>
      <point x="145.6" y="349.48" type="line"/>
      <point x="196.33" y="255.45"/>
      <point x="381.08" y="131.92"/>
      <point x="515.7199999999999" y="131.92" type="qcurve" smooth="yes"/>
      <point x="645.89" y="131.92"/>
      <point x="779.0400000000001" y="264.01"/>
      <point x="779.0400000000001" y="372.77" type="qcurve" smooth="yes"/>
      <point x="779.0400000000001" y="502.02"/>
      <point x="619.65" y="636.29"/>
      <point x="459.62" y="694.77" type="qcurve" smooth="yes"/>
      <point x="271.05" y="764.49"/>
      <point x="87.44" y="967.4200000000001"/>
      <point x="87.44" y="1124.93" type="qcurve" smooth="yes"/>
      <point x="87.44" y="1289.13"/>
      <point x="319.22" y="1500.69"/>
      <point x="511.23999999999995" y="1500.69" type="qcurve" smooth="yes"/>
      <point x="634.9" y="1500.69"/>
      <point x="833.61" y="1434.76"/>
      <point x="910.54" y="1368.04" type="qcurve"/>
      <point x="831.2299999999999" y="1247.78" type="line"/>
      <point x="773.7199999999999" y="1298.77"/>
      <point x="615.7600000000001" y="1364.53"/>
      <point x="512.28" y="1364.53" type="qcurve" smooth="yes"/>
      <point x="396.06" y="1364.53"/>
      <point x="280.36" y="1261.72"/>
      <point x="280.36" y="1170.06" type="qcurve" smooth="yes"/>
      <point x="280.36" y="1086.16"/>
      <point x="390.83" y="965.05"/>
      <point x="574.65" y="894.8399999999999" type="qcurve" smooth="yes"/>
      <point x="770.4200000000001" y="817.9799999999999"/>
      <point x="986.13" y="609.52"/>
      <point x="986.13" y="427.18" type="qcurve" smooth="yes"/>
      <point x="986.13" y="236.81"/>
      <point x="736.74" y="1.0"/>
      <point x="529.5699999999999" y="1.0" type="qcurve" smooth="yes"/>
      <point x="341.68" y="1.0"/>
      <point x="100.81" y="130.42999999999998"/>
    </contour>
    <contour>
      <point x="439.69" y="-187.52" type="line"/>
      <point x="439.69" y="53.55" type="line"/>
      <point x="464.21" y="53.55" type="line"/>
      <point x="464.21" y="808.84" type="line"/>
      <point x="579.5699999999999" y="776.45" type="line"/>
      <point x="579.5699999999999" y="53.55" type="line"/>
      <point x="605.6700000000001" y="53.55" type="line"/>
      <point x="605.6700000000001" y="-143.72" type="line"/>
    </contour>
    <contour>
      <point x="438.38" y="1608.45" type="line"/>
      <point x="605.09" y="1643.42" type="line"/>
      <point x="605.09" y="1419.55" type="line"/>
      <point x="579.5699999999999" y="1419.55" type="line"/>
      <point x="579.5699999999999" y="776.45" type="line"/>
      <point x="464.21" y="808.84" type="line"/>
      <point x="464.21" y="1419.55" type="line"/>
      <point x="438.38" y="1419.55" type="line"/>
    </contour>
  </outline>
</glyph>
<glyph name="quotesingle" format="2">
  <advance width="542"/>
  <unicode hex="0027"/>
  <outline>
    <contour>
      <point x="230.92999999999998" y="915.33" type="line"/>
      <point x="128.75" y="1404.74" type="line"/>
      <point x="128.75" y="1462.3500000000001"/>
      <point x="197.73" y="1558.0"/>
      <point x="270.88" y="1558.0" type="qcurve" smooth="yes"/>
      <point x="343.61" y="1558.0"/>
      <point x="412.9" y="1462.3500000000001"/>
      <point x="412.9" y="1404.74" type="qcurve"/>
      <point x="308.72" y="915.33" type="line"/>
    </contour>
  </outline>
</glyph>
<glyph name="parenleft" format="2">
  <advance width="656"/>
  <unicode hex="0028"/>
  <outline>
    <contour>
      <point x="73.16" y="666.11" type="qcurve" smooth="yes"/>
      <point x="73.16" y="923.93"/>
      <point x="370.53" y="1410.31"/>
      <point x="557.36" y="1525.69" type="qcurve"/>
      <point x="637.83" y="1458.11" type="line"/>
      <point x="523.44" y="1330.9"/>
      <point x="360.54" y="903.66"/>
      <point x="360.54" y="666.42" type="qcurve" smooth="yes"/>
      <point x="360.54" y="428.56"/>
      <point x="520.06" y="4.140000000000001"/>
      <point x="638.14" y="-122.48" type="qcurve"/>
      <point x="560.46" y="-193.16" type="line"/>
      <point x="370.84" y="-74.06"/>
      <point x="73.16" y="398.6"/>
    </contour>
  </outline>
</glyph>
<glyph name="parenright" format="2">
  <advance width="656"/>
  <unicode hex="0029"/>
  <outline>
    <contour>
      <point x="582.81" y="666.11" type="qcurve" smooth="yes"/>
      <point x="582.81" y="398.6"/>
      <point x="285.13" y="-74.06"/>
      <point x="95.2" y="-193.16" type="qcurve"/>
      <point x="17.83" y="-122.48" type="line"/>
      <point x="135.91" y="4.140000000000001"/>
      <point x="295.12" y="428.56"/>
      <point x="295.12" y="666.42" type="qcurve" smooth="yes"/>
      <point x="295.12" y="903.66"/>
      <point x="132.53" y="1330.9"/>
      <point x="18.14" y="1458.11" type="qcurve"/>
      <point x="98.61" y="1525.69" type="line"/>
      <point x="285.44" y="1410.31"/>
      <point x="582.81" y="923.93"/>
    </contour>
  </outline>
</glyph>
<glyph name="asterisk" format="2">
  <advance width="823"/>
  <unicode hex="002A"/>
  <outline>
    <contour>
      <point x="415.88" y="714.39" type="qcurve" smooth="yes"/>
      <point x="359.72999999999996" y="714.39"/>
      <point x="307.09" y="790.42"/>
      <point x="320.94" y="840.16" type="qcurve" smooth="yes"/>
      <point x="394.25" y="1089.5" type="line"/>
      <point x="390.32" y="1092.81" type="line"/>
      <point x="209.5" y="904.72" type="line" smooth="yes"/>
      <point x="178.39" y="874.27"/>
      <point x="83.49" y="872.27"/>
      <point x="53.86" y="924.42" type="qcurve" smooth="yes"/>
      <point x="23.65" y="975.68"/>
      <point x="74.15" y="1057.29"/>
      <point x="116.42" y="1068.73" type="qcurve" smooth="yes"/>
      <point x="366.69" y="1130.29" type="line"/>
      <point x="365.69" y="1135.8700000000001" type="line"/>
      <point x="116.42" y="1198.81" type="line" smooth="yes"/>
      <point x="74.46000000000001" y="1209.8300000000002"/>
      <point x="23.65" y="1291.44"/>
      <point x="53.86" y="1343.59" type="qcurve" smooth="yes"/>
      <point x="83.49" y="1394.85"/>
      <point x="178.7" y="1393.58"/>
      <point x="209.5" y="1363.02" type="qcurve" smooth="yes"/>
      <point x="388.94" y="1174.31" type="line"/>
      <point x="393.25" y="1177.62" type="line"/>
      <point x="320.94" y="1427.27" type="line" smooth="yes"/>
      <point x="307.09" y="1479.7"/>
      <point x="361.72999999999996" y="1552.73"/>
      <point x="415.88" y="1552.73" type="qcurve" smooth="yes"/>
      <point x="472.03" y="1552.73"/>
      <point x="524.67" y="1477.01"/>
      <point x="510.82000000000005" y="1427.27" type="qcurve" smooth="yes"/>
      <point x="437.92999999999995" y="1178.24" type="line"/>
      <point x="442.44" y="1174.93" type="line"/>
      <point x="622.64" y="1363.02" type="line" smooth="yes"/>
      <point x="653.37" y="1393.58"/>
      <point x="748.69" y="1394.85"/>
      <point x="777.9" y="1343.01" type="qcurve" smooth="yes"/>
      <point x="808.11" y="1291.44"/>
      <point x="758.3" y="1209.8300000000002"/>
      <point x="715.34" y="1198.81" type="qcurve" smooth="yes"/>
      <point x="465.07000000000005" y="1137.45" type="line"/>
      <point x="466.07000000000005" y="1131.5600000000002" type="line"/>
      <point x="715.34" y="1069.04" type="line" smooth="yes"/>
      <point x="757.99" y="1057.29"/>
      <point x="808.11" y="975.68"/>
      <point x="777.9" y="923.8399999999999" type="qcurve" smooth="yes"/>
      <point x="748.69" y="872.27"/>
      <point x="653.37" y="873.96"/>
      <point x="622.64" y="904.41" type="qcurve" smooth="yes"/>
      <point x="443.44" y="1092.81" type="line"/>
      <point x="439.51" y="1089.5" type="line"/>
      <point x="511.13" y="840.16" type="line" smooth="yes"/>
      <point x="524.29" y="790.42"/>
      <point x="475.71999999999997" y="714.39"/>
    </contour>
  </outline>
</glyph>
<glyph name="plus" format="2">
  <advance width="961"/>
  <unicode hex="002B"/>
  <outline>
    <contour>
      <point x="68.43" y="539.9399999999999" type="line"/>
      <point x="68.43" y="724.0600000000001" type="line"/>
      <point x="892.38" y="724.0600000000001" type="line"/>
      <point x="892.38" y="539.9399999999999" type="line"/>
    </contour>
    <contour>
      <point x="378.40999999999997" y="197.46" type="line"/>
      <point x="378.40999999999997" y="1066.54" type="line"/>
      <point x="582.4000000000001" y="1066.54" type="line"/>
      <point x="582.4000000000001" y="197.46" type="line"/>
    </contour>
  </outline>
</glyph>
<glyph name="comma" format="2">
  <advance width="560"/>
  <unicode hex="002C"/>
  <outline>
    <contour>
      <point x="108.67" y="-217.73999999999998" type="line"/>
      <point x="152.83" y="-188.25"/>
      <point x="265.17" y="-78.81"/>
      <point x="286.96999999999997" y="-7.02" type="qcurve"/>
      <point x="199.89000000000001" y="-4.26"/>
      <point x="116.01" y="78.24000000000001"/>
      <point x="116.01" y="142.76" type="qcurve" smooth="yes"/>
      <point x="116.01" y="206.39000000000001"/>
      <point x="208.4" y="301.5"/>
      <point x="280.53" y="301.5" type="qcurve" smooth="yes"/>
      <point x="349.08" y="301.5"/>
      <point x="445.46999999999997" y="216.48000000000002"/>
      <point x="445.46999999999997" y="130.88" type="qcurve" smooth="yes"/>
      <point x="445.46999999999997" y="4.66"/>
      <point x="268.51" y="-220.39"/>
      <point x="158.51999999999998" y="-276.23" type="qcurve"/>
    </contour>
  </outline>
</glyph>
<glyph name="period" format="2">
  <advance width="560"/>
  <unicode hex="002E"/>
  <outline>
    <contour>
      <point x="113.53000000000002" y="139.77" type="qcurve" smooth="yes"/>
      <point x="113.53000000000002" y="205.46"/>
      <point x="207.16" y="302.43"/>
      <point x="279.59999999999997" y="302.43" type="qcurve" smooth="yes"/>
      <point x="352.46" y="302.43"/>
      <point x="446.4" y="205.46"/>
      <point x="446.4" y="139.77" type="qcurve" smooth="yes"/>
      <point x="446.4" y="75.28"/>
      <point x="352.46" y="-22.0"/>
      <point x="279.59999999999997" y="-22.0" type="qcurve"/>
      <point x="207.16" y="-22.0"/>
      <point x="113.53000000000002" y="75.28"/>
    </contour>
  </outline>
</glyph>
<glyph name="four" format="2">
  <advance width="1142"/>
  <unicode hex="0034"/>
  <outline>
    <contour>
      <point x="29.75" y="548.42" type="line"/>
      <point x="691.8399999999999" y="1525.8899999999999" type="line"/>
      <point x="853.4000000000001" y="1499.29" type="line"/>
      <point x="888.66" y="1464.59" type="line"/>
      <point x="883.3900000000001" y="498.44" type="line"/>
      <point x="883.0799999999999" y="136.20000000000002" type="line"/>
      <point x="1077.45" y="101.2" type="line"/>
      <point x="1077.45" y="0.0" type="line"/>
      <point x="417.67" y="0.0" type="line"/>
      <point x="417.67" y="101.2" type="line"/>
      <point x="621.11" y="136.20000000000002" type="line"/>
      <point x="627.0999999999999" y="496.44" type="line"/>
      <point x="625.24" y="1227.98" type="line"/>
      <point x="205.24" y="582.99" type="line"/>
      <point x="208.95999999999998" y="570.51" type="line"/>
      <point x="1109.0600000000002" y="556.7700000000001" type="line"/>
      <point x="1109.0600000000002" y="439.52" type="line"/>
      <point x="48.07" y="429.01" type="line"/>
    </contour>
  </outline>
</glyph>
<glyph name="colon" format="2">
  <advance width="600"/>
  <unicode hex="003A"/>
  <outline>
    <contour>
      <point x="133.63" y="139.77" type="qcurve" smooth="yes"/>
      <point x="133.63" y="205.46"/>
      <point x="227.26" y="302.43"/>
      <point x="299.70000000000005" y="302.43" type="qcurve" smooth="yes"/>
      <point x="372.56" y="302.43"/>
      <point x="466.5" y="205.46"/>
      <point x="466.5" y="139.77" type="qcurve" smooth="yes"/>
      <point x="466.5" y="75.28"/>
      <point x="372.56" y="-22.0"/>
      <point x="299.70000000000005" y="-22.0" type="qcurve" smooth="yes"/>
      <point x="227.26" y="-22.0"/>
      <point x="133.63" y="75.28"/>
    </contour>
    <contour>
      <point x="133.63" y="833.25" type="qcurve" smooth="yes"/>
      <point x="133.63" y="898.9399999999999"/>
      <point x="227.26" y="995.91"/>
      <point x="299.70000000000005" y="995.91" type="qcurve" smooth="yes"/>
      <point x="372.56" y="995.91"/>
      <point x="466.5" y="898.9399999999999"/>
      <point x="466.5" y="833.25" type="qcurve" smooth="yes"/>
      <point x="466.5" y="768.76"/>
      <point x="372.56" y="671.48"/>
      <point x="299.70000000000005" y="671.48" type="qcurve" smooth="yes"/>
      <point x="227.26" y="671.48"/>
      <point x="133.63" y="768.76"/>
    </contour>
  </outline>
</glyph>
<glyph name="semicolon" format="2">
  <advance width="600"/>
  <unicode hex="003B"/>
  <outline>
    <contour>
      <point x="130.07999999999998" y="-222.42" type="line"/>
      <point x="175.62" y="-192.66000000000003"/>
      <point x="286.84999999999997" y="-78.81"/>
      <point x="309.07" y="-7.02" type="qcurve"/>
      <point x="221.3" y="-7.02"/>
      <point x="133.01000000000002" y="78.24000000000001"/>
      <point x="133.01000000000002" y="142.76" type="qcurve" smooth="yes"/>
      <point x="133.01000000000002" y="206.39000000000001"/>
      <point x="225.40000000000003" y="301.5"/>
      <point x="297.53000000000003" y="301.5" type="qcurve" smooth="yes"/>
      <point x="366.08" y="301.5"/>
      <point x="462.47" y="216.48000000000002"/>
      <point x="462.47" y="130.88" type="qcurve" smooth="yes"/>
      <point x="462.47" y="4.66"/>
      <point x="285.51" y="-220.39"/>
      <point x="175.52" y="-276.23" type="qcurve"/>
    </contour>
    <contour>
      <point x="133.63" y="832.83" type="qcurve" smooth="yes"/>
      <point x="133.63" y="898.9399999999999"/>
      <point x="227.26" y="995.91"/>
      <point x="299.70000000000005" y="995.91" type="qcurve" smooth="yes"/>
      <point x="372.56" y="995.91"/>
      <point x="466.5" y="898.9399999999999"/>
      <point x="466.5" y="832.83" type="qcurve" smooth="yes"/>
      <point x="466.5" y="768.76"/>
      <point x="372.56" y="671.48"/>
      <point x="299.70000000000005" y="671.48" type="qcurve" smooth="yes"/>
      <point x="227.26" y="671.48"/>
      <point x="133.63" y="768.76"/>
    </contour>
  </outline>
</glyph>
<glyph name="less" format="2">
  <advance width="961"/>
  <unicode hex="003C"/>
  <outline>
    <contour>
      <point x="120.08999999999999" y="634.0" type="qcurve"/>
      <point x="122.16000000000001" y="636.76"/>
      <point x="615.98" y="1044.8899999999999"/>
      <point x="681.19" y="1099.35" type="qcurve" smooth="yes"/>
      <point x="750.6" y="1157.8100000000002"/>
      <point x="857.52" y="1043.95"/>
      <point x="796.98" y="979.91" type="qcurve" smooth="yes"/>
      <point x="677.27" y="854.13"/>
      <point x="446.48" y="647.08"/>
      <point x="433.22" y="637.0" type="qcurve"/>
      <point x="449.42" y="625.66"/>
      <point x="683.88" y="423.39"/>
      <point x="797.9499999999999" y="304.42999999999995" type="qcurve" smooth="yes"/>
      <point x="858.14" y="241.23"/>
      <point x="751.05" y="126.47"/>
      <point x="686.18" y="181.55" type="qcurve" smooth="yes"/>
      <point x="621.28" y="237.39"/>
      <point x="121.47000000000001" y="631.66"/>
    </contour>
  </outline>
</glyph>
<glyph name="greater" format="2">
  <advance width="961"/>
  <unicode hex="003E"/>
  <outline>
    <contour>
      <point x="162.59" y="300.77" type="qcurve" smooth="yes"/>
      <point x="277.74" y="421.35"/>
      <point x="511.39" y="625.66"/>
      <point x="527.5899999999999" y="637.0" type="qcurve"/>
      <point x="514.3299999999999" y="647.08"/>
      <point x="282.72999999999996" y="852.51"/>
      <point x="164.10000000000002" y="976.6700000000001" type="qcurve" smooth="yes"/>
      <point x="103.28999999999999" y="1040.71"/>
      <point x="209.67000000000002" y="1155.6499999999999"/>
      <point x="279.08000000000004" y="1096.65" type="qcurve" smooth="yes"/>
      <point x="344.28999999999996" y="1041.6499999999999"/>
      <point x="838.92" y="638.38"/>
      <point x="840.7199999999999" y="635.62" type="qcurve"/>
      <point x="839.07" y="633.28"/>
      <point x="340.07" y="234.15"/>
      <point x="275.16999999999996" y="178.85" type="qcurve" smooth="yes"/>
      <point x="210.3" y="124.31"/>
      <point x="102.66999999999999" y="237.57"/>
    </contour>
  </outline>
</glyph>
<glyph name="question" format="2">
  <advance width="955"/>
  <unicode hex="003F"/>
  <outline>
    <contour>
      <point x="211.32" y="130.78" type="qcurve" smooth="yes"/>
      <point x="211.32" y="193.06"/>
      <point x="300.92" y="283.83"/>
      <point x="370.88" y="283.83" type="qcurve" smooth="yes"/>
      <point x="441.26" y="283.83"/>
      <point x="530.86" y="193.06"/>
      <point x="530.86" y="130.78" type="qcurve" smooth="yes"/>
      <point x="530.86" y="68.77000000000001"/>
      <point x="441.26" y="-22.0"/>
      <point x="370.88" y="-22.0" type="qcurve" smooth="yes"/>
      <point x="300.92" y="-22.0"/>
      <point x="211.32" y="68.77000000000001"/>
    </contour>
    <contour>
      <point x="40.910000000000004" y="1221.91" type="qcurve" smooth="yes"/>
      <point x="40.910000000000004" y="1367.7"/>
      <point x="262.27" y="1540.0"/>
      <point x="459.9" y="1540.0" type="qcurve" smooth="yes"/>
      <point x="662.22" y="1540.0"/>
      <point x="908.02" y="1348.0"/>
      <point x="908.02" y="1163.0" type="qcurve" smooth="yes"/>
      <point x="908.02" y="996.67"/>
      <point x="720.5300000000001" y="782.2099999999999"/>
      <point x="617.52" y="736.69" type="qcurve" smooth="yes"/>
      <point x="539.89" y="704.1"/>
      <point x="409.03999999999996" y="611.2"/>
      <point x="409.03999999999996" y="504.68000000000006" type="qcurve" smooth="yes"/>
      <point x="409.03999999999996" y="432.6" type="line"/>
      <point x="297.73999999999995" y="432.6" type="line"/>
      <point x="284.0" y="537.6" type="line" smooth="yes"/>
      <point x="271.35" y="623.45"/>
      <point x="352.62" y="788.6899999999999"/>
      <point x="461.48" y="857.2" type="qcurve" smooth="yes"/>
      <point x="538.14" y="905.37"/>
      <point x="648.98" y="1034.64"/>
      <point x="648.98" y="1153.4" type="qcurve" smooth="yes"/>
      <point x="648.98" y="1274.14"/>
      <point x="522.02" y="1412.88"/>
      <point x="411.93" y="1412.88" type="qcurve" smooth="yes"/>
      <point x="307.76000000000005" y="1412.88"/>
      <point x="192.37" y="1333.01"/>
      <point x="192.37" y="1281.56" type="qcurve" smooth="yes"/>
      <point x="192.37" y="1250.7"/>
      <point x="300.7" y="1193.46"/>
      <point x="302.08" y="1137.95" type="qcurve" smooth="yes"/>
      <point x="303.73" y="1095.47"/>
      <point x="245.4" y="1027.44"/>
      <point x="186.72" y="1027.44" type="qcurve" smooth="yes"/>
      <point x="122.15" y="1027.44"/>
      <point x="40.910000000000004" y="1126.33"/>
    </contour>
  </outline>
</glyph>
<glyph name="at" format="2">
  <advance width="1529"/>
  <unicode hex="0040"/>
  <outline>
    <contour>
      <point x="69.61" y="719.07" type="qcurve" smooth="yes"/>
      <point x="69.61" y="1080.53"/>
      <point x="469.48999999999995" y="1519.69"/>
      <point x="775.77" y="1519.69" type="qcurve" smooth="yes"/>
      <point x="1072.31" y="1519.69"/>
      <point x="1455.1799999999998" y="1156.1699999999998"/>
      <point x="1455.1799999999998" y="851.53" type="qcurve" smooth="yes"/>
      <point x="1455.1799999999998" y="618.53"/>
      <point x="1227.5600000000002" y="346.52"/>
      <point x="1088.25" y="346.52" type="qcurve" smooth="yes"/>
      <point x="1022.9100000000001" y="346.52"/>
      <point x="925.95" y="395.66"/>
      <point x="905.3" y="451.7" type="qcurve"/>
      <point x="871.6600000000001" y="404.90000000000003"/>
      <point x="729.5699999999999" y="324.61"/>
      <point x="656.98" y="324.61" type="qcurve" smooth="yes"/>
      <point x="547.3000000000001" y="324.61"/>
      <point x="425.44" y="447.42"/>
      <point x="425.44" y="546.17" type="qcurve" smooth="yes"/>
      <point x="425.44" y="666.03"/>
      <point x="664.47" y="828.59"/>
      <point x="911.74" y="869.41" type="qcurve"/>
      <point x="918.48" y="786.24" type="line"/>
      <point x="771.7800000000001" y="759.52"/>
      <point x="609.67" y="659.0799999999999"/>
      <point x="609.67" y="561.31" type="qcurve" smooth="yes"/>
      <point x="609.67" y="507.72"/>
      <point x="670.73" y="449.57"/>
      <point x="719.0400000000001" y="449.57" type="qcurve" smooth="yes"/>
      <point x="766.0999999999999" y="449.57"/>
      <point x="863.72" y="505.75"/>
      <point x="887.3" y="546.77" type="qcurve"/>
      <point x="889.3" y="870.44" type="line" smooth="yes"/>
      <point x="889.88" y="1005.04"/>
      <point x="812.3299999999999" y="1096.95"/>
      <point x="740.24" y="1096.95" type="qcurve" smooth="yes"/>
      <point x="686.55" y="1096.95"/>
      <point x="613.7299999999999" y="1067.94"/>
      <point x="588.0600000000001" y="1040.11" type="qcurve"/>
      <point x="606.64" y="1023.21"/>
      <point x="630.7" y="979.87"/>
      <point x="632.39" y="961.63" type="qcurve" smooth="yes"/>
      <point x="637.0" y="923.33"/>
      <point x="593.85" y="876.63"/>
      <point x="559.27" y="876.63" type="qcurve" smooth="yes"/>
      <point x="521.79" y="876.63"/>
      <point x="470.8399999999999" y="942.71"/>
      <point x="471.25999999999993" y="1000.71" type="qcurve" smooth="yes"/>
      <point x="472.09999999999997" y="1082.71"/>
      <point x="645.41" y="1203.53"/>
      <point x="764.0300000000001" y="1203.53" type="qcurve" smooth="yes"/>
      <point x="902.74" y="1203.53"/>
      <point x="1061.21" y="1044.48"/>
      <point x="1063.21" y="864.23" type="qcurve" smooth="yes"/>
      <point x="1067.06" y="497.42999999999995" type="line" smooth="yes"/>
      <point x="1067.06" y="481.12"/>
      <point x="1082.1999999999998" y="470.88"/>
      <point x="1108.3600000000001" y="470.88" type="qcurve" smooth="yes"/>
      <point x="1195.8400000000001" y="470.88"/>
      <point x="1316.5" y="651.19"/>
      <point x="1316.5" y="835.99" type="qcurve" smooth="yes"/>
      <point x="1316.5" y="1076.33"/>
      <point x="1030.01" y="1382.31"/>
      <point x="773.12" y="1382.31" type="qcurve" smooth="yes"/>
      <point x="515.64" y="1382.31"/>
      <point x="214.59" y="1032.47"/>
      <point x="214.59" y="741.96" type="qcurve" smooth="yes"/>
      <point x="214.59" y="433.85"/>
      <point x="514.39" y="102.72"/>
      <point x="759.62" y="102.72" type="qcurve" smooth="yes"/>
      <point x="872.6800000000001" y="102.72"/>
      <point x="1031.27" y="161.76"/>
      <point x="1079.8000000000002" y="200.27" type="qcurve"/>
      <point x="1140.1399999999999" y="109.89999999999999" type="line"/>
      <point x="1086.8400000000001" y="54.870000000000005"/>
      <point x="880.1800000000001" y="-28.14"/>
      <point x="752.56" y="-28.14" type="qcurve" smooth="yes"/>
      <point x="459.88" y="-28.14"/>
      <point x="69.61" y="360.83"/>
    </contour>
  </outline>
</glyph>
<glyph name="C" format="2">
  <advance width="1291"/>
  <unicode hex="0043"/>
  <outline>
    <contour>
      <point x="68.63" y="696.4399999999999" type="qcurve" smooth="yes"/>
      <point x="68.63" y="1056.44"/>
      <point x="431.0" y="1517.48"/>
      <point x="731.24" y="1517.48" type="qcurve" smooth="yes"/>
      <point x="854.99" y="1517.48"/>
      <point x="1010.0200000000001" y="1447.8600000000001"/>
      <point x="1052.5700000000002" y="1408.1" type="qcurve"/>
      <point x="1078.07" y="1499.58" type="line"/>
      <point x="1189.1000000000001" y="1499.58" type="line"/>
      <point x="1189.1000000000001" y="1022.21" type="line"/>
      <point x="1058.8000000000002" y="1022.21" type="line"/>
      <point x="1027.1100000000001" y="1188.8899999999999" type="line" smooth="yes"/>
      <point x="1010.0000000000001" y="1276.8100000000002"/>
      <point x="885.2600000000001" y="1378.63"/>
      <point x="772.4" y="1378.63" type="qcurve" smooth="yes"/>
      <point x="579.6300000000001" y="1378.63"/>
      <point x="362.75000000000006" y="1058.78"/>
      <point x="363.29" y="734.96" type="qcurve" smooth="yes"/>
      <point x="363.83000000000004" y="415.96000000000004"/>
      <point x="586.87" y="130.03"/>
      <point x="778.64" y="130.03" type="qcurve" smooth="yes"/>
      <point x="920.1899999999999" y="130.03"/>
      <point x="1103.4199999999998" y="238.43"/>
      <point x="1153.6699999999998" y="329.1" type="qcurve"/>
      <point x="1254.1" y="245.60000000000002" type="line"/>
      <point x="1181.8999999999999" y="121.19000000000001"/>
      <point x="916.56" y="-30.75"/>
      <point x="727.15" y="-30.75" type="qcurve" smooth="yes"/>
      <point x="432.18" y="-30.75"/>
      <point x="68.63" y="364.99"/>
    </contour>
  </outline>
</glyph>
<glyph name="D" format="2">
  <advance width="1434"/>
  <unicode hex="0044"/>
  <outline>
    <contour>
      <point x="50.279999999999994" y="0.0" type="line"/>
      <point x="50.279999999999994" y="107.2" type="line"/>
      <point x="227.98000000000002" y="142.20000000000002" type="line"/>
      <point x="229.98000000000002" y="754.0" type="line"/>
      <point x="227.98000000000002" y="1345.22" type="line"/>
      <point x="50.279999999999994" y="1379.22" type="line"/>
      <point x="50.279999999999994" y="1500.0" type="line"/>
      <point x="667.53" y="1500.0" type="line" smooth="yes"/>
      <point x="979.2800000000001" y="1500.62"/>
      <point x="1363.27" y="1119.0"/>
      <point x="1363.27" y="777.0" type="qcurve" smooth="yes"/>
      <point x="1363.27" y="410.0"/>
      <point x="979.86" y="0.0"/>
      <point x="632.08" y="0.0" type="qcurve" smooth="yes"/>
    </contour>
    <contour>
      <point x="502.56" y="136.27" type="line"/>
      <point x="525.6999999999999" y="130.27"/>
      <point x="627.38" y="121.58000000000001"/>
      <point x="678.58" y="121.58000000000001" type="qcurve" smooth="yes"/>
      <point x="854.24" y="121.58000000000001"/>
      <point x="1075.29" y="441.79"/>
      <point x="1077.29" y="758.52" type="qcurve" smooth="yes"/>
      <point x="1078.5600000000002" y="1050.56"/>
      <point x="847.0" y="1364.81"/>
      <point x="653.17" y="1364.81" type="qcurve" smooth="yes"/>
      <point x="619.45" y="1364.81"/>
      <point x="527.28" y="1352.81"/>
      <point x="502.86999999999995" y="1347.81" type="qcurve"/>
      <point x="500.56" y="751.83" type="line"/>
    </contour>
  </outline>
</glyph>
<glyph name="E" format="2">
  <advance width="1195"/>
  <unicode hex="0045"/>
  <outline>
    <contour>
      <point x="50.279999999999994" y="0.0" type="line"/>
      <point x="50.279999999999994" y="107.61999999999999" type="line"/>
      <point x="227.98000000000002" y="143.16" type="line"/>
      <point x="229.98000000000002" y="761.83" type="line"/>
      <point x="227.98000000000002" y="1345.22" type="line"/>
      <point x="50.279999999999994" y="1379.22" type="line"/>
      <point x="50.279999999999994" y="1500.0" type="line"/>
      <point x="1069.2" y="1500.0" type="line"/>
      <point x="1069.2" y="1152.17" type="line"/>
      <point x="945.89" y="1152.17" type="line"/>
      <point x="915.09" y="1369.6" type="line"/>
      <point x="535.88" y="1369.6" type="line"/>
      <point x="502.6" y="1348.36" type="line"/>
      <point x="501.02" y="783.0" type="line"/>
      <point x="502.6" y="147.81" type="line"/>
      <point x="534.71" y="123.5" type="line"/>
      <point x="966.6999999999999" y="123.5" type="line"/>
      <point x="1032.2199999999998" y="385.13" type="line"/>
      <point x="1155.2199999999998" y="385.13" type="line"/>
      <point x="1120.88" y="0.0" type="line"/>
    </contour>
    <contour>
      <point x="375.29999999999995" y="731.8" type="line"/>
      <point x="375.29999999999995" y="840.2" type="line"/>
      <point x="810.5100000000001" y="850.2" type="line"/>
      <point x="838.83" y="1004.31" type="line"/>
      <point x="958.11" y="1004.31" type="line"/>
      <point x="958.11" y="565.52" type="line"/>
      <point x="838.83" y="565.52" type="line"/>
      <point x="810.5100000000001" y="721.8" type="line"/>
    </contour>
  </outline>
</glyph>
<glyph name="F" format="2">
  <advance width="1109"/>
  <unicode hex="0046"/>
  <outline>
    <contour>
      <point x="50.279999999999994" y="0.0" type="line"/>
      <point x="50.279999999999994" y="107.61999999999999" type="line"/>
      <point x="227.98000000000002" y="143.16" type="line"/>
      <point x="229.98000000000002" y="755.62" type="line"/>
      <point x="227.98000000000002" y="1345.22" type="line"/>
      <point x="50.279999999999994" y="1379.22" type="line"/>
      <point x="50.279999999999994" y="1500.0" type="line"/>
      <point x="1069.08" y="1500.0" type="line"/>
      <point x="1069.08" y="1145.27" type="line"/>
      <point x="945.77" y="1145.27" type="line"/>
      <point x="914.9699999999999" y="1369.6" type="line"/>
      <point x="537.26" y="1369.6" type="line"/>
      <point x="503.28999999999996" y="1348.36" type="line"/>
      <point x="503.15" y="760.0" type="line"/>
      <point x="505.15" y="141.39" type="line"/>
      <point x="689.91" y="107.92999999999999" type="line"/>
      <point x="689.91" y="0.0" type="line"/>
    </contour>
    <contour>
      <point x="375.03" y="705.59" type="line"/>
      <point x="375.03" y="818.13" type="line"/>
      <point x="809.13" y="826.06" type="line"/>
      <point x="837.45" y="990.17" type="line"/>
      <point x="957.99" y="990.17" type="line"/>
      <point x="957.99" y="527.58" type="line"/>
      <point x="837.45" y="527.58" type="line"/>
      <point x="809.13" y="697.66" type="line"/>
    </contour>
  </outline>
</glyph>
<glyph name="G" format="2">
  <advance width="1435"/>
  <unicode hex="0047"/>
  <outline>
    <contour>
      <point x="68.63" y="732.19" type="qcurve" smooth="yes"/>
      <point x="68.63" y="1094.4099999999999"/>
      <point x="451.99" y="1517.17"/>
      <point x="750.06" y="1517.17" type="qcurve" smooth="yes"/>
      <point x="869.4300000000001" y="1517.17"/>
      <point x="1028.23" y="1468.24"/>
      <point x="1072.1100000000001" y="1434.4" type="qcurve"/>
      <point x="1095.9199999999998" y="1499.58" type="line"/>
      <point x="1215.16" y="1499.58" type="line"/>
      <point x="1215.16" y="1033.5900000000001" type="line"/>
      <point x="1081.5" y="1033.5900000000001" type="line"/>
      <point x="1050.66" y="1179.63" type="line" smooth="yes"/>
      <point x="1031.81" y="1276.49"/>
      <point x="897.7200000000001" y="1374.9199999999998"/>
      <point x="784.38" y="1374.9199999999998" type="qcurve" smooth="yes"/>
      <point x="573.58" y="1374.9199999999998"/>
      <point x="362.33000000000004" y="1057.28"/>
      <point x="363.71000000000004" y="757.74" type="qcurve" smooth="yes"/>
      <point x="364.67" y="443.35"/>
      <point x="586.91" y="117.44"/>
      <point x="808.2900000000001" y="117.44" type="qcurve" smooth="yes"/>
      <point x="874.7800000000001" y="117.44"/>
      <point x="997.5" y="156.98999999999998"/>
      <point x="1042.2" y="197.28" type="qcurve"/>
      <point x="1042.2" y="519.28" type="line"/>
      <point x="885.56" y="552.73" type="line"/>
      <point x="885.56" y="666.68" type="line"/>
      <point x="1402.8999999999999" y="666.68" type="line"/>
      <point x="1402.8999999999999" y="552.73" type="line"/>
      <point x="1299.75" y="519.28" type="line"/>
      <point x="1299.75" y="193.06" type="line"/>
      <point x="1213.97" y="92.36"/>
      <point x="925.4100000000001" y="-25.71"/>
      <point x="753.21" y="-25.71" type="qcurve" smooth="yes"/>
      <point x="457.96999999999997" y="-25.71"/>
      <point x="68.63" y="371.03000000000003"/>
    </contour>
  </outline>
</glyph>
<glyph name="H" format="2">
  <advance width="1562"/>
  <unicode hex="0048"/>
  <outline>
    <contour>
      <point x="50.279999999999994" y="0.0" type="line"/>
      <point x="50.279999999999994" y="107.61999999999999" type="line"/>
      <point x="227.98000000000002" y="142.62" type="line"/>
      <point x="229.98000000000002" y="754.0" type="line"/>
      <point x="227.98000000000002" y="1345.22" type="line"/>
      <point x="50.279999999999994" y="1379.22" type="line"/>
      <point x="50.279999999999994" y="1500.0" type="line"/>
      <point x="676.17" y="1500.0" type="line"/>
      <point x="676.17" y="1379.22" type="line"/>
      <point x="503.28999999999996" y="1345.22" type="line"/>
      <point x="501.28999999999996" y="754.0" type="line"/>
      <point x="503.28999999999996" y="142.62" type="line"/>
      <point x="676.17" y="107.61999999999999" type="line"/>
      <point x="676.17" y="0.0" type="line"/>
    </contour>
    <contour>
      <point x="368.51" y="710.64" type="line"/>
      <point x="368.51" y="850.26" type="line"/>
      <point x="785.7" y="842.26" type="line"/>
      <point x="1203.27" y="850.26" type="line"/>
      <point x="1203.27" y="710.64" type="line"/>
      <point x="785.7" y="710.64" type="line"/>
    </contour>
    <contour>
      <point x="886.21" y="0.0" type="line"/>
      <point x="886.21" y="107.61999999999999" type="line"/>
      <point x="1059.09" y="142.62" type="line"/>
      <point x="1061.09" y="754.0" type="line"/>
      <point x="1059.09" y="1345.22" type="line"/>
      <point x="886.21" y="1379.22" type="line"/>
      <point x="886.21" y="1500.0" type="line"/>
      <point x="1512.1" y="1500.0" type="line"/>
      <point x="1512.1" y="1379.22" type="line"/>
      <point x="1334.3999999999999" y="1345.22" type="line"/>
      <point x="1332.3999999999999" y="754.0" type="line"/>
      <point x="1334.3999999999999" y="142.62" type="line"/>
      <point x="1512.1" y="107.61999999999999" type="line"/>
      <point x="1512.1" y="0.0" type="line"/>
    </contour>
  </outline>
</glyph>
<glyph name="J" format="2">
  <advance width="732"/>
  <unicode hex="004A"/>
  <outline>
    <contour>
      <point x="-11.29" y="-213.3" type="qcurve"/>
      <point x="-11.29" y="-72.8" type="line"/>
      <point x="15.71" y="-73.8"/>
      <point x="61.11000000000001" y="-71.8"/>
      <point x="99.11000000000001" y="-66.8" type="qcurve" smooth="yes"/>
      <point x="173.11" y="-56.8"/>
      <point x="236.90999999999997" y="24.2"/>
      <point x="236.90999999999997" y="118.2" type="qcurve" smooth="yes"/>
      <point x="236.45999999999998" y="809.2" type="line"/>
      <point x="234.88" y="1345.22" type="line"/>
      <point x="55.42999999999999" y="1379.22" type="line"/>
      <point x="55.42999999999999" y="1500.0" type="line"/>
      <point x="682.19" y="1500.0" type="line"/>
      <point x="682.19" y="1379.22" type="line"/>
      <point x="509.65999999999997" y="1345.22" type="line"/>
      <point x="507.97" y="809.2" type="line"/>
      <point x="516.4300000000001" y="192.1" type="line" smooth="yes"/>
      <point x="519.39" y="-25.9"/>
      <point x="327.21" y="-209.92"/>
      <point x="156.31" y="-216.92" type="qcurve" smooth="yes"/>
      <point x="97.31" y="-219.61"/>
      <point x="11.810000000000002" y="-215.92"/>
    </contour>
  </outline>
</glyph>
<glyph name="K" format="2">
  <advance width="1410"/>
  <unicode hex="004B"/>
  <outline>
    <contour>
      <point x="50.279999999999994" y="0.0" type="line"/>
      <point x="50.279999999999994" y="107.61999999999999" type="line"/>
      <point x="227.98000000000002" y="142.62" type="line"/>
      <point x="229.98000000000002" y="754.0" type="line"/>
      <point x="227.98000000000002" y="1345.22" type="line"/>
      <point x="50.279999999999994" y="1379.22" type="line"/>
      <point x="50.279999999999994" y="1500.0" type="line"/>
      <point x="673.47" y="1500.0" type="line"/>
      <point x="673.47" y="1379.22" type="line"/>
      <point x="503.28999999999996" y="1345.22" type="line"/>
      <point x="501.28999999999996" y="754.0" type="line"/>
      <point x="503.28999999999996" y="142.62" type="line"/>
      <point x="669.97" y="107.61999999999999" type="line"/>
      <point x="669.97" y="0.0" type="line"/>
    </contour>
    <contour>
      <point x="359.55" y="364.09999999999997" type="line"/>
      <point x="360.81" y="553.9399999999999" type="line"/>
      <point x="1009.49" y="1342.0600000000002" type="line"/>
      <point x="882.24" y="1379.53" type="line"/>
      <point x="882.24" y="1500.0" type="line"/>
      <point x="1344.19" y="1500.0" type="line"/>
      <point x="1344.19" y="1379.53" type="line"/>
      <point x="1188.14" y="1342.0600000000002" type="line"/>
      <point x="777.31" y="841.35" type="line"/>
      <point x="738.5" y="801.91" type="line"/>
    </contour>
    <contour>
      <point x="624.24" y="771.54" type="line"/>
      <point x="810.58" y="975.22" type="line"/>
      <point x="1294.9599999999998" y="142.20000000000002" type="line"/>
      <point x="1417.3400000000001" y="107.61999999999999" type="line"/>
      <point x="1417.3400000000001" y="0.0" type="line"/>
      <point x="860.1" y="0.0" type="line"/>
      <point x="860.1" y="107.61999999999999" type="line"/>
      <point x="988.3900000000001" y="142.20000000000002" type="line"/>
    </contour>
  </outline>
</glyph>
<glyph name="N" format="2">
  <advance width="1428"/>
  <unicode hex="004E"/>
  <outline>
    <contour>
      <point x="50.279999999999994" y="0.0" type="line"/>
      <point x="50.279999999999994" y="107.61999999999999" type="line"/>
      <point x="222.01" y="142.20000000000002" type="line"/>
      <point x="223.59" y="754.0" type="line"/>
      <point x="222.01" y="1345.53" type="line"/>
      <point x="50.279999999999994" y="1379.53" type="line"/>
      <point x="50.279999999999994" y="1500.0" type="line"/>
      <point x="518.42" y="1500.0" type="line"/>
      <point x="839.11" y="869.57" type="line"/>
      <point x="1094.31" y="380.86" type="line"/>
      <point x="1094.96" y="769.19" type="line"/>
      <point x="1092.5400000000002" y="1345.53" type="line"/>
      <point x="914.0399999999998" y="1379.53" type="line"/>
      <point x="914.0399999999998" y="1500.0" type="line"/>
      <point x="1393.6399999999999" y="1500.0" type="line"/>
      <point x="1393.6399999999999" y="1379.53" type="line"/>
      <point x="1223.26" y="1345.53" type="line"/>
      <point x="1221.26" y="761.75" type="line"/>
      <point x="1217.68" y="-1.68" type="line"/>
      <point x="999.8" y="-1.68" type="line"/>
      <point x="622.9200000000001" y="716.1700000000001" type="line"/>
      <point x="351.48999999999995" y="1233.8" type="line"/>
      <point x="350.72999999999996" y="737.57" type="line"/>
      <point x="352.72999999999996" y="142.20000000000002" type="line"/>
      <point x="524.55" y="107.61999999999999" type="line"/>
      <point x="524.55" y="0.0" type="line"/>
    </contour>
  </outline>
</glyph>
<glyph name="R" format="2">
  <advance width="1347"/>
  <unicode hex="0052"/>
  <outline>
    <contour>
      <point x="50.279999999999994" y="0.0" type="line"/>
      <point x="50.279999999999994" y="107.2" type="line"/>
      <point x="227.98000000000002" y="142.47" type="line"/>
      <point x="229.98000000000002" y="764.8000000000001" type="line"/>
      <point x="227.98000000000002" y="1345.22" type="line"/>
      <point x="50.279999999999994" y="1379.22" type="line"/>
      <point x="50.279999999999994" y="1500.0" type="line"/>
      <point x="763.04" y="1500.0" type="line" smooth="yes"/>
      <point x="951.06" y="1499.58"/>
      <point x="1153.4799999999998" y="1309.07"/>
      <point x="1153.4799999999998" y="1140.9" type="qcurve" smooth="yes"/>
      <point x="1153.4799999999998" y="961.35"/>
      <point x="918.82" y="721.94"/>
      <point x="741.5500000000001" y="721.94" type="qcurve" smooth="yes"/>
      <point x="683.78" y="721.94"/>
      <point x="420.64" y="728.64"/>
      <point x="373.06" y="733.9499999999999" type="qcurve"/>
      <point x="372.75" y="849.65" type="line"/>
      <point x="629.3" y="849.65" type="line" smooth="yes"/>
      <point x="753.33" y="849.65"/>
      <point x="864.51" y="994.77"/>
      <point x="864.51" y="1132.66" type="qcurve" smooth="yes"/>
      <point x="864.51" y="1247.42"/>
      <point x="760.5600000000001" y="1366.5"/>
      <point x="654.51" y="1366.5" type="qcurve" smooth="yes"/>
      <point x="527.19" y="1366.5" type="line"/>
      <point x="504.14" y="1349.12" type="line"/>
      <point x="501.18" y="780.36" type="line"/>
      <point x="502.86999999999995" y="142.47" type="line"/>
      <point x="683.77" y="107.61999999999999" type="line"/>
      <point x="683.77" y="0.0" type="line"/>
    </contour>
    <contour>
      <point x="616.7299999999999" y="769.44" type="line"/>
      <point x="876.61" y="815.26" type="line"/>
      <point x="1131.78" y="332.36" type="line" smooth="yes"/>
      <point x="1204.72" y="193.77"/>
      <point x="1296.47" y="111.53999999999999"/>
      <point x="1358.45" y="109.3" type="qcurve"/>
      <point x="1358.45" y="0.0" type="line"/>
      <point x="1034.66" y="0.0" type="line"/>
      <point x="999.83" y="31.16" type="line"/>
    </contour>
  </outline>
</glyph>
<glyph name="S" format="2">
  <advance width="1048"/>
  <unicode hex="0053"/>
  <outline>
    <contour>
      <point x="53.01" y="-0.31" type="line"/>
      <point x="53.01" y="479.97" type="line"/>
      <point x="179.4" y="479.97" type="line"/>
      <point x="193.25" y="385.83" type="line" smooth="yes"/>
      <point x="214.75" y="254.15"/>
      <point x="393.77000000000004" y="118.43"/>
      <point x="520.57" y="118.43" type="qcurve" smooth="yes"/>
      <point x="647.0400000000001" y="118.43"/>
      <point x="777.1600000000001" y="244.89"/>
      <point x="777.1600000000001" y="355.57" type="qcurve" smooth="yes"/>
      <point x="777.1600000000001" y="475.34000000000003"/>
      <point x="624.26" y="598.51"/>
      <point x="452.11" y="671.65" type="qcurve" smooth="yes"/>
      <point x="267.40999999999997" y="748.16"/>
      <point x="82.25" y="962.19"/>
      <point x="82.25" y="1127.7" type="qcurve" smooth="yes"/>
      <point x="82.25" y="1300.6200000000001"/>
      <point x="307.62" y="1520.0700000000002"/>
      <point x="487.95" y="1520.0700000000002" type="qcurve" smooth="yes"/>
      <point x="591.89" y="1520.0700000000002"/>
      <point x="732.52" y="1467.83"/>
      <point x="780.01" y="1426.97" type="qcurve"/>
      <point x="799.6" y="1496.07" type="line"/>
      <point x="909.54" y="1496.07" type="line"/>
      <point x="909.54" y="1063.79" type="line"/>
      <point x="787.63" y="1063.79" type="line"/>
      <point x="768.5" y="1182.93" type="line" smooth="yes"/>
      <point x="752.55" y="1272.34"/>
      <point x="616.8100000000001" y="1370.19"/>
      <point x="509.88000000000005" y="1370.19" type="qcurve" smooth="yes"/>
      <point x="410.17" y="1370.19"/>
      <point x="307.09" y="1270.99"/>
      <point x="307.09" y="1183.84" type="qcurve" smooth="yes"/>
      <point x="307.09" y="1097.92"/>
      <point x="414.02" y="988.58"/>
      <point x="594.91" y="912.82" type="qcurve" smooth="yes"/>
      <point x="784.09" y="835.76"/>
      <point x="1009.54" y="613.72"/>
      <point x="1009.54" y="424.14000000000004" type="qcurve" smooth="yes"/>
      <point x="1009.54" y="224.32"/>
      <point x="758.77" y="-18.63"/>
      <point x="559.79" y="-18.63" type="qcurve" smooth="yes"/>
      <point x="439.42" y="-18.63"/>
      <point x="263.55" y="45.63"/>
      <point x="203.43" y="104.63" type="qcurve"/>
      <point x="166.26999999999998" y="-0.31" type="line"/>
    </contour>
  </outline>
</glyph>
<glyph name="T" format="2">
  <advance width="1252"/>
  <unicode hex="0054"/>
  <outline>
    <contour>
      <point x="40.0" y="1061.64" type="line"/>
      <point x="40.0" y="1500.0" type="line"/>
      <point x="1212.47" y="1500.0" type="line"/>
      <point x="1212.47" y="1061.64" type="line"/>
      <point x="1091.3100000000002" y="1061.64" type="line"/>
      <point x="1054.76" y="1369.6" type="line"/>
      <point x="781.65" y="1369.6" type="line"/>
      <point x="762.96" y="1350.84" type="line"/>
      <point x="761.89" y="754.0" type="line"/>
      <point x="763.58" y="142.47" type="line"/>
      <point x="950.59" y="107.2" type="line"/>
      <point x="950.59" y="0.0" type="line"/>
      <point x="299.88" y="0.0" type="line"/>
      <point x="299.88" y="107.2" type="line"/>
      <point x="488.27000000000004" y="142.47" type="line"/>
      <point x="490.27000000000004" y="754.0" type="line"/>
      <point x="489.2" y="1350.84" type="line"/>
      <point x="479.89000000000004" y="1369.6" type="line"/>
      <point x="197.4" y="1369.6" type="line"/>
      <point x="160.85" y="1061.64" type="line"/>
    </contour>
  </outline>
</glyph>
<glyph name="W" format="2">
  <advance width="1940"/>
  <unicode hex="0057"/>
  <outline>
    <contour>
      <point x="-2.0600000000000023" y="1379.95" type="line"/>
      <point x="-2.0600000000000023" y="1500.0" type="line"/>
      <point x="558.96" y="1500.0" type="line"/>
      <point x="558.96" y="1379.95" type="line"/>
      <point x="422.96000000000004" y="1343.64" type="line"/>
      <point x="563.3399999999999" y="815.59" type="line"/>
      <point x="699.75" y="333.13" type="line"/>
      <point x="824.15" y="722.8000000000001" type="line"/>
      <point x="965.88" y="1190.68" type="line"/>
      <point x="1038.6699999999998" y="1006.48" type="line"/>
      <point x="926.94" y="642.64" type="line"/>
      <point x="733.29" y="-5.52" type="line"/>
      <point x="523.43" y="-5.52" type="line"/>
      <point x="309.29999999999995" y="753.04" type="line"/>
      <point x="136.88" y="1343.76" type="line"/>
    </contour>
    <contour>
      <point x="711.69" y="1382.6200000000001" type="line"/>
      <point x="711.69" y="1500.0" type="line"/>
      <point x="1253.91" y="1500.0" type="line"/>
      <point x="1253.91" y="1382.6200000000001" type="line"/>
      <point x="1118.8" y="1346.73" type="line"/>
      <point x="1248.96" y="821.5600000000001" type="line"/>
      <point x="1375.03" y="339.15" type="line"/>
      <point x="1511.9399999999998" y="828.51" type="line"/>
      <point x="1649.75" y="1345.53" type="line"/>
      <point x="1494.2" y="1379.53" type="line"/>
      <point x="1494.2" y="1500.0" type="line"/>
      <point x="1947.08" y="1500.0" type="line"/>
      <point x="1947.08" y="1379.53" type="line"/>
      <point x="1797.9600000000003" y="1344.1799999999998" type="line"/>
      <point x="1635.83" y="788.74" type="line"/>
      <point x="1416.72" y="-5.52" type="line"/>
      <point x="1204.5500000000002" y="-5.52" type="line"/>
      <point x="1011.27" y="742.26" type="line"/>
      <point x="843.0799999999999" y="1346.85" type="line"/>
    </contour>
  </outline>
</glyph>
<glyph name="X" format="2">
  <advance width="1308"/>
  <unicode hex="0058"/>
  <outline>
    <contour>
      <point x="-1.0399999999999991" y="0.0" type="line"/>
      <point x="-1.879999999999999" y="108.03999999999999" type="line"/>
      <point x="139.18" y="142.73000000000002" type="line"/>
      <point x="580.8900000000001" y="851.63" type="line"/>
      <point x="629.72" y="852.4699999999999" type="line"/>
      <point x="921.5999999999999" y="1349.37" type="line"/>
      <point x="784.75" y="1379.53" type="line"/>
      <point x="784.75" y="1500.0" type="line"/>
      <point x="1232.97" y="1500.0" type="line"/>
      <point x="1232.97" y="1379.53" type="line"/>
      <point x="1085.03" y="1346.34" type="line"/>
      <point x="711.29" y="740.17" type="line"/>
      <point x="662.79" y="739.33" type="line"/>
      <point x="303.03000000000003" y="139.7" type="line"/>
      <point x="437.91999999999996" y="108.03999999999999" type="line"/>
      <point x="437.91999999999996" y="0.0" type="line"/>
    </contour>
    <contour>
      <point x="29.71" y="1379.53" type="line"/>
      <point x="29.71" y="1500.0" type="line"/>
      <point x="611.98" y="1500.0" type="line"/>
      <point x="611.98" y="1379.53" type="line"/>
      <point x="481.09000000000003" y="1345.38" type="line"/>
      <point x="753.99" y="860.0" type="line"/>
      <point x="1171.02" y="142.31" type="line"/>
      <point x="1315.86" y="108.03999999999999" type="line"/>
      <point x="1315.86" y="0.0" type="line"/>
      <point x="719.06" y="0.0" type="line"/>
      <point x="719.06" y="108.03999999999999" type="line"/>
      <point x="855.01" y="142.31" type="line"/>
      <point x="529.49" y="726.67" type="line"/>
      <point x="168.07" y="1346.34" type="line"/>
    </contour>
  </outline>
</glyph>
<glyph name="bracketleft" format="2">
  <advance width="646"/>
  <unicode hex="005B"/>
  <outline>
    <contour>
      <point x="131.05" y="508.0" type="line"/>
      <point x="119.05" y="1362.0" type="line"/>
      <point x="100.05" y="1382.0" type="line"/>
      <point x="100.05" y="1500.0" type="line"/>
      <point x="586.24" y="1500.0" type="line"/>
      <point x="586.24" y="1381.0" type="line"/>
      <point x="373.83" y="1362.0" type="line"/>
      <point x="361.83" y="508.0" type="line"/>
      <point x="373.83" y="-342.0" type="line"/>
      <point x="586.24" y="-361.0" type="line"/>
      <point x="586.24" y="-480.0" type="line"/>
      <point x="100.05" y="-480.0" type="line"/>
      <point x="100.05" y="-362.0" type="line"/>
      <point x="119.05" y="-342.0" type="line"/>
    </contour>
  </outline>
</glyph>
<glyph name="bracketright" format="2">
  <advance width="646"/>
  <unicode hex="005D"/>
  <outline>
    <contour>
      <point x="59.9" y="-480.0" type="line"/>
      <point x="59.9" y="-361.0" type="line"/>
      <point x="272.31" y="-342.0" type="line"/>
      <point x="284.31" y="508.0" type="line"/>
      <point x="272.31" y="1362.0" type="line"/>
      <point x="59.9" y="1381.0" type="line"/>
      <point x="59.9" y="1500.0" type="line"/>
      <point x="546.0899999999999" y="1500.0" type="line"/>
      <point x="546.0899999999999" y="1382.0" type="line"/>
      <point x="527.0899999999999" y="1362.0" type="line"/>
      <point x="515.0899999999999" y="508.0" type="line"/>
      <point x="527.0899999999999" y="-342.0" type="line"/>
      <point x="546.0899999999999" y="-362.0" type="line"/>
      <point x="546.0899999999999" y="-480.0" type="line"/>
    </contour>
  </outline>
</glyph>
<glyph name="underscore" format="2">
  <advance width="1276"/>
  <unicode hex="005F"/>
  <outline>
    <contour>
      <point x="-20.0" y="-478.63" type="line"/>
      <point x="-20.0" y="-309.58" type="line"/>
      <point x="638.6800000000001" y="-303.38" type="line"/>
      <point x="1295.78" y="-309.58" type="line"/>
      <point x="1295.78" y="-478.63" type="line"/>
      <point x="638.6800000000001" y="-489.01" type="line"/>
    </contour>
  </outline>
</glyph>
<glyph name="grave" format="2">
  <advance width="1024"/>
  <unicode hex="0060"/>
  <outline>
    <contour>
      <point x="275.94" y="1440.78" type="qcurve" smooth="yes"/>
      <point x="276.78000000000003" y="1475.63"/>
      <point x="338.41" y="1526.8700000000001"/>
      <point x="375.58" y="1526.8700000000001" type="qcurve" smooth="yes"/>
      <point x="414.51000000000005" y="1526.8700000000001"/>
      <point x="495.36" y="1459.93"/>
      <point x="530.63" y="1417.59" type="qcurve" smooth="yes"/>
      <point x="705.33" y="1213.27" type="line"/>
      <point x="634.55" y="1138.1699999999998" type="line"/>
      <point x="358.08000000000004" y="1315.38" type="line" smooth="yes"/>
      <point x="315.26" y="1342.6000000000001"/>
      <point x="275.1" y="1401.43"/>
    </contour>
  </outline>
</glyph>
<glyph name="a" format="2">
  <advance width="1076"/>
  <unicode hex="0061"/>
  <outline>
    <contour>
      <point x="67.57" y="251.57000000000002" type="qcurve" smooth="yes"/>
      <point x="67.57" y="400.72"/>
      <point x="360.95000000000005" y="594.95"/>
      <point x="741.46" y="636.97" type="qcurve"/>
      <point x="748.8900000000001" y="541.23" type="line"/>
      <point x="503.05" y="511.34000000000003"/>
      <point x="326.61" y="380.55"/>
      <point x="327.23" y="272.62" type="qcurve" smooth="yes"/>
      <point x="327.54" y="196.57"/>
      <point x="397.96000000000004" y="127.56"/>
      <point x="454.01" y="127.56" type="qcurve" smooth="yes"/>
      <point x="509.46" y="127.56"/>
      <point x="616.09" y="200.93"/>
      <point x="641.24" y="251.45000000000002" type="qcurve"/>
      <point x="642.4" y="635.19" type="line" smooth="yes"/>
      <point x="642.98" y="789.63"/>
      <point x="550.97" y="899.8"/>
      <point x="460.7099999999999" y="899.8" type="qcurve" smooth="yes"/>
      <point x="399.42" y="899.8"/>
      <point x="303.91999999999996" y="866.21"/>
      <point x="283.82" y="838.53" type="qcurve"/>
      <point x="301.28" y="821.49"/>
      <point x="331.07" y="777.6"/>
      <point x="332.81" y="746.72" type="qcurve" smooth="yes"/>
      <point x="336.56" y="701.83"/>
      <point x="285.54" y="646.8"/>
      <point x="238.0" y="645.25" type="qcurve" smooth="yes"/>
      <point x="189.95000000000002" y="643.7"/>
      <point x="120.13999999999999" y="720.4399999999999"/>
      <point x="120.13999999999999" y="792.52" type="qcurve" smooth="yes"/>
      <point x="120.13999999999999" y="898.22"/>
      <point x="347.15" y="1038.06"/>
      <point x="529.66" y="1038.06" type="qcurve" smooth="yes"/>
      <point x="714.13" y="1038.06"/>
      <point x="901.04" y="859.5"/>
      <point x="901.66" y="661.55" type="qcurve" smooth="yes"/>
      <point x="902.5899999999999" y="127.4" type="line"/>
      <point x="1035.65" y="92.4" type="line"/>
      <point x="1035.65" y="0.0" type="line"/>
      <point x="702.04" y="0.0" type="line"/>
      <point x="657.18" y="55.690000000000005" type="line"/>
      <point x="644.6500000000001" y="126.65" type="line"/>
      <point x="606.83" y="65.44"/>
      <point x="453.1" y="-14.24"/>
      <point x="350.59000000000003" y="-14.24" type="qcurve" smooth="yes"/>
      <point x="216.06" y="-14.24"/>
      <point x="67.57" y="131.70000000000002"/>
    </contour>
  </outline>
</glyph>
<glyph name="b" format="2">
  <advance width="1138"/>
  <unicode hex="0062"/>
  <outline>
    <contour>
      <point x="140.04" y="0.0" type="line"/>
      <point x="146.75" y="484.5" type="line"/>
      <point x="142.32" y="1361.9199999999998" type="line"/>
      <point x="2.2099999999999995" y="1393.6" type="line"/>
      <point x="2.2099999999999995" y="1500.0" type="line"/>
      <point x="336.74" y="1534.0" type="line"/>
      <point x="368.47" y="1534.0" type="line"/>
      <point x="405.46000000000004" y="1497.35" type="line"/>
      <point x="403.35" y="894.45" type="line"/>
      <point x="444.0" y="957.38"/>
      <point x="591.17" y="1034.4399999999998"/>
      <point x="694.48" y="1034.4399999999998" type="qcurve" smooth="yes"/>
      <point x="865.96" y="1034.4399999999998"/>
      <point x="1082.1200000000001" y="778.0500000000001"/>
      <point x="1082.1200000000001" y="538.99" type="qcurve" smooth="yes"/>
      <point x="1082.1200000000001" y="285.91999999999996"/>
      <point x="855.5" y="-10.32"/>
      <point x="661.05" y="-12.0" type="qcurve" smooth="yes"/>
      <point x="566.83" y="-12.84"/>
      <point x="424.83" y="44.22"/>
      <point x="386.70000000000005" y="89.15" type="qcurve"/>
      <point x="316.88" y="0.0" type="line"/>
    </contour>
    <contour>
      <point x="397.51000000000005" y="481.02" type="line"/>
      <point x="403.24" y="242.24" type="line"/>
      <point x="427.11" y="185.61"/>
      <point x="528.46" y="114.25"/>
      <point x="597.9100000000001" y="114.25" type="qcurve" smooth="yes"/>
      <point x="696.33" y="114.25"/>
      <point x="801.0799999999999" y="316.22"/>
      <point x="801.0799999999999" y="507.48" type="qcurve" smooth="yes"/>
      <point x="801.0799999999999" y="696.4"/>
      <point x="697.58" y="876.95"/>
      <point x="597.98" y="876.95" type="qcurve" smooth="yes"/>
      <point x="526.84" y="876.95"/>
      <point x="430.59999999999997" y="804.8499999999999"/>
      <point x="403.97" y="750.6600000000001" type="qcurve"/>
    </contour>
  </outline>
</glyph>
<glyph name="c" format="2">
  <advance width="952"/>
  <unicode hex="0063"/>
  <outline>
    <contour>
      <point x="54.4" y="483.78999999999996" type="qcurve" smooth="yes"/>
      <point x="54.4" y="726.78"/>
      <point x="311.25" y="1037.79"/>
      <point x="513.62" y="1037.79" type="qcurve" smooth="yes"/>
      <point x="604.6500000000001" y="1037.79"/>
      <point x="710.63" y="999.4699999999999"/>
      <point x="742.06" y="970.88" type="qcurve"/>
      <point x="761.1700000000001" y="1023.09" type="line"/>
      <point x="864.6600000000001" y="1023.09" type="line"/>
      <point x="866.7600000000001" y="656.15" type="line"/>
      <point x="758.68" y="656.15" type="line"/>
      <point x="744.4200000000001" y="726.9399999999999" type="line" smooth="yes"/>
      <point x="728.45" y="806.56"/>
      <point x="641.01" y="908.79"/>
      <point x="556.82" y="908.79" type="qcurve" smooth="yes"/>
      <point x="458.04999999999995" y="908.79"/>
      <point x="334.67" y="712.85"/>
      <point x="334.67" y="506.46000000000004" type="qcurve" smooth="yes"/>
      <point x="334.67" y="317.79"/>
      <point x="478.92999999999995" y="126.51"/>
      <point x="604.4000000000001" y="126.51" type="qcurve" smooth="yes"/>
      <point x="687.53" y="126.51"/>
      <point x="809.41" y="189.76"/>
      <point x="855.21" y="240.76" type="qcurve"/>
      <point x="917.77" y="166.43" type="line"/>
      <point x="869.72" y="91.21"/>
      <point x="679.3000000000001" y="-21.45"/>
      <point x="531.83" y="-21.45" type="qcurve" smooth="yes"/>
      <point x="328.71999999999997" y="-21.45"/>
      <point x="54.4" y="255.69"/>
    </contour>
  </outline>
</glyph>
<glyph name="d" format="2">
  <advance width="1168"/>
  <unicode hex="0064"/>
  <outline>
    <contour>
      <point x="57.25" y="492.74" type="qcurve" smooth="yes"/>
      <point x="57.25" y="745.4200000000001"/>
      <point x="314.55" y="1033.82"/>
      <point x="511.88" y="1033.82" type="qcurve" smooth="yes"/>
      <point x="582.34" y="1033.82"/>
      <point x="702.24" y="996.58"/>
      <point x="741.5600000000001" y="964.14" type="qcurve"/>
      <point x="737.1" y="1361.9199999999998" type="line"/>
      <point x="597.61" y="1393.6" type="line"/>
      <point x="597.61" y="1500.0" type="line"/>
      <point x="931.3" y="1534.0" type="line"/>
      <point x="963.03" y="1534.0" type="line"/>
      <point x="1000.02" y="1497.35" type="line"/>
      <point x="997.4399999999999" y="528.39" type="line"/>
      <point x="1004.76" y="127.4" type="line"/>
      <point x="1135.9" y="92.4" type="line"/>
      <point x="1135.9" y="0.0" type="line"/>
      <point x="807.79" y="0.0" type="line"/>
      <point x="760.15" y="55.38" type="line"/>
      <point x="746.49" y="115.25000000000001" type="line"/>
      <point x="706.31" y="66.09"/>
      <point x="567.4399999999999" y="-9.0"/>
      <point x="462.65" y="-9.0" type="qcurve" smooth="yes"/>
      <point x="280.12" y="-9.0"/>
      <point x="57.25" y="257.89"/>
    </contour>
    <contour>
      <point x="339.02" y="512.61" type="qcurve" smooth="yes"/>
      <point x="339.02" y="321.24"/>
      <point x="445.34000000000003" y="138.39"/>
      <point x="551.3000000000001" y="138.39" type="qcurve" smooth="yes"/>
      <point x="617.55" y="138.39"/>
      <point x="713.27" y="200.63000000000002"/>
      <point x="742.8299999999999" y="245.24" type="qcurve"/>
      <point x="744.76" y="518.42" type="line"/>
      <point x="744.03" y="805.26" type="line"/>
      <point x="722.74" y="849.95"/>
      <point x="629.29" y="905.29"/>
      <point x="567.8299999999999" y="905.29" type="qcurve" smooth="yes"/>
      <point x="460.03" y="905.29"/>
      <point x="339.02" y="700.32"/>
    </contour>
  </outline>
</glyph>
<glyph name="e" format="2">
  <advance width="993"/>
  <unicode hex="0065"/>
  <outline>
    <contour>
      <point x="54.13" y="504.96" type="qcurve" smooth="yes"/>
      <point x="54.13" y="740.15"/>
      <point x="311.99" y="1037.79"/>
      <point x="525.7" y="1037.79" type="qcurve" smooth="yes"/>
      <point x="720.4100000000001" y="1037.79"/>
      <point x="934.98" y="804.78"/>
      <point x="947.95" y="596.06" type="qcurve"/>
      <point x="947.95" y="523.35" type="line"/>
      <point x="277.26000000000005" y="523.35" type="line"/>
      <point x="277.26000000000005" y="630.51" type="line"/>
      <point x="713.95" y="630.51" type="line"/>
      <point x="705.22" y="773.85"/>
      <point x="618.5400000000001" y="911.39"/>
      <point x="532.64" y="911.39" type="qcurve" smooth="yes"/>
      <point x="431.23" y="911.39"/>
      <point x="327.65" y="724.49"/>
      <point x="328.65" y="531.16" type="qcurve" smooth="yes"/>
      <point x="329.22999999999996" y="327.37"/>
      <point x="467.65" y="126.8"/>
      <point x="605.11" y="126.8" type="qcurve" smooth="yes"/>
      <point x="696.5400000000001" y="126.8"/>
      <point x="825.92" y="181.92999999999998"/>
      <point x="867.01" y="222.34" type="qcurve"/>
      <point x="925.45" y="157.73999999999998" type="line"/>
      <point x="881.32" y="85.49000000000001"/>
      <point x="691.57" y="-21.45"/>
      <point x="552.26" y="-21.45" type="qcurve" smooth="yes"/>
      <point x="319.66" y="-21.45"/>
      <point x="54.13" y="250.24"/>
    </contour>
  </outline>
</glyph>
<glyph name="f" format="2">
  <advance width="660"/>
  <unicode hex="0066"/>
  <outline>
    <contour>
      <point x="47.49" y="0.0" type="line"/>
      <point x="47.49" y="92.4" type="line"/>
      <point x="186.43" y="127.4" type="line"/>
      <point x="189.67" y="534.75" type="line"/>
      <point x="187.6" y="863.66" type="line"/>
      <point x="49.5" y="873.62" type="line"/>
      <point x="49.5" y="979.02" type="line"/>
      <point x="189.29" y="999.5" type="line"/>
      <point x="190.59" y="1257.29" type="line" smooth="yes"/>
      <point x="190.66" y="1380.8600000000001"/>
      <point x="324.72" y="1527.47"/>
      <point x="457.2" y="1527.47" type="qcurve" smooth="yes"/>
      <point x="511.92" y="1527.47"/>
      <point x="601.8100000000001" y="1512.9699999999998"/>
      <point x="635.46" y="1500.61" type="qcurve" smooth="yes"/>
      <point x="654.75" y="1493.37" type="line"/>
      <point x="640.77" y="1376.25" type="line"/>
      <point x="626.4599999999999" y="1379.72" type="line" smooth="yes"/>
      <point x="614.37" y="1383.23"/>
      <point x="583.5899999999999" y="1388.44"/>
      <point x="563.04" y="1388.44" type="qcurve" smooth="yes"/>
      <point x="505.40999999999997" y="1388.44"/>
      <point x="448.38" y="1306.99"/>
      <point x="448.65000000000003" y="1231.5" type="qcurve" smooth="yes"/>
      <point x="448.88" y="997.09" type="line"/>
      <point x="636.7199999999999" y="997.09" type="line"/>
      <point x="636.7199999999999" y="873.38" type="line"/>
      <point x="448.57000000000005" y="873.38" type="line"/>
      <point x="449.64000000000004" y="534.75" type="line"/>
      <point x="455.71000000000004" y="127.4" type="line"/>
      <point x="612.8299999999999" y="92.4" type="line"/>
      <point x="612.8299999999999" y="0.0" type="line"/>
    </contour>
  </outline>
</glyph>
<glyph name="g" format="2">
  <advance width="990"/>
  <unicode hex="0067"/>
  <outline>
    <contour>
      <point x="-1.2699999999999996" y="-253.51" type="qcurve" smooth="yes"/>
      <point x="-1.2699999999999996" y="-166.02999999999997"/>
      <point x="121.03999999999999" y="-48.68"/>
      <point x="225.11" y="-19.21" type="qcurve"/>
      <point x="294.09" y="-57.75999999999999" type="line"/>
      <point x="251.82999999999998" y="-84.9"/>
      <point x="198.70000000000002" y="-173.08999999999997"/>
      <point x="198.70000000000002" y="-232.08999999999997" type="qcurve" smooth="yes"/>
      <point x="198.70000000000002" y="-313.3"/>
      <point x="338.95" y="-399.98"/>
      <point x="496.14" y="-399.98" type="qcurve" smooth="yes"/>
      <point x="639.01" y="-399.98"/>
      <point x="788.1600000000001" y="-313.74"/>
      <point x="788.1600000000001" y="-237.10000000000002" type="qcurve" smooth="yes"/>
      <point x="788.1600000000001" y="-169.06"/>
      <point x="676.85" y="-118.88"/>
      <point x="505.40000000000003" y="-116.57" type="qcurve" smooth="yes"/>
      <point x="281.68" y="-113.33"/>
      <point x="62.45" y="5.300000000000001"/>
      <point x="62.45" y="126.89" type="qcurve" smooth="yes"/>
      <point x="62.45" y="207.07"/>
      <point x="173.98000000000002" y="322.21"/>
      <point x="242.93" y="358.33" type="qcurve"/>
      <point x="315.73" y="294.43" type="line"/>
      <point x="267.87" y="267.14"/>
      <point x="214.08999999999997" y="214.82"/>
      <point x="214.08999999999997" y="173.13" type="qcurve" smooth="yes"/>
      <point x="214.08999999999997" y="123.6"/>
      <point x="313.79" y="78.01"/>
      <point x="514.63" y="77.08" type="qcurve" smooth="yes"/>
      <point x="800.0999999999999" y="75.53"/>
      <point x="1011.0799999999999" y="-45.49"/>
      <point x="1011.0799999999999" y="-173.54999999999998" type="qcurve" smooth="yes"/>
      <point x="1011.0799999999999" y="-320.44"/>
      <point x="755.4499999999999" y="-511.18"/>
      <point x="475.74999999999994" y="-511.18" type="qcurve" smooth="yes"/>
      <point x="221.61" y="-511.18"/>
      <point x="-1.2699999999999996" y="-366.58"/>
    </contour>
    <contour>
      <point x="68.68" y="639.25" type="qcurve" smooth="yes"/>
      <point x="68.68" y="815.15"/>
      <point x="285.76" y="1036.24"/>
      <point x="474.17999999999995" y="1036.24" type="qcurve" smooth="yes"/>
      <point x="662.9799999999999" y="1036.24"/>
      <point x="882.46" y="828.98"/>
      <point x="882.77" y="644.25" type="qcurve" smooth="yes"/>
      <point x="883.0799999999999" y="473.7"/>
      <point x="666.49" y="232.39"/>
      <point x="478.96" y="232.39" type="qcurve" smooth="yes"/>
      <point x="290.15999999999997" y="232.39"/>
      <point x="68.68" y="457.49"/>
    </contour>
    <contour>
      <point x="307.6" y="647.7" type="qcurve" smooth="yes"/>
      <point x="307.6" y="496.87"/>
      <point x="393.36" y="343.38"/>
      <point x="475.73" y="343.38" type="qcurve" smooth="yes"/>
      <point x="559.4" y="343.38"/>
      <point x="644.13" y="486.34999999999997"/>
      <point x="644.13" y="638.25" type="qcurve" smooth="yes"/>
      <point x="644.13" y="771.22"/>
      <point x="558.75" y="913.25"/>
      <point x="477.0" y="913.25" type="qcurve" smooth="yes"/>
      <point x="393.90999999999997" y="913.25"/>
      <point x="307.6" y="785.0500000000001"/>
    </contour>
    <contour>
      <point x="552.23" y="925.31" type="line"/>
      <point x="538.91" y="1013.33" type="line"/>
      <point x="986.84" y="1015.81" type="line"/>
      <point x="986.84" y="868.1" type="line"/>
    </contour>
  </outline>
</glyph>
<glyph name="j" format="2">
  <advance width="582"/>
  <unicode hex="006A"/>
  <outline>
    <contour>
      <point x="-22.92" y="-486.14" type="qcurve"/>
      <point x="-22.92" y="-342.64" type="line"/>
      <point x="87.28" y="-340.48"/>
      <point x="177.61" y="-247.44"/>
      <point x="177.61" y="-131.64" type="qcurve" smooth="yes"/>
      <point x="175.92000000000002" y="534.75" type="line"/>
      <point x="172.84" y="846.65" type="line"/>
      <point x="36.660000000000004" y="876.65" type="line"/>
      <point x="36.660000000000004" y="982.74" type="line"/>
      <point x="356.81" y="1016.12" type="line"/>
      <point x="413.53" y="1016.12" type="line"/>
      <point x="442.73" y="976.12" type="line"/>
      <point x="436.31" y="534.75" type="line"/>
      <point x="438.62" y="-122.94" type="line" smooth="yes"/>
      <point x="439.62" y="-301.94"/>
      <point x="234.30999999999997" y="-498.69"/>
    </contour>
    <contour>
      <point x="115.00000000000001" y="1329.48" type="qcurve" smooth="yes"/>
      <point x="115.00000000000001" y="1393.71"/>
      <point x="202.79" y="1467.17"/>
      <point x="284.83" y="1467.17" type="qcurve" smooth="yes"/>
      <point x="362.25" y="1467.17"/>
      <point x="456.21000000000004" y="1391.5700000000002"/>
      <point x="455.9" y="1329.48" type="qcurve" smooth="yes"/>
      <point x="455.9" y="1267.1100000000001"/>
      <point x="368.11" y="1195.09"/>
      <point x="285.45" y="1195.09" type="qcurve" smooth="yes"/>
      <point x="208.34" y="1195.09"/>
      <point x="115.00000000000001" y="1270.69"/>
    </contour>
  </outline>
</glyph>
<glyph name="l" format="2">
  <advance width="624"/>
  <unicode hex="006C"/>
  <outline>
    <contour>
      <point x="54.81" y="0.0" type="line"/>
      <point x="54.81" y="92.4" type="line"/>
      <point x="187.51000000000002" y="127.4" type="line"/>
      <point x="189.93" y="527.0" type="line"/>
      <point x="187.51000000000002" y="1361.3" type="line"/>
      <point x="39.79" y="1392.98" type="line"/>
      <point x="39.79" y="1500.0" type="line"/>
      <point x="382.37" y="1534.0" type="line"/>
      <point x="414.37" y="1534.0" type="line"/>
      <point x="451.36" y="1497.35" type="line"/>
      <point x="449.36" y="527.0" type="line"/>
      <point x="451.36" y="127.4" type="line"/>
      <point x="581.43" y="92.4" type="line"/>
      <point x="581.43" y="0.0" type="line"/>
    </contour>
  </outline>
</glyph>
<glyph name="n" format="2">
  <advance width="1213"/>
  <unicode hex="006E"/>
  <outline>
    <contour>
      <point x="50.07" y="0.0" type="line"/>
      <point x="50.07" y="92.4" type="line"/>
      <point x="177.91" y="127.4" type="line"/>
      <point x="179.91" y="537.85" type="line"/>
      <point x="177.91" y="846.65" type="line"/>
      <point x="50.07" y="876.65" type="line"/>
      <point x="50.07" y="982.74" type="line"/>
      <point x="377.97" y="1019.22" type="line"/>
      <point x="412.97" y="992.22" type="line"/>
      <point x="433.77000000000004" y="869.89" type="line"/>
      <point x="483.0400000000001" y="938.85"/>
      <point x="655.07" y="1034.71"/>
      <point x="767.55" y="1034.71" type="qcurve" smooth="yes"/>
      <point x="907.2" y="1034.71"/>
      <point x="1044.02" y="886.74"/>
      <point x="1044.02" y="760.52" type="qcurve" smooth="yes"/>
      <point x="1044.02" y="697.62"/>
      <point x="1041.41" y="562.14"/>
      <point x="1041.41" y="552.24" type="qcurve" smooth="yes"/>
      <point x="1045.88" y="127.09" type="line"/>
      <point x="1175.6000000000001" y="92.4" type="line"/>
      <point x="1175.6000000000001" y="0.0" type="line"/>
      <point x="666.98" y="0.0" type="line"/>
      <point x="666.98" y="92.4" type="line"/>
      <point x="780.6800000000001" y="127.4" type="line"/>
      <point x="782.4599999999999" y="536.4300000000001" type="line"/>
      <point x="782.4599999999999" y="699.46" type="line" smooth="yes"/>
      <point x="782.4599999999999" y="777.77"/>
      <point x="705.4" y="855.37"/>
      <point x="642.63" y="855.37" type="qcurve" smooth="yes"/>
      <point x="581.1" y="855.37"/>
      <point x="471.14000000000004" y="787.01"/>
      <point x="439.52" y="730.72" type="qcurve"/>
      <point x="438.32" y="536.4300000000001" type="line"/>
      <point x="439.78999999999996" y="127.4" type="line"/>
      <point x="545.4" y="92.4" type="line"/>
      <point x="545.4" y="0.0" type="line"/>
    </contour>
  </outline>
</glyph>
<glyph name="p" format="2">
  <advance width="1160"/>
  <unicode hex="0070"/>
  <outline>
    <contour>
      <point x="35.09" y="-480.0" type="line"/>
      <point x="35.09" y="-387.91" type="line"/>
      <point x="162.13" y="-352.91" type="line"/>
      <point x="164.13" y="427.0" type="line"/>
      <point x="162.13" y="846.65" type="line"/>
      <point x="33.980000000000004" y="876.65" type="line"/>
      <point x="33.980000000000004" y="982.74" type="line"/>
      <point x="367.66" y="1016.74" type="line"/>
      <point x="402.66" y="989.74" type="line"/>
      <point x="422.85999999999996" y="890.96" type="line"/>
      <point x="462.35999999999996" y="955.06"/>
      <point x="610.28" y="1034.4399999999998"/>
      <point x="715.27" y="1034.4399999999998" type="qcurve" smooth="yes"/>
      <point x="886.75" y="1034.4399999999998"/>
      <point x="1103.18" y="778.0500000000001"/>
      <point x="1103.18" y="538.99" type="qcurve" smooth="yes"/>
      <point x="1103.18" y="285.91999999999996"/>
      <point x="876.2900000000001" y="-12.0"/>
      <point x="685.62" y="-12.0" type="qcurve" smooth="yes"/>
      <point x="591.94" y="-12.0"/>
      <point x="460.82" y="40.86"/>
      <point x="422.96" y="79.34" type="qcurve"/>
      <point x="424.96" y="-352.91" type="line"/>
      <point x="577.6999999999999" y="-387.91" type="line"/>
      <point x="577.6999999999999" y="-480.0" type="line"/>
    </contour>
    <contour>
      <point x="422.22999999999996" y="245.15" type="line"/>
      <point x="446.1" y="188.25"/>
      <point x="548.98" y="114.25"/>
      <point x="618.7" y="114.25" type="qcurve" smooth="yes"/>
      <point x="717.1199999999999" y="114.25"/>
      <point x="822.14" y="316.22"/>
      <point x="822.14" y="507.48" type="qcurve" smooth="yes"/>
      <point x="822.14" y="696.4"/>
      <point x="718.37" y="876.95"/>
      <point x="618.77" y="876.95" type="qcurve" smooth="yes"/>
      <point x="548.17" y="876.95"/>
      <point x="450.13" y="804.58"/>
      <point x="423.22999999999996" y="750.39" type="qcurve"/>
      <point x="419.92" y="432.45" type="line"/>
    </contour>
  </outline>
</glyph>
<glyph name="q" format="2">
  <advance width="1145"/>
  <unicode hex="0071"/>
  <outline>
    <contour>
      <point x="57.25" y="488.54" type="qcurve" smooth="yes"/>
      <point x="57.25" y="746.26"/>
      <point x="314.55" y="1033.4"/>
      <point x="515.24" y="1033.4" type="qcurve" smooth="yes"/>
      <point x="589.8699999999999" y="1033.4"/>
      <point x="712.86" y="986.26"/>
      <point x="756.4000000000001" y="941.58" type="qcurve"/>
      <point x="814.82" y="1022.2700000000001" type="line"/>
      <point x="1122.1799999999998" y="994.83" type="line"/>
      <point x="1122.1799999999998" y="887.75" type="line"/>
      <point x="1000.1399999999999" y="853.27" type="line"/>
      <point x="994.2900000000001" y="435.75" type="line"/>
      <point x="995.56" y="-352.91" type="line"/>
      <point x="1125.87" y="-387.91" type="line"/>
      <point x="1125.87" y="-480.0" type="line"/>
      <point x="588.18" y="-480.0" type="line"/>
      <point x="588.18" y="-387.91" type="line"/>
      <point x="732.0400000000001" y="-353.53" type="line"/>
      <point x="737.51" y="108.97" type="line"/>
      <point x="696.93" y="57.16"/>
      <point x="555.3499999999999" y="-9.0"/>
      <point x="457.76" y="-9.0" type="qcurve" smooth="yes"/>
      <point x="280.12" y="-9.0"/>
      <point x="57.25" y="253.69"/>
    </contour>
    <contour>
      <point x="339.02" y="512.61" type="qcurve" smooth="yes"/>
      <point x="339.02" y="321.24"/>
      <point x="447.44000000000005" y="138.39"/>
      <point x="549.6199999999999" y="138.39" type="qcurve" smooth="yes"/>
      <point x="614.16" y="138.39"/>
      <point x="710.9" y="196.01"/>
      <point x="739.4399999999999" y="248.32999999999998" type="qcurve"/>
      <point x="740.82" y="808.62" type="line"/>
      <point x="715.8399999999999" y="860.3599999999999"/>
      <point x="628.9300000000001" y="905.29"/>
      <point x="569.1800000000001" y="905.29" type="qcurve" smooth="yes"/>
      <point x="460.03" y="905.29"/>
      <point x="339.02" y="700.32"/>
    </contour>
  </outline>
</glyph>
<glyph name="t" format="2">
  <advance width="693"/>
  <unicode hex="0074"/>
  <outline>
    <contour>
      <point x="24.76" y="872.62" type="line"/>
      <point x="24.76" y="964.6" type="line"/>
      <point x="153.92" y="993.22"/>
      <point x="272.67" y="1116.8300000000002"/>
      <point x="308.51" y="1214.41" type="qcurve"/>
      <point x="405.49" y="1214.41" type="line"/>
      <point x="446.55" y="1167.28" type="line"/>
      <point x="441.55" y="989.5" type="line"/>
      <point x="640.5699999999999" y="989.5" type="line"/>
      <point x="640.5699999999999" y="872.0" type="line"/>
      <point x="438.93" y="872.0" type="line"/>
      <point x="431.23" y="534.75" type="line"/>
      <point x="435.53999999999996" y="229.33" type="line" smooth="yes"/>
      <point x="436.53999999999996" y="169.6"/>
      <point x="491.37" y="126.36"/>
      <point x="563.66" y="126.36" type="qcurve" smooth="yes"/>
      <point x="642.3499999999999" y="126.36" type="line"/>
      <point x="642.3499999999999" y="29.31" type="line"/>
      <point x="334.34" y="-10.17" type="line"/>
      <point x="240.6" y="-10.17"/>
      <point x="166.79" y="78.58"/>
      <point x="167.41" y="170.44" type="qcurve" smooth="yes"/>
      <point x="170.0" y="534.75" type="line"/>
      <point x="169.58" y="858.76" type="line"/>
    </contour>
  </outline>
</glyph>
<glyph name="u" format="2">
  <advance width="1205"/>
  <unicode hex="0075"/>
  <outline>
    <contour>
      <point x="37.589999999999996" y="876.65" type="line"/>
      <point x="37.589999999999996" y="982.74" type="line"/>
      <point x="358.78999999999996" y="1016.12" type="line"/>
      <point x="402.5" y="1016.12" type="line"/>
      <point x="430.14" y="976.09" type="line"/>
      <point x="428.45" y="480.75" type="line"/>
      <point x="428.87" y="301.56" type="line" smooth="yes"/>
      <point x="428.87" y="233.11"/>
      <point x="503.31000000000006" y="157.36"/>
      <point x="566.15" y="157.36" type="qcurve" smooth="yes"/>
      <point x="623.47" y="157.05"/>
      <point x="737.99" y="214.16"/>
      <point x="770.26" y="274.78000000000003" type="qcurve"/>
      <point x="770.8399999999999" y="480.75" type="line"/>
      <point x="769.26" y="846.65" type="line"/>
      <point x="657.5" y="876.65" type="line"/>
      <point x="657.5" y="982.74" type="line"/>
      <point x="962.4899999999999" y="1016.12" type="line"/>
      <point x="1006.2" y="1016.12" type="line"/>
      <point x="1033.84" y="976.09" type="line"/>
      <point x="1031.42" y="480.75" type="line"/>
      <point x="1033.42" y="156.93" type="line"/>
      <point x="1160.02" y="126.93" type="line"/>
      <point x="1160.02" y="30.259999999999998" type="line"/>
      <point x="833.98" y="-3.74" type="line"/>
      <point x="792.16" y="29.459999999999997" type="line"/>
      <point x="771.9399999999999" y="137.51" type="line"/>
      <point x="724.0400000000001" y="66.91"/>
      <point x="551.79" y="-17.42"/>
      <point x="450.63" y="-17.42" type="qcurve" smooth="yes"/>
      <point x="303.2" y="-17.42"/>
      <point x="165.14" y="127.83"/>
      <point x="165.14" y="254.35999999999999" type="qcurve" smooth="yes"/>
      <point x="165.14" y="320.70000000000005"/>
      <point x="168.79" y="480.58"/>
      <point x="168.79" y="489.43" type="qcurve" smooth="yes"/>
      <point x="165.25" y="846.65" type="line"/>
    </contour>
  </outline>
</glyph>
<glyph name="w" format="2">
  <advance width="1519"/>
  <unicode hex="0077"/>
  <outline>
    <contour>
      <point x="-2.7" y="910.0" type="line"/>
      <point x="-2.7" y="1015.5" type="line"/>
      <point x="461.37" y="1015.5" type="line"/>
      <point x="461.37" y="910.0" type="line"/>
      <point x="367.07" y="873.62" type="line"/>
      <point x="458.21000000000004" y="546.18" type="line"/>
      <point x="549.56" y="255.97000000000003" type="line"/>
      <point x="625.29" y="497.14" type="line"/>
      <point x="721.86" y="834.63" type="line"/>
      <point x="819.9" y="739.0699999999999" type="line"/>
      <point x="724.08" y="441.35" type="line"/>
      <point x="588.4000000000001" y="-5.52" type="line"/>
      <point x="379.60999999999996" y="-5.52" type="line"/>
      <point x="225.45999999999998" y="493.74" type="line"/>
      <point x="99.67" y="875.0" type="line"/>
    </contour>
    <contour>
      <point x="575.05" y="910.0" type="line"/>
      <point x="575.05" y="1015.5" type="line"/>
      <point x="1021.18" y="1015.5" type="line"/>
      <point x="1021.18" y="910.0" type="line"/>
      <point x="921.89" y="873.62" type="line"/>
      <point x="1022.76" y="508.17" type="line"/>
      <point x="1097.22" y="259.06" type="line"/>
      <point x="1187.31" y="555.35" type="line"/>
      <point x="1277.0" y="878.45" type="line"/>
      <point x="1172.27" y="910.0" type="line"/>
      <point x="1172.27" y="1015.5" type="line"/>
      <point x="1523.86" y="1015.5" type="line"/>
      <point x="1523.86" y="910.0" type="line"/>
      <point x="1411.53" y="875.0" type="line"/>
      <point x="1295.6200000000001" y="513.49" type="line"/>
      <point x="1145.8" y="-5.52" type="line"/>
      <point x="937.0100000000001" y="-5.52" type="line"/>
      <point x="795.4100000000001" y="466.40999999999997" type="line"/>
      <point x="665.9200000000001" y="875.0" type="line"/>
    </contour>
  </outline>
</glyph>
<glyph name="y" format="2">
  <advance width="1036"/>
  <unicode hex="0079"/>
  <outline>
    <contour>
      <point x="-3.1200000000000006" y="910.0" type="line"/>
      <point x="-2.7" y="1015.5" type="line"/>
      <point x="493.64000000000004" y="1015.5" type="line"/>
      <point x="493.64000000000004" y="910.0" type="line"/>
      <point x="385.67" y="873.31" type="line"/>
      <point x="488.81" y="553.6" type="line"/>
      <point x="587.2" y="268.58" type="line"/>
      <point x="678.3" y="558.15" type="line"/>
      <point x="770.66" y="878.45" type="line"/>
      <point x="658.8000000000001" y="910.0" type="line"/>
      <point x="658.8000000000001" y="1015.5" type="line"/>
      <point x="1041.2199999999998" y="1015.5" type="line"/>
      <point x="1041.2199999999998" y="910.0" type="line"/>
      <point x="918.47" y="875.0" type="line"/>
      <point x="797.27" y="517.77" type="line"/>
      <point x="570.66" y="-175.52" type="line" smooth="yes"/>
      <point x="510.48999999999995" y="-365.91"/>
      <point x="324.39" y="-494.17"/>
      <point x="208.08" y="-494.17" type="qcurve"/>
      <point x="58.66" y="-451.81" type="line"/>
      <point x="58.66" y="-347.99" type="line"/>
      <point x="177.75" y="-350.16" type="line" smooth="yes"/>
      <point x="245.8" y="-351.4"/>
      <point x="387.47" y="-280.53000000000003"/>
      <point x="430.17999999999995" y="-164.02" type="qcurve" smooth="yes"/>
      <point x="490.30000000000007" y="0.0" type="line"/>
      <point x="423.96000000000004" y="0.0" type="line"/>
      <point x="248.04999999999998" y="482.24" type="line"/>
      <point x="103.77000000000001" y="875.0" type="line"/>
    </contour>
  </outline>
</glyph>
<glyph name="braceleft" format="2">
  <advance width="706"/>
  <unicode hex="007B"/>
  <outline>
    <contour>
      <point x="63.44" y="479.45" type="line"/>
      <point x="63.44" y="590.55" type="line"/>
      <point x="168.82000000000002" y="600.55" type="line" smooth="yes"/>
      <point x="223.58" y="606.01"/>
      <point x="282.81" y="662.17"/>
      <point x="282.81" y="723.75" type="qcurve" smooth="yes"/>
      <point x="282.81" y="835.55"/>
      <point x="160.41000000000003" y="1074.4"/>
      <point x="160.41000000000003" y="1188.2" type="qcurve" smooth="yes"/>
      <point x="160.41000000000003" y="1347.2"/>
      <point x="325.15" y="1510.0"/>
      <point x="473.71" y="1510.0" type="qcurve" smooth="yes"/>
      <point x="527.77" y="1510.0"/>
      <point x="649.11" y="1503.42"/>
      <point x="681.9499999999999" y="1500.0" type="qcurve"/>
      <point x="681.9499999999999" y="1386.0" type="line"/>
      <point x="633.36" y="1388.0"/>
      <point x="602.96" y="1388.0"/>
      <point x="556.75" y="1388.0" type="qcurve" smooth="yes"/>
      <point x="480.57000000000005" y="1388.0"/>
      <point x="406.82" y="1301.3"/>
      <point x="406.82" y="1208.1200000000001" type="qcurve" smooth="yes"/>
      <point x="406.82" y="1098.03"/>
      <point x="511.10999999999996" y="883.0"/>
      <point x="511.10999999999996" y="792.0" type="qcurve" smooth="yes"/>
      <point x="511.10999999999996" y="697.0"/>
      <point x="431.84999999999997" y="572.55"/>
      <point x="359.77" y="551.24" type="qcurve"/>
      <point x="441.68" y="520.65"/>
      <point x="511.10999999999996" y="391.44"/>
      <point x="511.10999999999996" y="319.27" type="qcurve" smooth="yes"/>
      <point x="511.10999999999996" y="225.17"/>
      <point x="383.02" y="-79.86"/>
      <point x="383.02" y="-189.64000000000001" type="qcurve" smooth="yes"/>
      <point x="383.02" y="-287.02"/>
      <point x="458.43" y="-373.38"/>
      <point x="535.23" y="-373.38" type="qcurve" smooth="yes"/>
      <point x="581.4399999999999" y="-373.38"/>
      <point x="628.67" y="-373.38"/>
      <point x="677.5699999999999" y="-371.38" type="qcurve"/>
      <point x="677.5699999999999" y="-483.38" type="line"/>
      <point x="642.74" y="-487.64"/>
      <point x="519.0600000000001" y="-495.0"/>
      <point x="460.8" y="-495.0" type="qcurve" smooth="yes"/>
      <point x="302.01" y="-495.0"/>
      <point x="136.61" y="-331.2"/>
      <point x="136.61" y="-172.2" type="qcurve" smooth="yes"/>
      <point x="136.61" y="-54.2"/>
      <point x="281.81" y="246.0"/>
      <point x="281.81" y="364.0" type="qcurve"/>
      <point x="281.81" y="479.45" type="line"/>
    </contour>
  </outline>
</glyph>
<glyph name="braceright" format="2">
  <advance width="706"/>
  <unicode hex="007D"/>
  <outline>
    <contour>
      <point x="28.22" y="-483.38" type="qcurve"/>
      <point x="28.22" y="-371.38" type="line"/>
      <point x="77.11999999999999" y="-373.38"/>
      <point x="118.95" y="-373.38"/>
      <point x="165.16" y="-373.38" type="qcurve" smooth="yes"/>
      <point x="241.96" y="-373.38"/>
      <point x="317.37" y="-287.02"/>
      <point x="317.37" y="-189.64000000000001" type="qcurve" smooth="yes"/>
      <point x="317.37" y="-79.86"/>
      <point x="194.68" y="225.17"/>
      <point x="194.68" y="319.27" type="qcurve" smooth="yes"/>
      <point x="194.68" y="391.44"/>
      <point x="262.01" y="520.65"/>
      <point x="343.92" y="551.24" type="qcurve"/>
      <point x="271.84" y="572.55"/>
      <point x="194.68" y="697.0"/>
      <point x="194.68" y="792.0" type="qcurve" smooth="yes"/>
      <point x="194.68" y="883.0"/>
      <point x="304.37" y="1098.03"/>
      <point x="304.37" y="1208.1200000000001" type="qcurve" smooth="yes"/>
      <point x="304.37" y="1301.3"/>
      <point x="232.72" y="1388.0"/>
      <point x="156.54" y="1388.0" type="qcurve" smooth="yes"/>
      <point x="110.33" y="1388.0"/>
      <point x="72.74" y="1388.0"/>
      <point x="23.84" y="1386.0" type="qcurve"/>
      <point x="23.84" y="1500.0" type="line"/>
      <point x="56.99" y="1503.42"/>
      <point x="183.42" y="1510.0"/>
      <point x="237.48" y="1510.0" type="qcurve" smooth="yes"/>
      <point x="386.04" y="1510.0"/>
      <point x="550.78" y="1347.2"/>
      <point x="550.78" y="1188.2" type="qcurve" smooth="yes"/>
      <point x="550.78" y="1074.4"/>
      <point x="423.28999999999996" y="835.55"/>
      <point x="423.28999999999996" y="723.75" type="qcurve" smooth="yes"/>
      <point x="423.28999999999996" y="662.17"/>
      <point x="482.21" y="605.17"/>
      <point x="536.97" y="600.55" type="qcurve" smooth="yes"/>
      <point x="642.66" y="590.55" type="line"/>
      <point x="642.66" y="479.45" type="line"/>
      <point x="424.28999999999996" y="479.45" type="line"/>
      <point x="424.28999999999996" y="364.0" type="line"/>
      <point x="424.28999999999996" y="246.0"/>
      <point x="563.78" y="-54.2"/>
      <point x="563.78" y="-172.2" type="qcurve" smooth="yes"/>
      <point x="563.78" y="-331.2"/>
      <point x="398.38" y="-495.0"/>
      <point x="239.59" y="-495.0" type="qcurve" smooth="yes"/>
      <point x="181.33" y="-495.0"/>
      <point x="63.050000000000004" y="-487.64"/>
    </contour>
  </outline>
</glyph>
<glyph name="asciitilde" format="2">
  <advance width="901"/>
  <unicode hex="007E"/>
  <outline>
    <contour>
      <point x="11.56" y="606.89" type="line"/>
      <point x="61.55" y="698.96"/>
      <point x="232.51" y="821.19"/>
      <point x="308.34999999999997" y="821.19" type="qcurve"/>
      <point x="627.24" y="692.08" type="line"/>
      <point x="682.1600000000001" y="692.08"/>
      <point x="767.36" y="774.81"/>
      <point x="796.16" y="826.64" type="qcurve"/>
      <point x="886.6" y="755.42" type="line"/>
      <point x="844.45" y="651.73"/>
      <point x="699.91" y="503.91"/>
      <point x="592.46" y="503.91" type="qcurve"/>
      <point x="290.84000000000003" y="626.88" type="line"/>
      <point x="236.16000000000003" y="626.88"/>
      <point x="128.66" y="570.4"/>
      <point x="79.11" y="520.88" type="qcurve"/>
    </contour>
  </outline>
</glyph>
<glyph name="brokenbar" format="2">
  <advance width="601"/>
  <unicode hex="00A6"/>
  <outline>
    <contour>
      <point x="192.69" y="698.46" type="line"/>
      <point x="194.39000000000001" y="924.1" type="line"/>
      <point x="184.29" y="1232.1" type="line"/>
      <point x="176.49" y="1502.24" type="line"/>
      <point x="424.59999999999997" y="1569.76" type="line"/>
      <point x="415.96" y="1232.1" type="line"/>
      <point x="403.44" y="924.1" type="line"/>
      <point x="403.45" y="749.7" type="line"/>
    </contour>
    <contour>
      <point x="177.32999999999998" y="-517.76" type="line"/>
      <point x="185.13" y="-94.6" type="line"/>
      <point x="196.81" y="213.4" type="line"/>
      <point x="195.54000000000002" y="387.6" type="line"/>
      <point x="406.72" y="446.36" type="line"/>
      <point x="405.02" y="213.4" type="line"/>
      <point x="415.96" y="-94.6" type="line"/>
      <point x="423.76" y="-445.11" type="line"/>
    </contour>
  </outline>
</glyph>
<glyph name="copyright" format="2">
  <advance width="1932"/>
  <unicode hex="00A9"/>
  <outline>
    <contour>
      <point x="514.97" y="656.42" type="qcurve" smooth="yes"/>
      <point x="514.97" y="897.9"/>
      <point x="770.44" y="1198.77"/>
      <point x="992.3900000000001" y="1198.77" type="qcurve" smooth="yes"/>
      <point x="1058.32" y="1198.77"/>
      <point x="1168.66" y="1166.7"/>
      <point x="1196.98" y="1143.63" type="qcurve"/>
      <point x="1221.92" y="1194.22" type="line"/>
      <point x="1315.6200000000001" y="1166.77" type="line"/>
      <point x="1328.19" y="846.66" type="line"/>
      <point x="1225.02" y="828.73" type="line"/>
      <point x="1190.1200000000001" y="979.32" type="line"/>
      <point x="1160.67" y="1022.93"/>
      <point x="1067.0700000000002" y="1077.23"/>
      <point x="1010.1300000000001" y="1077.23" type="qcurve" smooth="yes"/>
      <point x="887.9" y="1077.23"/>
      <point x="743.32" y="885.6"/>
      <point x="743.32" y="690.98" type="qcurve" smooth="yes"/>
      <point x="743.32" y="495.18"/>
      <point x="914.43" y="300.89"/>
      <point x="1036.1" y="300.89" type="qcurve" smooth="yes"/>
      <point x="1133.28" y="300.89"/>
      <point x="1292.85" y="389.63"/>
      <point x="1335.43" y="444.77" type="qcurve"/>
      <point x="1392.5800000000002" y="365.43" type="line"/>
      <point x="1338.0800000000002" y="277.08"/>
      <point x="1121.71" y="156.63"/>
      <point x="1000.76" y="156.63" type="qcurve" smooth="yes"/>
      <point x="785.39" y="156.63"/>
      <point x="514.97" y="423.7"/>
    </contour>
    <contour>
      <point x="101.0" y="685.0" type="qcurve" smooth="yes"/>
      <point x="101.0" y="1061.0"/>
      <point x="589.24" y="1570.0"/>
      <point x="967.62" y="1570.0" type="qcurve" smooth="yes"/>
      <point x="1344.42" y="1570.0"/>
      <point x="1830.66" y="1087.0"/>
      <point x="1830.66" y="706.0" type="qcurve" smooth="yes"/>
      <point x="1830.66" y="288.0"/>
      <point x="1351.0" y="-242.0"/>
      <point x="978.78" y="-242.0" type="qcurve" smooth="yes"/>
      <point x="595.82" y="-242.0"/>
      <point x="101.0" y="276.0"/>
    </contour>
    <contour>
      <point x="269.45" y="680.69" type="qcurve" smooth="yes"/>
      <point x="269.45" y="341.2"/>
      <point x="689.5200000000001" y="-103.43"/>
      <point x="993.3200000000002" y="-103.43" type="qcurve" smooth="yes"/>
      <point x="1288.27" y="-103.43"/>
      <point x="1662.21" y="365.58"/>
      <point x="1662.21" y="697.38" type="qcurve" smooth="yes"/>
      <point x="1662.21" y="1000.49"/>
      <point x="1266.84" y="1431.43"/>
      <point x="949.1899999999999" y="1431.43" type="qcurve" smooth="yes"/>
      <point x="647.97" y="1431.43"/>
      <point x="269.45" y="991.8"/>
    </contour>
  </outline>
</glyph>
<glyph name="macron" format="2">
  <advance width="1024"/>
  <unicode hex="00AF"/>
  <outline>
    <contour>
      <point x="227.74" y="1198.6" type="line"/>
      <point x="227.74" y="1349.52" type="line"/>
      <point x="804.9" y="1349.52" type="line"/>
      <point x="804.9" y="1198.6" type="line"/>
    </contour>
  </outline>
</glyph>
<glyph name="degree" format="2">
  <advance width="822"/>
  <unicode hex="00B0"/>
  <outline>
    <contour>
      <point x="113.92" y="1258.54" type="qcurve" smooth="yes"/>
      <point x="113.92" y="1380.24"/>
      <point x="280.58" y="1560.0"/>
      <point x="410.76" y="1560.0" type="qcurve" smooth="yes"/>
      <point x="541.36" y="1560.0"/>
      <point x="708.02" y="1380.24"/>
      <point x="708.02" y="1258.54" type="qcurve" smooth="yes"/>
      <point x="708.02" y="1139.42"/>
      <point x="541.36" y="958.66"/>
      <point x="410.76" y="958.66" type="qcurve" smooth="yes"/>
      <point x="280.58" y="958.66"/>
      <point x="113.92" y="1139.42"/>
    </contour>
    <contour>
      <point x="245.43999999999997" y="1261.06" type="qcurve" smooth="yes"/>
      <point x="245.43999999999997" y="1193.91"/>
      <point x="336.18" y="1089.8700000000001"/>
      <point x="410.76" y="1089.8700000000001" type="qcurve" smooth="yes"/>
      <point x="486.45000000000005" y="1089.8700000000001"/>
      <point x="576.5" y="1193.91"/>
      <point x="576.5" y="1261.06" type="qcurve" smooth="yes"/>
      <point x="576.5" y="1330.9499999999998"/>
      <point x="486.45000000000005" y="1427.53"/>
      <point x="410.76" y="1427.53" type="qcurve" smooth="yes"/>
      <point x="336.18" y="1427.53"/>
      <point x="245.43999999999997" y="1330.9499999999998"/>
    </contour>
  </outline>
</glyph>
<glyph name="threesuperior" format="2">
  <advance width="722"/>
  <unicode hex="00B3"/>
  <outline>
    <contour>
      <point x="36.919999999999995" y="739.0" type="qcurve"/>
      <point x="85.82000000000001" y="844.4" type="line"/>
      <point x="136.1" y="802.95"/>
      <point x="234.64000000000001" y="767.4"/>
      <point x="301.04" y="767.4" type="qcurve" smooth="yes"/>
      <point x="377.87" y="767.4"/>
      <point x="462.31" y="837.95"/>
      <point x="462.31" y="910.55" type="qcurve" smooth="yes"/>
      <point x="462.31" y="985.35"/>
      <point x="351.34" y="1056.4499999999998"/>
      <point x="232.0" y="1056.4499999999998" type="qcurve" smooth="yes"/>
      <point x="202.67999999999998" y="1056.4499999999998" type="line"/>
      <point x="185.0" y="1155.3100000000002" type="line"/>
      <point x="245.48000000000002" y="1158.3100000000002" type="line" smooth="yes"/>
      <point x="351.27" y="1163.69"/>
      <point x="441.8" y="1238.45"/>
      <point x="441.8" y="1302.56" type="qcurve" smooth="yes"/>
      <point x="441.8" y="1354.08"/>
      <point x="380.5" y="1403.6"/>
      <point x="318.36" y="1403.6" type="qcurve" smooth="yes"/>
      <point x="254.92000000000002" y="1403.6"/>
      <point x="163.92" y="1371.39"/>
      <point x="119.82" y="1341.9699999999998" type="qcurve"/>
      <point x="79.24000000000001" y="1422.0" type="line"/>
      <point x="131.72" y="1468.0"/>
      <point x="271.73" y="1520.0"/>
      <point x="369.36" y="1520.0" type="qcurve" smooth="yes"/>
      <point x="495.00000000000006" y="1520.0"/>
      <point x="633.6999999999999" y="1418.0"/>
      <point x="634.3199999999999" y="1337.0" type="qcurve" smooth="yes"/>
      <point x="634.9399999999999" y="1250.14"/>
      <point x="527.14" y="1142.0"/>
      <point x="418.17999999999995" y="1118.0" type="qcurve"/>
      <point x="418.17999999999995" y="1114.0" type="line"/>
      <point x="531.3" y="1111.0"/>
      <point x="658.06" y="1001.0"/>
      <point x="658.06" y="905.0" type="qcurve" smooth="yes"/>
      <point x="658.06" y="783.0"/>
      <point x="472.26" y="649.0"/>
      <point x="321.12" y="649.0" type="qcurve" smooth="yes"/>
      <point x="238.90000000000003" y="649.0"/>
      <point x="86.82000000000001" y="697.0"/>
    </contour>
  </outline>
</glyph>
<glyph name="paragraph" format="2">
  <advance width="1144"/>
  <unicode hex="00B6"/>
  <outline>
    <contour>
      <point x="1036.72" y="107.61999999999999" type="line"/>
      <point x="1036.72" y="0.0" type="line"/>
      <point x="253.82000000000002" y="0.0" type="line"/>
      <point x="253.82000000000002" y="107.92999999999999" type="line"/>
      <point x="743.12" y="137.32" type="line"/>
      <point x="745.12" y="768.4" type="line"/>
      <point x="706.12" y="762.4"/>
      <point x="542.62" y="754.4"/>
      <point x="483.62" y="754.4" type="qcurve" smooth="yes"/>
      <point x="290.62" y="754.4"/>
      <point x="56.620000000000005" y="967.3"/>
      <point x="56.620000000000005" y="1145.7" type="qcurve" smooth="yes"/>
      <point x="56.620000000000005" y="1316.7"/>
      <point x="278.62" y="1500.0"/>
      <point x="470.62" y="1500.0" type="qcurve" smooth="yes"/>
      <point x="1081.32" y="1500.0" type="line"/>
      <point x="1081.32" y="1379.22" type="line"/>
      <point x="888.72" y="1345.22" type="line"/>
      <point x="886.72" y="754.0" type="line"/>
      <point x="888.72" y="139.51" type="line"/>
    </contour>
    <contour>
      <point x="590.12" y="60.3" type="line"/>
      <point x="441.82" y="55.3" type="line"/>
      <point x="443.82" y="768.4" type="line"/>
      <point x="588.12" y="775.4" type="line"/>
    </contour>
  </outline>
</glyph>
<glyph name="periodcentered" format="2">
  <advance width="560"/>
  <unicode hex="00B7"/>
  <outline>
    <contour>
      <point x="113.53000000000002" y="673.01" type="qcurve" smooth="yes"/>
      <point x="113.53000000000002" y="738.7"/>
      <point x="207.16" y="835.67"/>
      <point x="279.59999999999997" y="835.67" type="qcurve" smooth="yes"/>
      <point x="352.46" y="835.67"/>
      <point x="446.4" y="738.7"/>
      <point x="446.4" y="673.01" type="qcurve" smooth="yes"/>
      <point x="446.4" y="608.52"/>
      <point x="352.46" y="511.24"/>
      <point x="279.59999999999997" y="511.24" type="qcurve" smooth="yes"/>
      <point x="207.16" y="511.24"/>
      <point x="113.53000000000002" y="608.52"/>
    </contour>
  </outline>
</glyph>
<glyph name="cedilla" format="2">
  <advance width="1024"/>
  <unicode hex="00B8"/>
  <outline>
    <contour>
      <point x="565.49" y="-0.18999999999999995" type="line"/>
      <point x="498.34999999999997" y="-117.52000000000001" type="line"/>
      <point x="515.64" y="-111.63"/>
      <point x="576.79" y="-101.33"/>
      <point x="607.4799999999999" y="-101.33" type="qcurve" smooth="yes"/>
      <point x="686.9200000000001" y="-101.33"/>
      <point x="799.77" y="-186.49"/>
      <point x="799.77" y="-273.95" type="qcurve" smooth="yes"/>
      <point x="799.77" y="-367.96000000000004"/>
      <point x="649.26" y="-478.60999999999996"/>
      <point x="541.0500000000001" y="-478.60999999999996" type="qcurve" smooth="yes"/>
      <point x="450.07" y="-478.60999999999996"/>
      <point x="306.37" y="-436.0"/>
      <point x="253.08" y="-395.28" type="qcurve"/>
      <point x="302.63" y="-298.64" type="line"/>
      <point x="342.78" y="-327.92"/>
      <point x="444.8" y="-362.52"/>
      <point x="510.18000000000006" y="-362.52" type="qcurve" smooth="yes"/>
      <point x="561.84" y="-362.52"/>
      <point x="629.77" y="-317.53000000000003"/>
      <point x="629.77" y="-273.23" type="qcurve" smooth="yes"/>
      <point x="629.77" y="-234.82999999999998"/>
      <point x="573.3100000000001" y="-197.68"/>
      <point x="524.6700000000001" y="-197.68" type="qcurve" smooth="yes"/>
      <point x="492.86999999999995" y="-197.68"/>
      <point x="443.82" y="-205.26"/>
      <point x="426.73" y="-211.15" type="qcurve"/>
      <point x="366.24" y="-141.6" type="line"/>
      <point x="472.93" y="51.0" type="line"/>
    </contour>
  </outline>
</glyph>
<glyph name="Thorn" format="2">
  <advance width="1250"/>
  <unicode hex="00DE"/>
  <outline>
    <contour>
      <point x="50.279999999999994" y="0.0" type="line"/>
      <point x="50.279999999999994" y="107.2" type="line"/>
      <point x="227.98000000000002" y="143.05" type="line"/>
      <point x="229.98000000000002" y="754.0" type="line"/>
      <point x="227.98000000000002" y="1345.22" type="line"/>
      <point x="50.279999999999994" y="1379.22" type="line"/>
      <point x="50.279999999999994" y="1500.0" type="line"/>
      <point x="693.27" y="1500.0" type="line"/>
      <point x="693.27" y="1383.0" type="line"/>
      <point x="503.14" y="1347.38" type="line"/>
      <point x="502.28999999999996" y="1257.3200000000002" type="line"/>
      <point x="754.0500000000001" y="1257.3200000000002" type="line" smooth="yes"/>
      <point x="974.1399999999999" y="1257.3200000000002"/>
      <point x="1208.65" y="1039.15"/>
      <point x="1208.65" y="826.8399999999999" type="qcurve" smooth="yes"/>
      <point x="1208.65" y="601.62"/>
      <point x="943.88" y="338.96000000000004"/>
      <point x="710.08" y="338.96000000000004" type="qcurve" smooth="yes"/>
      <point x="618.24" y="338.96000000000004"/>
      <point x="481.99" y="357.79"/>
      <point x="430.95" y="367.96000000000004" type="qcurve"/>
      <point x="438.69" y="489.15000000000003" type="line"/>
      <point x="488.38" y="477.08000000000004"/>
      <point x="574.4499999999999" y="467.46000000000004"/>
      <point x="653.0" y="467.46000000000004" type="qcurve" smooth="yes"/>
      <point x="784.1800000000001" y="467.46000000000004"/>
      <point x="924.1800000000001" y="646.37"/>
      <point x="922.94" y="821.26" type="qcurve" smooth="yes"/>
      <point x="922.01" y="973.78"/>
      <point x="785.83" y="1124.24"/>
      <point x="662.1099999999999" y="1123.8200000000002" type="qcurve" smooth="yes"/>
      <point x="502.86999999999995" y="1123.4" type="line"/>
      <point x="500.86999999999995" y="586.12" type="line"/>
      <point x="502.86999999999995" y="141.39" type="line"/>
      <point x="687.01" y="107.61999999999999" type="line"/>
      <point x="687.01" y="0.0" type="line"/>
    </contour>
  </outline>
</glyph>
<glyph name="eth" format="2">
  <advance width="1120"/>
  <unicode hex="00F0"/>
  <outline>
    <contour>
      <point x="54.4" y="494.65" type="qcurve" smooth="yes"/>
      <point x="54.4" y="728.8199999999999"/>
      <point x="326.88" y="1020.2199999999999"/>
      <point x="557.07" y="1020.2199999999999" type="qcurve" smooth="yes"/>
      <point x="760.67" y="1020.2199999999999"/>
      <point x="924.7" y="721.0"/>
      <point x="938.6" y="496.0" type="qcurve"/>
      <point x="785.94" y="496.0" type="line"/>
      <point x="791.3399999999999" y="667.5699999999999"/>
      <point x="680.77" y="891.11"/>
      <point x="560.1700000000001" y="892.04" type="qcurve" smooth="yes"/>
      <point x="441.65" y="892.97"/>
      <point x="332.43" y="703.95"/>
      <point x="333.43" y="513.1" type="qcurve" smooth="yes"/>
      <point x="334.43" y="317.84"/>
      <point x="453.51" y="96.94000000000001"/>
      <point x="557.75" y="97.63000000000001" type="qcurve" smooth="yes"/>
      <point x="690.01" y="98.32000000000001"/>
      <point x="788.1800000000001" y="363.0"/>
      <point x="788.1800000000001" y="621.0" type="qcurve" smooth="yes"/>
      <point x="788.1800000000001" y="959.3"/>
      <point x="508.13" y="1375.05"/>
      <point x="247.93" y="1474.05" type="qcurve"/>
      <point x="302.41999999999996" y="1585.24" type="line"/>
      <point x="693.02" y="1465.01"/>
      <point x="1065.39" y="952.0"/>
      <point x="1065.39" y="624.0" type="qcurve" smooth="yes"/>
      <point x="1065.39" y="328.72999999999996"/>
      <point x="806.99" y="-21.45"/>
      <point x="556.5600000000001" y="-21.45" type="qcurve" smooth="yes"/>
      <point x="325.37" y="-21.45"/>
      <point x="54.4" y="251.73"/>
    </contour>
    <contour>
      <point x="333.0" y="1209.8" type="line"/>
      <point x="841.5" y="1534.76" type="line"/>
      <point x="906.0200000000001" y="1435.7" type="line"/>
      <point x="397.52" y="1110.12" type="line"/>
    </contour>
  </outline>
</glyph>
<glyph name="divide" format="2">
  <advance width="961"/>
  <unicode hex="00F7"/>
  <outline>
    <contour>
      <point x="68.43" y="539.9399999999999" type="line"/>
      <point x="68.43" y="724.0600000000001" type="line"/>
      <point x="892.38" y="724.0600000000001" type="line"/>
      <point x="892.38" y="539.9399999999999" type="line"/>
    </contour>
    <contour>
      <point x="336.22" y="302.36" type="qcurve" smooth="yes"/>
      <point x="336.22" y="358.95"/>
      <point x="417.11" y="446.08"/>
      <point x="479.93999999999994" y="446.08" type="qcurve" smooth="yes"/>
      <point x="542.77" y="446.08"/>
      <point x="623.66" y="358.95"/>
      <point x="623.66" y="302.36" type="qcurve" smooth="yes"/>
      <point x="623.66" y="245.62"/>
      <point x="542.77" y="158.8"/>
      <point x="479.93999999999994" y="158.8" type="qcurve" smooth="yes"/>
      <point x="417.11" y="158.8"/>
      <point x="336.22" y="245.62"/>
    </contour>
    <contour>
      <point x="336.22" y="962.4399999999999" type="qcurve" smooth="yes"/>
      <point x="336.22" y="1019.7599999999999"/>
      <point x="417.11" y="1106.16"/>
      <point x="479.93999999999994" y="1106.16" type="qcurve" smooth="yes"/>
      <point x="542.77" y="1106.16"/>
      <point x="623.66" y="1019.7599999999999"/>
      <point x="623.66" y="962.4399999999999" type="qcurve" smooth="yes"/>
      <point x="623.66" y="906.43"/>
      <point x="542.77" y="819.3000000000001"/>
      <point x="479.93999999999994" y="819.3000000000001" type="qcurve" smooth="yes"/>
      <point x="417.11" y="819.3000000000001"/>
      <point x="336.22" y="906.43"/>
    </contour>
  </outline>
</glyph>
<glyph name="thorn" format="2">
  <advance width="1145"/>
  <unicode hex="00FE"/>
  <outline>
    <contour>
      <point x="19.55" y="-480.0" type="line"/>
      <point x="19.55" y="-387.91" type="line"/>
      <point x="147.42999999999998" y="-352.91" type="line"/>
      <point x="149.42999999999998" y="427.0" type="line"/>
      <point x="146.01999999999998" y="1361.3" type="line"/>
      <point x="3.7" y="1392.98" type="line"/>
      <point x="3.7" y="1500.0" type="line"/>
      <point x="340.88" y="1534.0" type="line"/>
      <point x="372.88" y="1534.0" type="line"/>
      <point x="409.86999999999995" y="1497.35" type="line"/>
      <point x="407.32" y="890.96" type="line"/>
      <point x="446.82" y="955.06"/>
      <point x="594.74" y="1034.4399999999998"/>
      <point x="699.73" y="1034.4399999999998" type="qcurve" smooth="yes"/>
      <point x="871.21" y="1034.4399999999998"/>
      <point x="1087.64" y="778.0500000000001"/>
      <point x="1087.64" y="538.99" type="qcurve" smooth="yes"/>
      <point x="1087.64" y="285.91999999999996"/>
      <point x="860.75" y="-12.0"/>
      <point x="670.0799999999999" y="-12.0" type="qcurve" smooth="yes"/>
      <point x="576.4" y="-12.0"/>
      <point x="445.28000000000003" y="40.86"/>
      <point x="407.42" y="79.34" type="qcurve"/>
      <point x="409.42" y="-352.91" type="line"/>
      <point x="562.16" y="-387.91" type="line"/>
      <point x="562.16" y="-480.0" type="line"/>
    </contour>
    <contour>
      <point x="406.69" y="245.15" type="line"/>
      <point x="430.56" y="188.25"/>
      <point x="533.44" y="114.25"/>
      <point x="603.1600000000001" y="114.25" type="qcurve" smooth="yes"/>
      <point x="701.58" y="114.25"/>
      <point x="806.6" y="316.22"/>
      <point x="806.6" y="507.48" type="qcurve" smooth="yes"/>
      <point x="806.6" y="696.4"/>
      <point x="702.83" y="876.95"/>
      <point x="603.23" y="876.95" type="qcurve" smooth="yes"/>
      <point x="532.63" y="876.95"/>
      <point x="434.59" y="804.58"/>
      <point x="407.69" y="750.39" type="qcurve"/>
      <point x="404.38" y="432.45" type="line"/>
    </contour>
  </outline>
</glyph>
<glyph name="idotless" format="2">
  <advance width="629"/>
  <unicode hex="0131"/>
  <outline>
    <contour>
      <point x="52.60000000000001" y="0.0" type="line"/>
      <point x="52.60000000000001" y="92.4" type="line"/>
      <point x="188.78" y="127.4" type="line"/>
      <point x="190.78" y="534.75" type="line"/>
      <point x="187.43" y="846.65" type="line"/>
      <point x="51.25" y="876.65" type="line"/>
      <point x="51.25" y="982.74" type="line"/>
      <point x="371.51" y="1016.12" type="line"/>
      <point x="428.12" y="1016.12" type="line"/>
      <point x="457.32000000000005" y="976.12" type="line"/>
      <point x="450.32000000000005" y="534.75" type="line"/>
      <point x="452.32000000000005" y="127.4" type="line"/>
      <point x="588.5" y="92.4" type="line"/>
      <point x="588.5" y="0.0" type="line"/>
    </contour>
  </outline>
</glyph>
<glyph name="kgreenlandic" format="2">
  <advance width="1153"/>
  <unicode hex="0138"/>
  <outline>
    <contour>
      <point x="49.800000000000004" y="0.0" type="line"/>
      <point x="49.800000000000004" y="92.4" type="line"/>
      <point x="175.21" y="127.4" type="line"/>
      <point x="177.21" y="528.55" type="line"/>
      <point x="175.21" y="881.9" type="line"/>
      <point x="49.800000000000004" y="918.76" type="line"/>
      <point x="49.800000000000004" y="1015.5" type="line"/>
      <point x="549.89" y="1015.5" type="line"/>
      <point x="549.89" y="916.9" type="line"/>
      <point x="437.18" y="881.9" type="line"/>
      <point x="436.21999999999997" y="520.95" type="line"/>
      <point x="436.25" y="127.4" type="line"/>
      <point x="546.48" y="92.4" type="line"/>
      <point x="546.48" y="0.0" type="line"/>
    </contour>
    <contour>
      <point x="406.32" y="354.34" type="line"/>
      <point x="386.97999999999996" y="484.5" type="line"/>
      <point x="775.74" y="880.0" type="line"/>
      <point x="668.28" y="910.0" type="line"/>
      <point x="668.28" y="1015.5" type="line"/>
      <point x="1080.24" y="1015.5" type="line"/>
      <point x="1080.24" y="910.0" type="line"/>
      <point x="946.1300000000001" y="875.0" type="line"/>
    </contour>
    <contour>
      <point x="512.8000000000001" y="530.15" type="line"/>
      <point x="696.25" y="699.07" type="line"/>
      <point x="1039.79" y="127.4" type="line"/>
      <point x="1141.4299999999998" y="92.4" type="line"/>
      <point x="1141.4299999999998" y="0.0" type="line"/>
      <point x="709.3" y="0.0" type="line"/>
      <point x="698.5600000000001" y="91.4" type="line"/>
      <point x="752.71" y="123.4" type="line"/>
    </contour>
  </outline>
</glyph>
<glyph name="schwa" format="2">
  <advance width="993"/>
  <unicode hex="0259"/>
  <outline>
    <contour>
      <point x="938.19" y="511.38" type="qcurve" smooth="yes"/>
      <point x="938.19" y="276.19"/>
      <point x="680.3299999999999" y="-21.45"/>
      <point x="466.62000000000006" y="-21.45" type="qcurve" smooth="yes"/>
      <point x="271.90999999999997" y="-21.45"/>
      <point x="57.339999999999996" y="211.56"/>
      <point x="44.37" y="420.28" type="qcurve"/>
      <point x="44.37" y="492.98999999999995" type="line"/>
      <point x="702.8800000000001" y="492.98999999999995" type="line"/>
      <point x="702.8800000000001" y="385.83" type="line"/>
      <point x="278.37" y="385.83" type="line"/>
      <point x="287.09999999999997" y="242.49"/>
      <point x="373.78000000000003" y="104.94999999999999"/>
      <point x="459.67999999999995" y="104.94999999999999" type="qcurve" smooth="yes"/>
      <point x="561.09" y="104.94999999999999"/>
      <point x="664.67" y="291.84999999999997"/>
      <point x="663.67" y="485.17999999999995" type="qcurve" smooth="yes"/>
      <point x="663.09" y="688.97"/>
      <point x="523.32" y="889.54"/>
      <point x="385.59000000000003" y="889.54" type="qcurve" smooth="yes"/>
      <point x="293.35" y="889.54"/>
      <point x="166.4" y="834.41"/>
      <point x="125.31" y="794.0" type="qcurve"/>
      <point x="73.17" y="868.26" type="line"/>
      <point x="116.46" y="937.15"/>
      <point x="301.28999999999996" y="1037.79"/>
      <point x="446.54" y="1037.79" type="qcurve" smooth="yes"/>
      <point x="670.2299999999999" y="1037.79"/>
      <point x="938.19" y="766.1"/>
    </contour>
  </outline>
</glyph>
<glyph name="primemod" format="2">
  <advance width="553"/>
  <unicode hex="02B9"/>
  <outline>
    <contour>
      <point x="221.18" y="1502.0" type="line"/>
      <point x="449.24" y="1502.0" type="line"/>
      <point x="305.13" y="955.04" type="line"/>
      <point x="165.76999999999998" y="960.04" type="line"/>
    </contour>
  </outline>
</glyph>
<glyph name="ring" format="2">
  <advance width="1024"/>
  <unicode hex="02DA"/>
  <outline>
    <contour>
      <point x="284.4" y="1344.1" type="qcurve" smooth="yes"/>
      <point x="284.4" y="1435.53"/>
      <point x="416.99" y="1562.9199999999998"/>
      <point x="512.0" y="1562.9199999999998" type="qcurve" smooth="yes"/>
      <point x="607.01" y="1562.9199999999998"/>
      <point x="739.6" y="1435.53"/>
      <point x="739.6" y="1344.1" type="qcurve" smooth="yes"/>
      <point x="739.6" y="1253.0900000000001"/>
      <point x="607.01" y="1125.7"/>
      <point x="512.0" y="1125.7" type="qcurve" smooth="yes"/>
      <point x="416.99" y="1125.7"/>
      <point x="284.4" y="1253.0900000000001"/>
    </contour>
    <contour>
      <point x="408.79" y="1344.1" type="qcurve" smooth="yes"/>
      <point x="408.79" y="1297.94"/>
      <point x="464.84" y="1241.31"/>
      <point x="512.0" y="1241.31" type="qcurve" smooth="yes"/>
      <point x="561.74" y="1241.31"/>
      <point x="615.21" y="1294.0500000000002"/>
      <point x="615.21" y="1344.1" type="qcurve" smooth="yes"/>
      <point x="615.21" y="1389.9499999999998"/>
      <point x="559.16" y="1447.31"/>
      <point x="512.0" y="1447.31" type="qcurve" smooth="yes"/>
      <point x="462.26" y="1447.31"/>
      <point x="408.79" y="1394.57"/>
    </contour>
  </outline>
</glyph>
<glyph name="tilde" format="2">
  <advance width="1024"/>
  <unicode hex="02DC"/>
  <outline>
    <contour>
      <point x="164.01" y="1268.25" type="line"/>
      <point x="195.11999999999998" y="1332.6499999999999"/>
      <point x="316.13" y="1444.1599999999999"/>
      <point x="387.27" y="1444.1599999999999" type="qcurve" smooth="yes"/>
      <point x="426.27" y="1444.1599999999999"/>
      <point x="493.07" y="1418.35"/>
      <point x="528.6899999999999" y="1393.19" type="qcurve" smooth="yes"/>
      <point x="554.77" y="1375.79"/>
      <point x="635.27" y="1327.44"/>
      <point x="673.8499999999999" y="1327.44" type="qcurve" smooth="yes"/>
      <point x="711.43" y="1327.44"/>
      <point x="782.43" y="1381.92"/>
      <point x="803.8000000000001" y="1417.86" type="qcurve"/>
      <point x="865.79" y="1341.7700000000002" type="line"/>
      <point x="830.37" y="1264.79"/>
      <point x="717.73" y="1172.81"/>
      <point x="658.64" y="1172.81" type="qcurve" smooth="yes"/>
      <point x="613.9" y="1172.81"/>
      <point x="525.1099999999999" y="1214.4499999999998"/>
      <point x="498.43" y="1232.99" type="qcurve" smooth="yes"/>
      <point x="466.46" y="1255.46"/>
      <point x="399.32" y="1288.27"/>
      <point x="372.47999999999996" y="1288.27" type="qcurve" smooth="yes"/>
      <point x="327.73999999999995" y="1288.27"/>
      <point x="246.69" y="1219.52"/>
      <point x="229.06" y="1192.4699999999998" type="qcurve"/>
    </contour>
  </outline>
</glyph>
<glyph name="hungarumlaut" format="2">
  <advance width="1024"/>
  <unicode hex="02DD"/>
  <outline>
    <contour>
      <point x="639.01" y="1446.4399999999998" type="qcurve" smooth="yes"/>
      <point x="641.9499999999999" y="1408.75"/>
      <point x="603.5899999999999" y="1353.12"/>
      <point x="565.8499999999999" y="1322.22" type="qcurve" smooth="yes"/>
      <point x="327.57" y="1128.99" type="line"/>
      <point x="255.38" y="1196.68" type="line"/>
      <point x="406.84" y="1409.17" type="line" smooth="yes"/>
      <point x="437.12" y="1451.83"/>
      <point x="501.82000000000005" y="1520.4099999999999"/>
      <point x="538.78" y="1522.9299999999998" type="qcurve" smooth="yes"/>
      <point x="574.4" y="1525.03"/>
      <point x="636.0699999999999" y="1479.74"/>
    </contour>
    <contour>
      <point x="995.8900000000001" y="1446.86" type="qcurve" smooth="yes"/>
      <point x="998.83" y="1408.75"/>
      <point x="960.8900000000001" y="1353.12"/>
      <point x="922.73" y="1322.22" type="qcurve" smooth="yes"/>
      <point x="684.45" y="1128.99" type="line"/>
      <point x="612.26" y="1196.68" type="line"/>
      <point x="763.99" y="1409.17" type="line" smooth="yes"/>
      <point x="794.27" y="1451.83"/>
      <point x="858.7" y="1520.83"/>
      <point x="895.6600000000001" y="1522.9299999999998" type="qcurve" smooth="yes"/>
      <point x="931.28" y="1525.03"/>
      <point x="992.95" y="1479.74"/>
    </contour>
  </outline>
</glyph>
<glyph name="breveinvertedcomb" format="2">
  <advance width="1024"/>
  <unicode hex="030F"/>
  <outline>
    <contour>
      <point x="255.25" y="1146.08" type="qcurve"/>
      <point x="178.17" y="1194.19" type="line"/>
      <point x="196.0" y="1291.67"/>
      <point x="376.67" y="1468.2800000000002"/>
      <point x="511.0" y="1468.2800000000002" type="qcurve"/>
      <point x="646.4100000000001" y="1468.2800000000002"/>
      <point x="825.2900000000001" y="1306.6699999999998"/>
      <point x="845.83" y="1195.96" type="qcurve"/>
      <point x="765.94" y="1145.35" type="line"/>
      <point x="735.9499999999999" y="1209.73"/>
      <point x="605.37" y="1310.49"/>
      <point x="510.54" y="1310.49" type="qcurve"/>
      <point x="411.87" y="1310.49"/>
      <point x="281.82" y="1208.69"/>
    </contour>
  </outline>
</glyph>
<glyph name="dotbelowcomb" format="2">
  <advance width="1024"/>
  <unicode hex="0323"/>
  <outline>
    <contour>
      <point x="391.04" y="-279.21999999999997" type="qcurve" smooth="yes"/>
      <point x="391.04" y="-219.28"/>
      <point x="453.35" y="-155.91"/>
      <point x="512.31" y="-155.91" type="qcurve" smooth="yes"/>
      <point x="567.6899999999999" y="-155.91"/>
      <point x="633.5799999999999" y="-223.9"/>
      <point x="633.5799999999999" y="-279.21999999999997" type="qcurve" smooth="yes"/>
      <point x="633.5799999999999" y="-338.70000000000005"/>
      <point x="571.89" y="-402.8"/>
      <point x="512.31" y="-402.8" type="qcurve" smooth="yes"/>
      <point x="456.93" y="-402.8"/>
      <point x="391.04" y="-335.12"/>
    </contour>
  </outline>
</glyph>
<glyph name="commaaccentcomb" format="2">
  <advance width="1024"/>
  <unicode hex="0326"/>
  <outline>
    <contour>
      <point x="371.02" y="-586.9" type="line"/>
      <point x="420.02000000000004" y="-553.52"/>
      <point x="500.03000000000003" y="-459.8"/>
      <point x="516.27" y="-407.18" type="qcurve"/>
      <point x="456.73" y="-406.91"/>
      <point x="390.76" y="-335.83000000000004"/>
      <point x="390.76" y="-281.90000000000003" type="qcurve" smooth="yes"/>
      <point x="390.76" y="-229.70000000000002"/>
      <point x="461.58" y="-151.32000000000002"/>
      <point x="521.26" y="-151.32000000000002" type="qcurve" smooth="yes"/>
      <point x="577.5600000000001" y="-151.32000000000002"/>
      <point x="653.09" y="-221.12"/>
      <point x="653.09" y="-292.03000000000003" type="qcurve" smooth="yes"/>
      <point x="653.09" y="-397.40000000000003"/>
      <point x="508.90000000000003" y="-593.62"/>
      <point x="417.53999999999996" y="-642.62" type="qcurve"/>
    </contour>
  </outline>
</glyph>
<glyph name="brevebelowcomb" format="2">
  <advance width="1024"/>
  <unicode hex="032E"/>
  <outline>
    <contour>
      <point x="777.5400000000001" y="-125.50000000000001" type="qcurve"/>
      <point x="858.67" y="-178.20000000000002" type="line"/>
      <point x="834.36" y="-277.3"/>
      <point x="652.19" y="-456.22"/>
      <point x="512.7299999999999" y="-456.22" type="qcurve" smooth="yes"/>
      <point x="377.59000000000003" y="-456.22"/>
      <point x="195.58999999999997" y="-296.08000000000004"/>
      <point x="165.6" y="-179.7" type="qcurve"/>
      <point x="251.43" y="-124.77000000000001" type="line"/>
      <point x="285.74" y="-191.57999999999998"/>
      <point x="415.09000000000003" y="-290.72"/>
      <point x="513.46" y="-290.72" type="qcurve" smooth="yes"/>
      <point x="617.6800000000001" y="-290.72"/>
      <point x="747.1899999999999" y="-191.89000000000001"/>
    </contour>
  </outline>
</glyph>
<glyph name="numeralsign" format="2">
  <advance width="429"/>
  <unicode hex="0374"/>
  <outline>
    <contour>
      <point x="148.17000000000002" y="976.13" type="line"/>
      <point x="53.73" y="1010.13" type="line"/>
      <point x="156.44" y="1500.0" type="line"/>
      <point x="332.46" y="1469.1399999999999" type="line"/>
      <point x="371.94" y="1420.3500000000001" type="line"/>
    </contour>
  </outline>
</glyph>
<glyph name="dieresistonos" format="2">
  <advance width="1197"/>
  <unicode hex="0385"/>
  <anchor x="577.79" y="1015.5" name="_GRKtop"/>
  <outline>
    <contour>
      <point x="312.68" y="1176.74" type="qcurve" smooth="yes"/>
      <point x="259.34000000000003" y="1176.74"/>
      <point x="195.8" y="1241.8000000000002"/>
      <point x="195.8" y="1295.6599999999999" type="qcurve" smooth="yes"/>
      <point x="195.8" y="1353.1"/>
      <point x="256.03000000000003" y="1414.54"/>
      <point x="312.68" y="1414.54" type="qcurve" smooth="yes"/>
      <point x="366.02000000000004" y="1414.54"/>
      <point x="429.56" y="1348.9"/>
      <point x="429.56" y="1295.6599999999999" type="qcurve" smooth="yes"/>
      <point x="429.56" y="1238.49"/>
      <point x="370.02000000000004" y="1176.74"/>
    </contour>
    <contour>
      <point x="609.4699999999999" y="1165.81" type="line"/>
      <point x="510.14000000000004" y="1182.8300000000002" type="line"/>
      <point x="531.47" y="1636.49" type="line"/>
      <point x="710.15" y="1644.69" type="line"/>
      <point x="757.83" y="1603.91" type="line"/>
    </contour>
    <contour>
      <point x="884.2199999999999" y="1176.74" type="qcurve" smooth="yes"/>
      <point x="830.88" y="1176.74"/>
      <point x="767.34" y="1241.8000000000002"/>
      <point x="767.34" y="1295.6599999999999" type="qcurve" smooth="yes"/>
      <point x="767.34" y="1353.1"/>
      <point x="827.88" y="1414.54"/>
      <point x="884.2199999999999" y="1414.54" type="qcurve" smooth="yes"/>
      <point x="937.56" y="1414.54"/>
      <point x="1001.0999999999999" y="1348.9"/>
      <point x="1001.0999999999999" y="1295.6599999999999" type="qcurve" smooth="yes"/>
      <point x="1001.0999999999999" y="1238.49"/>
      <point x="941.8699999999999" y="1176.74"/>
    </contour>
  </outline>
</glyph>
<glyph name="Lambda" format="2">
  <advance width="1341"/>
  <unicode hex="039B"/>
  <outline>
    <contour>
      <point x="0.5499999999999989" y="0.0" type="line"/>
      <point x="0.5499999999999989" y="107.0" type="line"/>
      <point x="152.19" y="141.69" type="line"/>
      <point x="291.58000000000004" y="599.13" type="line"/>
      <point x="553.9100000000001" y="1505.52" type="line"/>
      <point x="779.74" y="1505.52" type="line"/>
      <point x="1046.53" y="620.94" type="line"/>
      <point x="1194.94" y="141.27" type="line"/>
      <point x="1335.96" y="107.0" type="line"/>
      <point x="1335.96" y="0.0" type="line"/>
      <point x="756.24" y="0.0" type="line"/>
      <point x="756.24" y="107.0" type="line"/>
      <point x="903.77" y="140.19000000000003" type="line"/>
      <point x="782.1999999999999" y="565.84" type="line"/>
      <point x="598.71" y="1189.52" type="line"/>
      <point x="416.98" y="568.43" type="line"/>
      <point x="300.2" y="139.92" type="line"/>
      <point x="447.59000000000003" y="107.0" type="line"/>
      <point x="447.59000000000003" y="0.0" type="line"/>
    </contour>
  </outline>
</glyph>
<glyph name="Pi" format="2">
  <advance width="1542"/>
  <unicode hex="03A0"/>
  <outline>
    <contour>
      <point x="50.279999999999994" y="0.0" type="line"/>
      <point x="50.279999999999994" y="107.61999999999999" type="line"/>
      <point x="227.98000000000002" y="142.62" type="line"/>
      <point x="229.98000000000002" y="754.0" type="line"/>
      <point x="227.98000000000002" y="1345.22" type="line"/>
      <point x="50.279999999999994" y="1379.22" type="line"/>
      <point x="50.279999999999994" y="1500.0" type="line"/>
      <point x="1492.13" y="1500.0" type="line"/>
      <point x="1492.13" y="1379.22" type="line"/>
      <point x="1314.43" y="1345.22" type="line"/>
      <point x="1312.43" y="754.0" type="line"/>
      <point x="1314.43" y="142.62" type="line"/>
      <point x="1492.13" y="107.61999999999999" type="line"/>
      <point x="1492.13" y="0.0" type="line"/>
      <point x="866.24" y="0.0" type="line"/>
      <point x="866.24" y="107.61999999999999" type="line"/>
      <point x="1039.1200000000001" y="142.62" type="line"/>
      <point x="1041.1200000000001" y="754.0" type="line"/>
      <point x="1039.1200000000001" y="1344.6" type="line"/>
      <point x="779.88" y="1348.22" type="line"/>
      <point x="502.74999999999994" y="1344.6" type="line"/>
      <point x="501.28999999999996" y="754.0" type="line"/>
      <point x="503.28999999999996" y="142.62" type="line"/>
      <point x="676.17" y="107.61999999999999" type="line"/>
      <point x="676.17" y="0.0" type="line"/>
    </contour>
  </outline>
</glyph>
<glyph name="Phi" format="2">
  <advance width="1613"/>
  <unicode hex="03A6"/>
  <outline>
    <contour>
      <point x="514.69" y="-31.0" type="line"/>
      <point x="514.69" y="83.78" type="line"/>
      <point x="674.7900000000001" y="117.78" type="line"/>
      <point x="677.37" y="282.26" type="line"/>
      <point x="685.2700000000001" y="282.26" type="line"/>
      <point x="686.4300000000001" y="739.5500000000001" type="line"/>
      <point x="926.1500000000001" y="739.5500000000001" type="line"/>
      <point x="927.3100000000001" y="282.84" type="line"/>
      <point x="935.21" y="282.26" type="line"/>
      <point x="936.95" y="117.78" type="line"/>
      <point x="1097.8899999999999" y="83.78" type="line"/>
      <point x="1097.8899999999999" y="-31.0" type="line"/>
    </contour>
    <contour>
      <point x="686.4300000000001" y="739.5500000000001" type="line"/>
      <point x="685.2700000000001" y="1204.61" type="line"/>
      <point x="677.37" y="1205.19" type="line"/>
      <point x="674.7900000000001" y="1371.22" type="line"/>
      <point x="514.69" y="1405.22" type="line"/>
      <point x="514.69" y="1520.0" type="line"/>
      <point x="1097.8899999999999" y="1520.0" type="line"/>
      <point x="1097.8899999999999" y="1405.22" type="line"/>
      <point x="936.95" y="1371.22" type="line"/>
      <point x="935.21" y="1205.19" type="line"/>
      <point x="927.3100000000001" y="1205.19" type="line"/>
      <point x="926.1500000000001" y="739.5500000000001" type="line"/>
    </contour>
    <contour>
      <point x="725.88" y="219.64000000000001" type="line"/>
      <point x="387.03000000000003" y="222.58"/>
      <point x="64.42999999999999" y="498.95"/>
      <point x="64.42999999999999" y="732.0600000000001" type="qcurve" smooth="yes"/>
      <point x="64.42999999999999" y="977.5600000000001"/>
      <point x="392.06" y="1260.81"/>
      <point x="725.88" y="1268.97" type="qcurve"/>
      <point x="725.88" y="1144.18" type="line"/>
      <point x="539.82" y="1142.18"/>
      <point x="355.79999999999995" y="932.65"/>
      <point x="355.79999999999995" y="737.2" type="qcurve" smooth="yes"/>
      <point x="355.79999999999995" y="552.2800000000001"/>
      <point x="543.85" y="340.63"/>
      <point x="725.88" y="339.79" type="qcurve"/>
    </contour>
    <contour>
      <point x="886.6999999999999" y="219.64000000000001" type="qcurve"/>
      <point x="886.6999999999999" y="339.17" type="line"/>
      <point x="1073.03" y="341.17"/>
      <point x="1257.0500000000002" y="557.74"/>
      <point x="1257.0500000000002" y="753.19" type="qcurve" smooth="yes"/>
      <point x="1257.0500000000002" y="938.11"/>
      <point x="1069.0" y="1142.7199999999998"/>
      <point x="886.6999999999999" y="1143.56" type="qcurve"/>
      <point x="886.6999999999999" y="1268.97" type="line"/>
      <point x="1225.82" y="1266.03"/>
      <point x="1548.42" y="990.5"/>
      <point x="1548.42" y="757.39" type="qcurve" smooth="yes"/>
      <point x="1548.42" y="511.89"/>
      <point x="1220.79" y="227.8"/>
    </contour>
  </outline>
</glyph>
<glyph name="Psi" format="2">
  <advance width="1788"/>
  <unicode hex="03A8"/>
  <outline>
    <contour>
      <point x="576.93" y="0.0" type="line"/>
      <point x="576.93" y="107.61999999999999" type="line"/>
      <point x="760.4300000000001" y="142.93" type="line"/>
      <point x="759.75" y="521.76" type="line"/>
      <point x="760.55" y="521.76" type="line"/>
      <point x="760.55" y="787.06" type="line"/>
      <point x="756.23" y="1345.22" type="line"/>
      <point x="609.63" y="1379.22" type="line"/>
      <point x="609.63" y="1500.0" type="line"/>
      <point x="1165.43" y="1500.0" type="line"/>
      <point x="1165.43" y="1379.22" type="line"/>
      <point x="1018.83" y="1345.22" type="line"/>
      <point x="1014.5100000000001" y="787.06" type="line"/>
      <point x="1014.5100000000001" y="521.76" type="line"/>
      <point x="1015.3100000000001" y="521.76" type="line"/>
      <point x="1014.6300000000001" y="142.89000000000001" type="line"/>
      <point x="1198.1299999999999" y="107.61999999999999" type="line"/>
      <point x="1198.1299999999999" y="0.0" type="line"/>
    </contour>
    <contour>
      <point x="817.59" y="458.9" type="line"/>
      <point x="498.22" y="461.06"/>
      <point x="232.70000000000002" y="695.0799999999999"/>
      <point x="218.48000000000002" y="958.8299999999999" type="qcurve" smooth="yes"/>
      <point x="199.91" y="1345.53" type="line"/>
      <point x="40.989999999999995" y="1379.53" type="line"/>
      <point x="40.989999999999995" y="1500.0" type="line"/>
      <point x="425.81" y="1500.0" type="line"/>
      <point x="459.65" y="1475.32" type="line"/>
      <point x="479.68" y="961.71" type="line" smooth="yes"/>
      <point x="490.37" y="742.27"/>
      <point x="641.2" y="595.8000000000001"/>
      <point x="817.59" y="595.8000000000001" type="qcurve"/>
    </contour>
    <contour>
      <point x="957.7799999999999" y="458.9" type="qcurve"/>
      <point x="957.7799999999999" y="595.8000000000001" type="line"/>
      <point x="1134.1699999999998" y="595.8000000000001"/>
      <point x="1287.0400000000002" y="742.27"/>
      <point x="1295.6899999999998" y="961.71" type="qcurve" smooth="yes"/>
      <point x="1315.72" y="1475.32" type="line"/>
      <point x="1349.56" y="1500.0" type="line"/>
      <point x="1734.38" y="1500.0" type="line"/>
      <point x="1734.38" y="1379.53" type="line"/>
      <point x="1575.46" y="1345.53" type="line"/>
      <point x="1556.89" y="958.8299999999999" type="line" smooth="yes"/>
      <point x="1540.5100000000002" y="695.35"/>
      <point x="1277.1499999999999" y="461.06"/>
    </contour>
  </outline>
</glyph>
<glyph name="gamma" format="2">
  <advance width="1009"/>
  <unicode hex="03B3"/>
  <outline>
    <contour>
      <point x="436.39" y="-480.0" type="line"/>
      <point x="398.91" y="-446.18" type="line"/>
      <point x="431.67" y="59.95" type="line"/>
      <point x="535.9300000000001" y="59.95" type="line"/>
      <point x="656.65" y="556.91" type="line"/>
      <point x="745.58" y="996.8299999999999" type="line"/>
      <point x="953.6200000000001" y="1016.12" type="line"/>
      <point x="991.4100000000001" y="982.3" type="line"/>
      <point x="823.79" y="517.77" type="line"/>
      <point x="601.83" y="-136.89" type="line"/>
      <point x="466.17" y="-137.51" type="line"/>
      <point x="256.73" y="474.49" type="line"/>
      <point x="142.0" y="803.21" type="line" smooth="yes"/>
      <point x="128.1" y="836.1700000000001"/>
      <point x="101.49000000000001" y="860.55"/>
      <point x="68.6" y="866.84" type="qcurve" smooth="yes"/>
      <point x="2.7" y="883.01" type="line"/>
      <point x="2.7" y="989.1" type="line"/>
      <point x="256.96" y="1023.4100000000001" type="line"/>
      <point x="311.46000000000004" y="1023.72"/>
      <point x="369.78" y="961.16"/>
      <point x="392.35" y="882.86" type="qcurve" smooth="yes"/>
      <point x="486.8" y="556.7" type="line"/>
      <point x="614.55" y="122.50999999999999" type="line"/>
      <point x="641.01" y="122.50999999999999" type="line"/>
      <point x="674.9300000000001" y="-457.65" type="line"/>
    </contour>
  </outline>
</glyph>
<glyph name="zeta" format="2">
  <advance width="826"/>
  <unicode hex="03B6"/>
  <outline>
    <contour>
      <point x="666.18" y="-313.0" type="line"/>
      <point x="637.57" y="-126.61000000000001" type="line" smooth="yes"/>
      <point x="628.9" y="-66.81"/>
      <point x="604.11" y="-31.240000000000002"/>
      <point x="559.0799999999999" y="-27.199999999999996" type="qcurve" smooth="yes"/>
      <point x="491.76000000000005" y="-21.35" type="line" smooth="yes"/>
      <point x="277.72" y="-0.9500000000000011"/>
      <point x="54.4" y="194.44000000000003"/>
      <point x="54.4" y="369.90999999999997" type="qcurve" smooth="yes"/>
      <point x="54.4" y="536.4000000000001"/>
      <point x="277.03000000000003" y="943.0300000000001"/>
      <point x="598.49" y="1361.4" type="qcurve"/>
      <point x="601.19" y="1323.47" type="line"/>
      <point x="123.7" y="1314.76" type="line"/>
      <point x="93.34" y="1345.82" type="line"/>
      <point x="116.75999999999999" y="1532.32" type="line"/>
      <point x="825.11" y="1510.28" type="line"/>
      <point x="825.11" y="1344.0" type="line"/>
      <point x="528.55" y="930.15"/>
      <point x="328.25" y="562.89"/>
      <point x="327.63" y="414.11" type="qcurve" smooth="yes"/>
      <point x="327.32" y="291.61"/>
      <point x="463.65999999999997" y="182.41"/>
      <point x="615.8199999999999" y="170.12" type="qcurve" smooth="yes"/>
      <point x="679.75" y="164.82" type="line" smooth="yes"/>
      <point x="749.75" y="158.75"/>
      <point x="818.02" y="96.92"/>
      <point x="819.5600000000001" y="35.58" type="qcurve"/>
      <point x="772.69" y="-313.0" type="line"/>
    </contour>
  </outline>
</glyph>
<glyph name="iota" format="2">
  <advance width="622"/>
  <unicode hex="03B9"/>
  <anchor x="283.12" y="1015.5" name="GRKtop"/>
  <outline>
    <contour>
      <point x="326.12" y="-10.17" type="line"/>
      <point x="230.61" y="-10.59"/>
      <point x="140.95" y="76.81"/>
      <point x="141.95" y="183.0" type="qcurve" smooth="yes"/>
      <point x="143.95" y="428.0" type="line"/>
      <point x="132.91" y="993.46" type="line"/>
      <point x="382.01" y="1016.12" type="line"/>
      <point x="419.49" y="982.3" type="line"/>
      <point x="403.46999999999997" y="428.0" type="line"/>
      <point x="403.78" y="236.32" type="line" smooth="yes"/>
      <point x="403.78" y="177.56"/>
      <point x="452.20000000000005" y="126.36"/>
      <point x="502.77000000000004" y="126.36" type="qcurve" smooth="yes"/>
      <point x="580.27" y="126.36" type="line"/>
      <point x="580.27" y="31.38" type="line"/>
    </contour>
  </outline>
</glyph>
<glyph name="nu" format="2">
  <advance width="1009"/>
  <unicode hex="03BD"/>
  <outline>
    <contour>
      <point x="419.09999999999997" y="-2.8200000000000003" type="line"/>
      <point x="253.01" y="482.24" type="line"/>
      <point x="143.55" y="798.5600000000001" type="line" smooth="yes"/>
      <point x="132.13" y="829.97"/>
      <point x="106.96" y="856.7"/>
      <point x="74.49000000000001" y="865.6" type="qcurve" smooth="yes"/>
      <point x="2.7" y="883.01" type="line"/>
      <point x="2.7" y="989.1" type="line"/>
      <point x="256.03" y="1023.4100000000001" type="line"/>
      <point x="306.19" y="1024.34"/>
      <point x="365.84000000000003" y="967.05"/>
      <point x="393.90000000000003" y="878.83" type="qcurve" smooth="yes"/>
      <point x="487.72999999999996" y="553.6" type="line"/>
      <point x="597.9300000000001" y="182.53" type="line"/>
      <point x="565.29" y="182.22" type="line"/>
      <point x="653.4" y="555.05" type="line"/>
      <point x="745.58" y="996.8299999999999" type="line"/>
      <point x="953.6200000000001" y="1016.12" type="line"/>
      <point x="991.4100000000001" y="982.3" type="line"/>
      <point x="821.47" y="517.77" type="line"/>
      <point x="644.1500000000001" y="-2.8200000000000003" type="line"/>
    </contour>
  </outline>
</glyph>
<glyph name="xi" format="2">
  <advance width="885"/>
  <unicode hex="03BE"/>
  <outline>
    <contour>
      <point x="680.79" y="-313.0" type="line"/>
      <point x="650.17" y="-114.72000000000001" type="line" smooth="yes"/>
      <point x="641.38" y="-59.3"/>
      <point x="609.51" y="-30.199999999999996"/>
      <point x="564.98" y="-26.430000000000003" type="qcurve" smooth="yes"/>
      <point x="524.38" y="-22.59" type="line" smooth="yes"/>
      <point x="283.53999999999996" y="-1.1000000000000005"/>
      <point x="57.41" y="202.22"/>
      <point x="57.41" y="365.92" type="qcurve" smooth="yes"/>
      <point x="57.41" y="573.21"/>
      <point x="417.92" y="820.8399999999999"/>
      <point x="703.17" y="883.59" type="qcurve" smooth="yes"/>
      <point x="762.02" y="895.0799999999999" type="line"/>
      <point x="792.2800000000001" y="853.68" type="line"/>
      <point x="731.13" y="633.74" type="line"/>
      <point x="697.35" y="638.74" type="line" smooth="yes"/>
      <point x="402.62" y="680.45"/>
      <point x="123.86" y="857.94"/>
      <point x="123.86" y="1017.24" type="qcurve" smooth="yes"/>
      <point x="123.86" y="1129.73"/>
      <point x="253.39" y="1303.06"/>
      <point x="380.5" y="1342.52" type="qcurve"/>
      <point x="380.77000000000004" y="1325.22" type="line"/>
      <point x="124.54" y="1320.96" type="line"/>
      <point x="93.25" y="1352.02" type="line"/>
      <point x="118.52999999999999" y="1532.32" type="line"/>
      <point x="851.28" y="1514.0" type="line"/>
      <point x="851.28" y="1342.8" type="line"/>
      <point x="584.38" y="1320.17"/>
      <point x="356.35" y="1168.13"/>
      <point x="356.35" y="1032.1999999999998" type="qcurve" smooth="yes"/>
      <point x="356.35" y="937.3599999999999"/>
      <point x="501.30999999999995" y="810.9300000000001"/>
      <point x="693.91" y="768.7" type="qcurve"/>
      <point x="678.73" y="722.34" type="line"/>
      <point x="482.75000000000006" y="697.9200000000001"/>
      <point x="323.42" y="536.54"/>
      <point x="323.42" y="416.83" type="qcurve"/>
      <point x="323.42" y="302.27"/>
      <point x="472.49" y="184.49999999999997"/>
      <point x="620.72" y="171.54" type="qcurve" smooth="yes"/>
      <point x="690.3299999999999" y="165.23999999999998" type="line" smooth="yes"/>
      <point x="767.58" y="158.28"/>
      <point x="833.83" y="94.44"/>
      <point x="834.79" y="35.85000000000001" type="qcurve"/>
      <point x="786.6800000000001" y="-313.0" type="line"/>
    </contour>
  </outline>
</glyph>
<glyph name="sigma" format="2">
  <advance width="1169"/>
  <unicode hex="03C3"/>
  <outline>
    <contour>
      <point x="541.7900000000001" y="-21.139999999999997" type="qcurve" smooth="yes"/>
      <point x="314.31" y="-21.139999999999997"/>
      <point x="55.019999999999996" y="239.75"/>
      <point x="55.019999999999996" y="459.1" type="qcurve" smooth="yes"/>
      <point x="55.019999999999996" y="688.22"/>
      <point x="342.79999999999995" y="982.08"/>
      <point x="645.6" y="1001.69" type="qcurve" smooth="yes"/>
      <point x="1098.04" y="1028.03" type="line"/>
      <point x="1130.61" y="999.14" type="line"/>
      <point x="1108.92" y="802.48" type="line"/>
      <point x="708.27" y="810.0899999999999" type="line" smooth="yes"/>
      <point x="502.49" y="813.64"/>
      <point x="334.71" y="623.1"/>
      <point x="335.02" y="444.36" type="qcurve" smooth="yes"/>
      <point x="335.33" y="281.65"/>
      <point x="447.71" y="97.9"/>
      <point x="545.0" y="97.9" type="qcurve" smooth="yes"/>
      <point x="648.01" y="97.9"/>
      <point x="758.87" y="290.2"/>
      <point x="758.87" y="458.40999999999997" type="qcurve" smooth="yes"/>
      <point x="758.87" y="612.21"/>
      <point x="680.2800000000001" y="806.66"/>
      <point x="605.24" y="852.72" type="qcurve"/>
      <point x="605.24" y="909.02" type="line"/>
      <point x="687.76" y="909.02" type="line"/>
      <point x="847.88" y="840.19"/>
      <point x="1023.2900000000001" y="610.2800000000001"/>
      <point x="1023.2900000000001" y="455.0" type="qcurve" smooth="yes"/>
      <point x="1023.2900000000001" y="240.42000000000002"/>
      <point x="764.26" y="-21.139999999999997"/>
    </contour>
  </outline>
</glyph>
<glyph name="omega" format="2">
  <advance width="1447"/>
  <unicode hex="03C9"/>
  <anchor x="731.69" y="1015.5" name="GRKtop"/>
  <outline>
    <contour>
      <point x="454.13" y="-19.9" type="qcurve" smooth="yes"/>
      <point x="260.45" y="-19.9"/>
      <point x="65.86" y="236.42"/>
      <point x="65.86" y="445.01" type="qcurve" smooth="yes"/>
      <point x="65.86" y="652.03"/>
      <point x="251.36" y="967.88"/>
      <point x="413.03" y="1036.45" type="qcurve"/>
      <point x="528.65" y="979.96" type="line"/>
      <point x="425.07" y="869.13"/>
      <point x="331.53000000000003" y="599.33"/>
      <point x="331.53000000000003" y="433.71" type="qcurve" smooth="yes"/>
      <point x="331.53000000000003" y="280.08"/>
      <point x="414.98" y="146.92"/>
      <point x="491.98999999999995" y="146.92" type="qcurve" smooth="yes"/>
      <point x="580.68" y="146.92"/>
      <point x="662.04" y="371.54"/>
      <point x="667.99" y="529.53" type="qcurve"/>
      <point x="779.7" y="529.53" type="line"/>
      <point x="790.27" y="352.06"/>
      <point x="875.95" y="146.92"/>
      <point x="950.31" y="146.92" type="qcurve" smooth="yes"/>
      <point x="1026.81" y="146.92"/>
      <point x="1114.85" y="293.2"/>
      <point x="1114.85" y="455.75" type="qcurve" smooth="yes"/>
      <point x="1114.85" y="637.07"/>
      <point x="1007.71" y="896.65"/>
      <point x="929.5300000000001" y="976.13" type="qcurve"/>
      <point x="1094.19" y="1062.17" type="line"/>
      <point x="1235.45" y="962.96"/>
      <point x="1381.45" y="661.5300000000001"/>
      <point x="1381.45" y="482.37" type="qcurve" smooth="yes"/>
      <point x="1381.45" y="245.17"/>
      <point x="1170.32" y="-19.9"/>
      <point x="1009.06" y="-19.9" type="qcurve" smooth="yes"/>
      <point x="812.32" y="-19.9"/>
      <point x="592.0799999999999" y="341.73"/>
      <point x="592.0799999999999" y="632.6600000000001" type="qcurve" smooth="yes"/>
      <point x="592.0799999999999" y="714.49" type="line"/>
      <point x="818.1" y="735.64" type="line"/>
      <point x="855.58" y="701.82" type="line"/>
      <point x="854.96" y="632.8800000000001" type="line" smooth="yes"/>
      <point x="853.1" y="370.81"/>
      <point x="653.3" y="-19.9"/>
    </contour>
  </outline>
</glyph>
<glyph name="kaisymbol" format="2">
  <advance width="1122"/>
  <unicode hex="03D7"/>
  <outline>
    <contour>
      <point x="504.58000000000004" y="-528.6" type="qcurve" smooth="yes"/>
      <point x="306.65" y="-528.6"/>
      <point x="26.67" y="-352.79"/>
      <point x="-55.150000000000006" y="-212.16000000000003" type="qcurve"/>
      <point x="36.980000000000004" y="-136.09" type="line"/>
      <point x="98.88000000000001" y="-221.98000000000002"/>
      <point x="326.2" y="-355.56"/>
      <point x="490.81000000000006" y="-355.56" type="qcurve" smooth="yes"/>
      <point x="708.09" y="-355.56"/>
      <point x="929.9000000000001" y="-78.64"/>
      <point x="925.5899999999999" y="128.06" type="qcurve"/>
      <point x="1109.17" y="128.06" type="line"/>
      <point x="1119.89" y="-164.11"/>
      <point x="786.12" y="-528.6"/>
    </contour>
    <component base="kappa" yOffset="-0.31"/>
  </outline>
</glyph>
<glyph name="Dje" format="2">
  <advance width="1579"/>
  <unicode hex="0402"/>
  <guideline x="568.0" y="625.0" angle="90.0" identifier="YDADns81zF"/>
  <outline>
    <contour>
      <point x="1082.6399999999999" y="0.0" type="qcurve"/>
      <point x="1082.6399999999999" y="109.3" type="line"/>
      <point x="1163.88" y="122.25"/>
      <point x="1246.93" y="281.73"/>
      <point x="1246.93" y="429.52" type="qcurve" smooth="yes"/>
      <point x="1246.93" y="577.3"/>
      <point x="1109.516635514007" y="731.2900000000001"/>
      <point x="971.2599999999999" y="731.2900000000001" type="qcurve" smooth="yes"/>
      <point x="870.476010522807" y="731.2900000000001"/>
      <point x="699.764079966764" y="695.9625146171629"/>
      <point x="606.08" y="663.5600000000001" type="qcurve"/>
      <point x="606.08" y="797.08" type="line"/>
      <point x="701.203804977663" y="830.2484778448729"/>
      <point x="893.383416901394" y="874.36"/>
      <point x="1028.69" y="874.36" type="qcurve" smooth="yes"/>
      <point x="1263.0943280632412" y="874.36"/>
      <point x="1524.51" y="651.82"/>
      <point x="1524.51" y="437.59999999999997" type="qcurve" smooth="yes"/>
      <point x="1524.51" y="232.76999999999998"/>
      <point x="1301.55" y="5.88"/>
    </contour>
    <contour>
      <point x="40.0" y="1061.64" type="line"/>
      <point x="40.0" y="1500.0" type="line"/>
      <point x="1212.47" y="1500.0" type="line"/>
      <point x="1212.47" y="1091.24" type="line"/>
      <point x="1091.3100000000002" y="1091.24" type="line"/>
      <point x="1054.76" y="1369.6" type="line"/>
      <point x="758.93" y="1369.6" type="line"/>
      <point x="743.58" y="1350.84" type="line"/>
      <point x="741.89" y="754.0" type="line"/>
      <point x="743.58" y="142.47" type="line"/>
      <point x="920.1899999999999" y="107.2" type="line"/>
      <point x="920.1899999999999" y="0.0" type="line"/>
      <point x="279.88" y="0.0" type="line"/>
      <point x="279.88" y="107.2" type="line"/>
      <point x="468.27000000000004" y="142.47" type="line"/>
      <point x="470.27000000000004" y="754.0" type="line"/>
      <point x="468.27000000000004" y="1350.84" type="line"/>
      <point x="455.62" y="1369.6" type="line"/>
      <point x="197.4" y="1369.6" type="line"/>
      <point x="160.85" y="1061.64" type="line"/>
    </contour>
  </outline>
</glyph>
<glyph name="Be" format="2">
  <advance width="1251"/>
  <unicode hex="0411"/>
  <outline>
    <contour>
      <point x="500.36" y="892.5600000000001" type="line"/>
      <point x="507.78999999999996" y="879.8000000000001" type="line"/>
      <point x="711.09" y="879.8000000000001" type="line" smooth="yes"/>
      <point x="960.81" y="879.8000000000001"/>
      <point x="1202.76" y="669.059821826278"/>
      <point x="1202.76" y="454.34000000000003" type="qcurve" smooth="yes"/>
      <point x="1202.76" y="254.499796380102"/>
      <point x="968.37" y="0.0"/>
      <point x="745.11" y="0.0" type="qcurve" smooth="yes"/>
      <point x="50.279999999999994" y="0.0" type="line"/>
      <point x="50.279999999999994" y="107.61999999999999" type="line"/>
      <point x="227.98000000000002" y="142.62" type="line"/>
      <point x="229.98000000000002" y="749.14" type="line"/>
      <point x="227.98000000000002" y="1345.22" type="line"/>
      <point x="50.279999999999994" y="1379.22" type="line"/>
      <point x="50.279999999999994" y="1500.0" type="line"/>
      <point x="1091.9099999999999" y="1500.0" type="line"/>
      <point x="1091.9099999999999" y="1119.54" type="line"/>
      <point x="968.6" y="1119.54" type="line"/>
      <point x="936.56" y="1369.6" type="line"/>
      <point x="537.26" y="1369.6" type="line"/>
      <point x="503.28999999999996" y="1348.36" type="line"/>
    </contour>
    <contour>
      <point x="500.62999999999994" y="740.16" type="line"/>
      <point x="502.62999999999994" y="142.82" type="line"/>
      <point x="531.01" y="121.02" type="line"/>
      <point x="645.3299999999999" y="121.02" type="line" smooth="yes"/>
      <point x="782.09" y="121.02"/>
      <point x="920.77" y="290.140535117044"/>
      <point x="920.77" y="456.51" type="qcurve" smooth="yes"/>
      <point x="920.77" y="610.456609589036"/>
      <point x="783.221512459992" y="753.23"/>
      <point x="653.89" y="753.23" type="qcurve" smooth="yes"/>
      <point x="509.1" y="753.23" type="line"/>
    </contour>
  </outline>
</glyph>
<glyph name="Ghe" format="2">
  <advance width="1109"/>
  <unicode hex="0413"/>
  <outline>
    <contour>
      <point x="50.279999999999994" y="0.0" type="line"/>
      <point x="50.279999999999994" y="107.61999999999999" type="line"/>
      <point x="227.98000000000002" y="143.16" type="line"/>
      <point x="229.98000000000002" y="755.62" type="line"/>
      <point x="227.98000000000002" y="1345.22" type="line"/>
      <point x="50.279999999999994" y="1379.22" type="line"/>
      <point x="50.279999999999994" y="1500.0" type="line"/>
      <point x="1069.08" y="1500.0" type="line"/>
      <point x="1069.08" y="1119.54" type="line"/>
      <point x="945.77" y="1119.54" type="line"/>
      <point x="913.7299999999999" y="1369.6" type="line"/>
      <point x="537.26" y="1369.6" type="line"/>
      <point x="503.28999999999996" y="1348.36" type="line"/>
      <point x="503.15" y="760.0" type="line"/>
      <point x="505.15" y="141.39" type="line"/>
      <point x="689.91" y="107.92999999999999" type="line"/>
      <point x="689.91" y="0.0" type="line"/>
    </contour>
  </outline>
</glyph>
<glyph name="De" format="2">
  <advance width="1465"/>
  <unicode hex="0414"/>
  <outline>
    <contour>
      <point x="1286.27" y="-338.0" type="line"/>
      <point x="1212.17" y="0.0" type="line"/>
      <point x="232.85000000000002" y="0.0" type="line"/>
      <point x="158.75" y="-338.0" type="line"/>
      <point x="27.55" y="-338.0" type="line"/>
      <point x="37.55" y="123.5" type="line"/>
      <point x="1407.47" y="123.5" type="line"/>
      <point x="1417.47" y="-338.0" type="line"/>
    </contour>
    <contour>
      <point x="318.04999999999995" y="783.26" type="qcurve" smooth="yes"/>
      <point x="349.57" y="1345.22" type="line"/>
      <point x="171.87" y="1379.22" type="line"/>
      <point x="171.87" y="1500.0" type="line"/>
      <point x="1407.47" y="1500.0" type="line"/>
      <point x="1407.47" y="1379.22" type="line"/>
      <point x="1229.77" y="1345.22" type="line"/>
      <point x="1227.77" y="754.0" type="line"/>
      <point x="1229.77" y="0.0" type="line"/>
      <point x="954.4599999999999" y="0.0" type="line"/>
      <point x="956.4599999999999" y="754.0" type="line"/>
      <point x="954.4599999999999" y="1346.1999999999998" type="line"/>
      <point x="918.52" y="1369.6" type="line"/>
      <point x="551.0400000000001" y="1369.6" type="line"/>
      <point x="515.1" y="1345.36" type="line"/>
      <point x="483.31" y="774.98" type="line" smooth="yes"/>
      <point x="469.17" y="529.92"/>
      <point x="408.66" y="199.73999999999998"/>
      <point x="352.65" y="81.47" type="qcurve"/>
      <point x="164.02999999999997" y="81.47" type="line"/>
      <point x="234.72999999999996" y="201.24"/>
      <point x="301.5" y="534.15"/>
    </contour>
  </outline>
</glyph>
<glyph name="Zhe" format="2">
  <advance width="2069"/>
  <unicode hex="0416"/>
  <guideline x="480.0" y="796.0" angle="90.0" identifier="vQLQteAbfW"/>
  <outline>
    <contour>
      <point x="730.21" y="0.0" type="line"/>
      <point x="730.21" y="107.61999999999999" type="line"/>
      <point x="903.71" y="142.62" type="line"/>
      <point x="905.71" y="754.0" type="line"/>
      <point x="903.71" y="1345.22" type="line"/>
      <point x="732.91" y="1379.22" type="line"/>
      <point x="732.91" y="1500.0" type="line"/>
      <point x="1348.89" y="1500.0" type="line"/>
      <point x="1348.89" y="1379.22" type="line"/>
      <point x="1178.71" y="1345.22" type="line"/>
      <point x="1176.71" y="754.0" type="line"/>
      <point x="1178.71" y="142.62" type="line"/>
      <point x="1336.09" y="107.61999999999999" type="line"/>
      <point x="1336.09" y="0.0" type="line"/>
    </contour>
    <contour>
      <point x="1041.21" y="710.64" type="line"/>
      <point x="1041.21" y="850.26" type="line"/>
      <point x="1313.3" y="845.64" type="line"/>
      <point x="1664.01" y="1342.0600000000002" type="line"/>
      <point x="1536.76" y="1379.53" type="line"/>
      <point x="1536.76" y="1500.0" type="line"/>
      <point x="1998.71" y="1500.0" type="line"/>
      <point x="1998.71" y="1379.53" type="line"/>
      <point x="1842.6599999999999" y="1342.0600000000002" type="line"/>
      <point x="1421.4399999999998" y="769.63" type="line"/>
      <point x="1369.38" y="710.64" type="line"/>
    </contour>
    <contour>
      <point x="1299.54" y="735.99" type="line"/>
      <point x="1484.6200000000001" y="933.37" type="line"/>
      <point x="1952.58" y="142.20000000000002" type="line"/>
      <point x="2074.96" y="107.61999999999999" type="line"/>
      <point x="2074.96" y="0.0" type="line"/>
      <point x="1517.72" y="0.0" type="line"/>
      <point x="1517.72" y="107.61999999999999" type="line"/>
      <point x="1646.01" y="142.20000000000002" type="line"/>
    </contour>
    <contour>
      <point x="1041.21" y="710.64" type="line"/>
      <point x="696.92" y="710.64" type="line"/>
      <point x="629.74" y="774.25" type="line"/>
      <point x="211.04" y="1342.0600000000002" type="line"/>
      <point x="60.92" y="1379.53" type="line"/>
      <point x="60.92" y="1500.0" type="line"/>
      <point x="529.54" y="1500.0" type="line"/>
      <point x="529.54" y="1379.53" type="line"/>
      <point x="402.29" y="1342.0600000000002" type="line"/>
      <point x="753.0" y="845.64" type="line"/>
      <point x="1041.21" y="850.26" type="line"/>
    </contour>
    <contour>
      <point x="766.76" y="735.99" type="line"/>
      <point x="420.28999999999996" y="142.20000000000002" type="line"/>
      <point x="548.58" y="107.61999999999999" type="line"/>
      <point x="548.58" y="0.0" type="line"/>
      <point x="-5.560000000000002" y="0.0" type="line"/>
      <point x="-5.560000000000002" y="107.61999999999999" type="line"/>
      <point x="126.77000000000001" y="142.20000000000002" type="line"/>
      <point x="594.73" y="933.37" type="line"/>
    </contour>
  </outline>
</glyph>
<glyph name="Ze" format="2">
  <advance width="1204"/>
  <unicode hex="0417"/>
  <outline>
    <contour>
      <point x="601.6" y="-25.36" type="qcurve" smooth="yes"/>
      <point x="477.73999999999995" y="-25.36"/>
      <point x="314.61" y="44.07"/>
      <point x="270.78" y="88.09" type="qcurve"/>
      <point x="245.28" y="-3.3899999999999997" type="line"/>
      <point x="134.25" y="-3.3899999999999997" type="line"/>
      <point x="134.25" y="462.88" type="line"/>
      <point x="264.55" y="462.88" type="line"/>
      <point x="294.89" y="312.43" type="line" smooth="yes"/>
      <point x="313.60999999999996" y="221.51000000000002"/>
      <point x="443.14" y="116.72"/>
      <point x="565.11" y="116.72" type="qcurve" smooth="yes"/>
      <point x="712.01" y="116.72"/>
      <point x="851.15" y="273.43"/>
      <point x="851.15" y="441.01" type="qcurve" smooth="yes"/>
      <point x="851.15" y="576.83"/>
      <point x="728.4699999999999" y="726.17"/>
      <point x="579.0600000000001" y="723.98" type="qcurve" smooth="yes"/>
      <point x="425.88" y="721.48" type="line"/>
      <point x="425.88" y="855.4200000000001" type="line"/>
      <point x="560.5300000000001" y="853.65" type="line" smooth="yes"/>
      <point x="679.1999999999999" y="852.1899999999999"/>
      <point x="790.46" y="992.393510638295"/>
      <point x="790.46" y="1125.48" type="qcurve" smooth="yes"/>
      <point x="790.46" y="1252.83"/>
      <point x="691.69" y="1378.63"/>
      <point x="580.65" y="1378.63" type="qcurve" smooth="yes"/>
      <point x="465.97" y="1378.63"/>
      <point x="341.02" y="1275.75"/>
      <point x="319.32" y="1183.76" type="qcurve" smooth="yes"/>
      <point x="288.97999999999996" y="1036.01" type="line"/>
      <point x="158.68" y="1036.01" type="line"/>
      <point x="158.68" y="1499.58" type="line"/>
      <point x="269.71" y="1499.58" type="line"/>
      <point x="295.21" y="1408.1" type="line"/>
      <point x="342.74108501579605" y="1456.8663584107198"/>
      <point x="512.291517509734" y="1520.0"/>
      <point x="634.25" y="1520.0" type="qcurve" smooth="yes"/>
      <point x="853.693043478256" y="1520.0"/>
      <point x="1066.41" y="1322.92"/>
      <point x="1066.41" y="1162.33" type="qcurve" smooth="yes"/>
      <point x="1066.41" y="1018.425549132955"/>
      <point x="926.9245768279251" y="847.201117326696"/>
      <point x="815.0" y="820.31" type="qcurve"/>
      <point x="815.0" y="813.31" type="line"/>
      <point x="955.6404781073629" y="785.33528750315"/>
      <point x="1130.71" y="601.705159574479"/>
      <point x="1130.71" y="427.31" type="qcurve" smooth="yes"/>
      <point x="1130.71" y="233.56"/>
      <point x="863.0699999999999" y="-25.36"/>
    </contour>
  </outline>
</glyph>
<glyph name="Ka" format="2">
  <advance width="1412"/>
  <unicode hex="041A"/>
  <guideline x="480.0" y="796.0" angle="90.0" identifier="LxfLwWU0sJ"/>
  <outline>
    <contour>
      <point x="50.279999999999994" y="0.0" type="line"/>
      <point x="50.279999999999994" y="107.61999999999999" type="line"/>
      <point x="227.98000000000002" y="142.62" type="line"/>
      <point x="229.98000000000002" y="754.0" type="line"/>
      <point x="227.98000000000002" y="1345.22" type="line"/>
      <point x="50.279999999999994" y="1379.22" type="line"/>
      <point x="50.279999999999994" y="1500.0" type="line"/>
      <point x="673.16" y="1500.0" type="line"/>
      <point x="673.16" y="1379.22" type="line"/>
      <point x="502.98" y="1345.22" type="line"/>
      <point x="500.98" y="754.0" type="line"/>
      <point x="502.98" y="142.62" type="line"/>
      <point x="666.56" y="107.61999999999999" type="line"/>
      <point x="666.56" y="0.0" type="line"/>
    </contour>
    <contour>
      <point x="365.47999999999996" y="710.64" type="line"/>
      <point x="365.47999999999996" y="850.26" type="line"/>
      <point x="637.88" y="845.64" type="line"/>
      <point x="1006.3900000000001" y="1342.0600000000002" type="line"/>
      <point x="879.14" y="1379.53" type="line"/>
      <point x="879.14" y="1500.0" type="line"/>
      <point x="1341.0900000000001" y="1500.0" type="line"/>
      <point x="1341.0900000000001" y="1379.53" type="line"/>
      <point x="1185.04" y="1342.0600000000002" type="line"/>
      <point x="760.72" y="792.7299999999999" type="line"/>
      <point x="693.96" y="710.64" type="line"/>
    </contour>
    <contour>
      <point x="624.12" y="735.99" type="line"/>
      <point x="809.2" y="933.37" type="line"/>
      <point x="1294.9599999999998" y="142.20000000000002" type="line"/>
      <point x="1417.3400000000001" y="107.61999999999999" type="line"/>
      <point x="1417.3400000000001" y="0.0" type="line"/>
      <point x="860.1" y="0.0" type="line"/>
      <point x="860.1" y="107.61999999999999" type="line"/>
      <point x="988.3900000000001" y="142.20000000000002" type="line"/>
    </contour>
  </outline>
</glyph>
<glyph name="El" format="2">
  <advance width="1465"/>
  <unicode hex="041B"/>
  <outline>
    <contour>
      <point x="332.02" y="772.4599999999999" type="qcurve" smooth="yes"/>
      <point x="364.62" y="1345.22" type="line"/>
      <point x="186.92" y="1379.22" type="line"/>
      <point x="186.92" y="1500.0" type="line"/>
      <point x="1412.3600000000001" y="1500.0" type="line"/>
      <point x="1412.3600000000001" y="1379.22" type="line"/>
      <point x="1234.66" y="1345.22" type="line"/>
      <point x="1232.66" y="754.0" type="line"/>
      <point x="1234.66" y="142.62" type="line"/>
      <point x="1412.3600000000001" y="107.61999999999999" type="line"/>
      <point x="1412.3600000000001" y="0.0" type="line"/>
      <point x="781.6500000000001" y="0.0" type="line"/>
      <point x="781.6500000000001" y="107.61999999999999" type="line"/>
      <point x="959.3500000000001" y="142.62" type="line"/>
      <point x="961.3500000000001" y="754.0" type="line"/>
      <point x="959.3500000000001" y="1346.1999999999998" type="line"/>
      <point x="923.41" y="1369.6" type="line"/>
      <point x="566.09" y="1369.6" type="line"/>
      <point x="530.15" y="1345.36" type="line"/>
      <point x="497.55" y="764.45" type="line" smooth="yes"/>
      <point x="473.55478488441406" y="351.50843762488796"/>
      <point x="333.05947743469204" y="-19.48"/>
      <point x="138.04" y="-19.48" type="qcurve" smooth="yes"/>
      <point x="108.14999999999999" y="-19.48"/>
      <point x="67.5" y="-10.93"/>
      <point x="38.5" y="0.0" type="qcurve"/>
      <point x="38.5" y="224.85" type="line"/>
      <point x="62.50000000000001" y="216.85"/>
      <point x="96.53" y="211.85"/>
      <point x="118.88000000000001" y="211.85" type="qcurve" smooth="yes"/>
      <point x="233.63" y="211.85"/>
      <point x="316.012661018691" y="501.04374188379796"/>
    </contour>
  </outline>
</glyph>
<glyph name="Ef" format="2">
  <advance width="1772"/>
  <unicode hex="0424"/>
  <outline>
    <contour>
      <point x="950.13" y="215.0" type="qcurve"/>
      <point x="950.13" y="335.37" type="line"/>
      <point x="1207.83" y="337.37"/>
      <point x="1428.99" y="560.4300000000001"/>
      <point x="1428.99" y="762.39" type="qcurve" smooth="yes"/>
      <point x="1428.99" y="950.46"/>
      <point x="1203.8" y="1148.6499999999999"/>
      <point x="950.13" y="1148.6499999999999" type="qcurve"/>
      <point x="950.13" y="1278.26" type="line"/>
      <point x="1372.68" y="1278.26"/>
      <point x="1722.04" y="1005.52"/>
      <point x="1722.04" y="774.5699999999999" type="qcurve" smooth="yes"/>
      <point x="1722.04" y="513.85"/>
      <point x="1351.4799999999998" y="224.27"/>
    </contour>
    <contour>
      <point x="821.17" y="215.0" type="line"/>
      <point x="407.68" y="215.0"/>
      <point x="49.949999999999996" y="487.73999999999995"/>
      <point x="49.949999999999996" y="719.0" type="qcurve" smooth="yes"/>
      <point x="49.949999999999996" y="979.4100000000001"/>
      <point x="429.15000000000003" y="1268.99"/>
      <point x="821.17" y="1278.26" type="qcurve"/>
      <point x="821.17" y="1149.27" type="line"/>
      <point x="569.83" y="1147.27"/>
      <point x="343.0" y="930.72"/>
      <point x="343.0" y="728.76" type="qcurve" smooth="yes"/>
      <point x="343.0" y="540.38"/>
      <point x="573.86" y="335.99"/>
      <point x="821.17" y="335.99" type="qcurve"/>
    </contour>
    <contour>
      <point x="573.05" y="-28.96" type="line"/>
      <point x="573.05" y="86.24" type="line"/>
      <point x="754.15" y="120.24" type="line"/>
      <point x="757.15" y="255.8" type="line"/>
      <point x="766.61" y="255.8" type="line"/>
      <point x="768.61" y="736.6999999999999" type="line"/>
      <point x="1002.69" y="736.6999999999999" type="line"/>
      <point x="1004.69" y="256.8" type="line"/>
      <point x="1014.1499999999999" y="255.8" type="line"/>
      <point x="1017.1499999999999" y="120.24" type="line"/>
      <point x="1198.25" y="86.24" type="line"/>
      <point x="1198.25" y="-28.96" type="line"/>
    </contour>
    <contour>
      <point x="768.61" y="736.6999999999999" type="line"/>
      <point x="766.61" y="1231.67" type="line"/>
      <point x="757.15" y="1232.67" type="line"/>
      <point x="754.15" y="1370.8" type="line"/>
      <point x="573.05" y="1404.8" type="line"/>
      <point x="573.05" y="1520.0" type="line"/>
      <point x="1198.25" y="1520.0" type="line"/>
      <point x="1198.25" y="1404.8" type="line"/>
      <point x="1017.1499999999999" y="1370.8" type="line"/>
      <point x="1014.1499999999999" y="1232.67" type="line"/>
      <point x="1004.69" y="1232.67" type="line"/>
      <point x="1002.69" y="736.6999999999999" type="line"/>
    </contour>
  </outline>
</glyph>
<glyph name="Shcha" format="2">
  <advance width="2240"/>
  <unicode hex="0429"/>
  <outline>
    <contour>
      <point x="1987.31" y="0.0" type="line"/>
      <point x="50.279999999999994" y="0.0" type="line"/>
      <point x="50.279999999999994" y="111.96" type="line"/>
      <point x="227.98000000000002" y="146.65" type="line"/>
      <point x="229.98000000000002" y="746.0" type="line"/>
      <point x="227.98000000000002" y="1353.8700000000001" type="line"/>
      <point x="50.279999999999994" y="1388.6" type="line"/>
      <point x="50.279999999999994" y="1500.0" type="line"/>
      <point x="666.87" y="1500.0" type="line"/>
      <point x="666.87" y="1388.6" type="line"/>
      <point x="503.28999999999996" y="1353.8700000000001" type="line"/>
      <point x="501.28999999999996" y="746.0" type="line"/>
      <point x="503.28999999999996" y="148.16" type="line"/>
      <point x="542.59" y="123.5" type="line"/>
      <point x="939.4899999999999" y="123.5" type="line"/>
      <point x="978.7900000000001" y="148.16" type="line"/>
      <point x="980.7900000000001" y="748.16" type="line"/>
      <point x="978.7900000000001" y="1353.0600000000002" type="line"/>
      <point x="808.3100000000001" y="1387.52" type="line"/>
      <point x="808.3100000000001" y="1500.0" type="line"/>
      <point x="1420.3799999999999" y="1500.0" type="line"/>
      <point x="1420.3799999999999" y="1387.52" type="line"/>
      <point x="1254.1000000000001" y="1353.0600000000002" type="line"/>
      <point x="1252.1000000000001" y="748.16" type="line"/>
      <point x="1254.1000000000001" y="148.16" type="line"/>
      <point x="1293.4" y="123.5" type="line"/>
      <point x="1690.3000000000002" y="123.5" type="line"/>
      <point x="1729.6" y="148.16" type="line"/>
      <point x="1731.6" y="746.0" type="line"/>
      <point x="1729.6" y="1353.8700000000001" type="line"/>
      <point x="1566.02" y="1388.6" type="line"/>
      <point x="1566.02" y="1500.0" type="line"/>
      <point x="2182.61" y="1500.0" type="line"/>
      <point x="2182.61" y="1388.6" type="line"/>
      <point x="2004.9100000000003" y="1353.8700000000001" type="line"/>
      <point x="2002.9100000000003" y="746.0" type="line"/>
      <point x="2004.9100000000003" y="123.5" type="line"/>
      <point x="2182.61" y="123.5" type="line"/>
      <point x="2192.61" y="-338.0" type="line"/>
      <point x="2061.41" y="-338.0" type="line"/>
    </contour>
  </outline>
</glyph>
<glyph name="Hard" format="2">
  <advance width="1437"/>
  <unicode hex="042A"/>
  <outline>
    <contour>
      <point x="688.43" y="916.86" type="line"/>
      <point x="695.86" y="904.1" type="line"/>
      <point x="904.2900000000001" y="904.1" type="line" smooth="yes"/>
      <point x="1154.01" y="904.1"/>
      <point x="1395.96" y="684.38"/>
      <point x="1395.96" y="466.49" type="qcurve" smooth="yes"/>
      <point x="1395.96" y="263.9"/>
      <point x="1161.57" y="0.0"/>
      <point x="938.3100000000001" y="0.0" type="qcurve" smooth="yes"/>
      <point x="238.08" y="0.0" type="line"/>
      <point x="238.08" y="107.61999999999999" type="line"/>
      <point x="415.78" y="142.62" type="line"/>
      <point x="417.78" y="749.14" type="line"/>
      <point x="415.78" y="1369.6" type="line"/>
      <point x="197.4" y="1369.6" type="line"/>
      <point x="160.85" y="1061.64" type="line"/>
      <point x="40.0" y="1061.64" type="line"/>
      <point x="40.0" y="1500.0" type="line"/>
      <point x="874.37" y="1500.0" type="line"/>
      <point x="874.37" y="1379.22" type="line"/>
      <point x="691.09" y="1345.22" type="line"/>
    </contour>
    <contour>
      <point x="688.7" y="764.4599999999999" type="line"/>
      <point x="690.43" y="142.82" type="line"/>
      <point x="718.81" y="121.02" type="line"/>
      <point x="838.53" y="121.02" type="line" smooth="yes"/>
      <point x="975.29" y="121.02"/>
      <point x="1113.97" y="298.73"/>
      <point x="1113.97" y="468.66" type="qcurve" smooth="yes"/>
      <point x="1113.97" y="625.83"/>
      <point x="976.4200000000001" y="777.53"/>
      <point x="847.09" y="777.53" type="qcurve" smooth="yes"/>
      <point x="697.17" y="777.53" type="line"/>
    </contour>
  </outline>
</glyph>
<glyph name="Ya" format="2">
  <advance width="1373"/>
  <unicode hex="042F"/>
  <outline>
    <contour>
      <point x="471.35" y="771.04" type="line"/>
      <point x="239.97" y="332.36" type="line" smooth="yes"/>
      <point x="166.19" y="193.35000000000002"/>
      <point x="75.28" y="111.53999999999999"/>
      <point x="13.3" y="109.3" type="qcurve"/>
      <point x="13.3" y="0.0" type="line"/>
      <point x="331.36" y="0.0" type="line"/>
      <point x="366.19" y="31.16" type="line"/>
      <point x="726.15" y="727.6500000000001" type="line"/>
    </contour>
    <contour>
      <point x="733.28" y="790.9899999999999" type="line" smooth="yes"/>
      <point x="600.86" y="790.9899999999999"/>
      <point x="476.05" y="944.09"/>
      <point x="476.05" y="1090.55" type="qcurve" smooth="yes"/>
      <point x="476.05" y="1224.79"/>
      <point x="603.112061855657" y="1366.5"/>
      <point x="729.25" y="1366.5" type="qcurve" smooth="yes"/>
      <point x="845.01" y="1366.5" type="line"/>
      <point x="869.41" y="1348.04" type="line"/>
      <point x="872.1" y="774.9599999999999" type="line"/>
      <point x="870.41" y="141.39" type="line"/>
      <point x="686.2700000000001" y="107.61999999999999" type="line"/>
      <point x="686.2700000000001" y="0.0" type="line"/>
      <point x="1323.1100000000001" y="0.0" type="line"/>
      <point x="1323.1100000000001" y="107.2" type="line"/>
      <point x="1145.41" y="142.74" type="line"/>
      <point x="1143.41" y="756.6999999999999" type="line"/>
      <point x="1145.41" y="1345.22" type="line"/>
      <point x="1323.1100000000001" y="1379.22" type="line"/>
      <point x="1323.1100000000001" y="1500.0" type="line"/>
      <point x="683.6899999999999" y="1500.0" type="line" smooth="yes"/>
      <point x="419.979411764715" y="1500.0"/>
      <point x="187.62" y="1265.3"/>
      <point x="187.62" y="1083.8799999999999" type="qcurve" smooth="yes"/>
      <point x="187.62" y="904.611415094333"/>
      <point x="412.55339510362205" y="689.139802539616"/>
      <point x="591.3399999999999" y="673.0600000000001" type="qcurve"/>
      <point x="640.2" y="662.78" type="line"/>
      <point x="1007.5999999999999" y="673.4" type="line"/>
      <point x="1007.9100000000001" y="790.9899999999999" type="line"/>
    </contour>
  </outline>
</glyph>
<glyph name="be" format="2">
  <advance width="1113"/>
  <unicode hex="0431"/>
  <outline>
    <contour>
      <point x="256.93" y="727.63" type="line"/>
      <point x="306.34" y="855.26"/>
      <point x="512.8100000000001" y="1013.16"/>
      <point x="668.0699999999999" y="1013.16" type="qcurve" smooth="yes"/>
      <point x="847.64" y="1013.16"/>
      <point x="1056.63" y="757.51"/>
      <point x="1056.63" y="510.62000000000006" type="qcurve" smooth="yes"/>
      <point x="1056.63" y="271.510909090895"/>
      <point x="796.0" y="-21.45"/>
      <point x="565.23" y="-21.45" type="qcurve" smooth="yes"/>
      <point x="315.25" y="-21.45"/>
      <point x="65.8" y="293.89"/>
      <point x="65.8" y="625.55" type="qcurve" smooth="yes"/>
      <point x="65.8" y="975.85"/>
      <point x="386.08" y="1404.45"/>
      <point x="707.99" y="1455.44" type="qcurve" smooth="yes"/>
      <point x="863.6470788233819" y="1483.2102568627122"/>
      <point x="928.1916565068761" y="1511.799965166402"/>
      <point x="938.7399999999999" y="1537.0" type="qcurve"/>
      <point x="1028.85" y="1537.0" type="line"/>
      <point x="1022.01" y="1393.56"/>
      <point x="890.65" y="1242.83"/>
      <point x="714.46" y="1223.51" type="qcurve" smooth="yes"/>
      <point x="579.76" y="1210.4"/>
      <point x="394.08" y="1190.17"/>
      <point x="349.94" y="1135.22" type="qcurve" smooth="yes"/>
      <point x="311.791304185976" y="1085.603858465005"/>
      <point x="295.808478015616" y="876.652795921362"/>
      <point x="295.54" y="748.57" type="qcurve"/>
      <point x="343.94000000000005" y="748.57" type="line"/>
      <point x="339.138553230985" y="661.6673339522739"/>
      <point x="338.32000000000005" y="604.99"/>
      <point x="338.32000000000005" y="524.59" type="qcurve" smooth="yes"/>
      <point x="338.32000000000005" y="312.34999999999997"/>
      <point x="457.56" y="97.63000000000001"/>
      <point x="563.06" y="97.63000000000001" type="qcurve" smooth="yes"/>
      <point x="669.8199999999999" y="97.63000000000001"/>
      <point x="775.59" y="290.628390804592"/>
      <point x="775.59" y="495.5" type="qcurve" smooth="yes"/>
      <point x="775.59" y="679.46"/>
      <point x="671.82" y="855.67"/>
      <point x="572.22" y="855.67" type="qcurve" smooth="yes"/>
      <point x="476.52" y="855.67"/>
      <point x="350.94" y="742.0"/>
      <point x="313.81" y="652.65" type="qcurve"/>
    </contour>
  </outline>
</glyph>
<glyph name="ghe" format="2">
  <advance width="886"/>
  <unicode hex="0433"/>
  <guideline x="302.0" y="625.0" angle="90.0" identifier="jHuxcyi1x5"/>
  <guideline x="953.0" y="554.0" angle="90.0" identifier="b1mHk7wgTR"/>
  <guideline x="627.0" y="553.0" angle="90.0" identifier="m4aYe0x4PZ"/>
  <outline>
    <contour>
      <point x="851.65" y="1015.5" type="line"/>
      <point x="854.75" y="650.22" type="line"/>
      <point x="746.1899999999999" y="650.22" type="line"/>
      <point x="686.8" y="895.24" type="line"/>
      <point x="443.16999999999996" y="895.24" type="line"/>
      <point x="440.86" y="507.33" type="line"/>
      <point x="443.16999999999996" y="127.4" type="line"/>
      <point x="584.9499999999999" y="92.4" type="line"/>
      <point x="584.9499999999999" y="0.0" type="line"/>
      <point x="53.449999999999996" y="0.0" type="line"/>
      <point x="53.449999999999996" y="92.4" type="line"/>
      <point x="181.29000000000002" y="127.4" type="line"/>
      <point x="184.13000000000002" y="507.75" type="line"/>
      <point x="181.29000000000002" y="888.1" type="line"/>
      <point x="53.449999999999996" y="923.1" type="line"/>
      <point x="53.449999999999996" y="1015.5" type="line"/>
    </contour>
  </outline>
</glyph>
<glyph name="de" format="2">
  <advance width="1127"/>
  <unicode hex="0434"/>
  <guideline x="302.0" y="625.0" angle="90.0" identifier="jHuxcyi1x5"/>
  <guideline x="953.0" y="554.0" angle="90.0" identifier="b1mHk7wgTR"/>
  <guideline x="627.0" y="553.0" angle="90.0" identifier="m4aYe0x4PZ"/>
  <outline>
    <contour>
      <point x="969.3699999999999" y="-318.0" type="line"/>
      <point x="878.53" y="0.0" type="line"/>
      <point x="220.49" y="0.0" type="line"/>
      <point x="129.64999999999998" y="-318.0" type="line"/>
      <point x="23.25" y="-318.0" type="line"/>
      <point x="33.25" y="120.26" type="line"/>
      <point x="1065.77" y="120.26" type="line"/>
      <point x="1075.77" y="-318.0" type="line"/>
    </contour>
    <contour>
      <point x="934.34" y="0.0" type="line"/>
      <point x="672.46" y="0.0" type="line"/>
      <point x="674.7700000000001" y="505.23" type="line"/>
      <point x="672.46" y="895.24" type="line"/>
      <point x="398.06" y="895.24" type="line"/>
      <point x="371.10999999999996" y="490.81" type="line" smooth="yes"/>
      <point x="362.89857152468403" y="365.027465297237"/>
      <point x="331.0" y="175.03"/>
      <point x="297.14" y="94.44" type="qcurve"/>
      <point x="127.08" y="94.44" type="line"/>
      <point x="171.92" y="173.16000000000003"/>
      <point x="217.59" y="372.29"/>
      <point x="225.98" y="506.28999999999996" type="qcurve" smooth="yes"/>
      <point x="251.50000000000003" y="888.1" type="line"/>
      <point x="123.66" y="923.1" type="line"/>
      <point x="123.66" y="1015.5" type="line"/>
      <point x="1062.18" y="1015.5" type="line"/>
      <point x="1062.18" y="923.1" type="line"/>
      <point x="934.34" y="888.1" type="line"/>
      <point x="931.9200000000001" y="507.75" type="line"/>
    </contour>
  </outline>
</glyph>
<glyph name="icyr" format="2">
  <advance width="1232"/>
  <unicode hex="0438"/>
  <guideline x="427.24" y="594.0" angle="0" identifier="jHuxcyi1x5"/>
  <guideline x="802.19" y="551.52" angle="90.0" identifier="b1mHk7wgTR"/>
  <guideline x="815.48" y="584.62" angle="90.0" identifier="m4aYe0x4PZ"/>
  <outline>
    <contour>
      <point x="356.31" y="294.47" type="line"/>
      <point x="582.4" y="552.31" type="line"/>
      <point x="791.54" y="801.15" type="line"/>
      <point x="877.2" y="724.4399999999999" type="line"/>
      <point x="650.81" y="465.95" type="line"/>
      <point x="441.96999999999997" y="217.76" type="line"/>
    </contour>
    <contour>
      <point x="183.29000000000002" y="507.75" type="line"/>
      <point x="181.29000000000002" y="888.1" type="line"/>
      <point x="53.449999999999996" y="923.1" type="line"/>
      <point x="53.449999999999996" y="1015.5" type="line"/>
      <point x="545.68" y="1015.5" type="line"/>
      <point x="545.68" y="923.1" type="line"/>
      <point x="443.16999999999996" y="888.1" type="line"/>
      <point x="441.7" y="507.75" type="line"/>
      <point x="443.16999999999996" y="127.4" type="line"/>
      <point x="545.68" y="92.4" type="line"/>
      <point x="545.68" y="0.0" type="line"/>
      <point x="53.449999999999996" y="0.0" type="line"/>
      <point x="53.449999999999996" y="92.4" type="line"/>
      <point x="181.29000000000002" y="127.4" type="line"/>
    </contour>
    <contour>
      <point x="1050.22" y="507.75" type="line"/>
      <point x="1052.22" y="127.4" type="line"/>
      <point x="1180.06" y="92.4" type="line"/>
      <point x="1180.06" y="0.0" type="line"/>
      <point x="687.83" y="0.0" type="line"/>
      <point x="687.83" y="92.4" type="line"/>
      <point x="790.3399999999999" y="127.4" type="line"/>
      <point x="791.81" y="507.75" type="line"/>
      <point x="790.3399999999999" y="888.1" type="line"/>
      <point x="687.83" y="923.1" type="line"/>
      <point x="687.83" y="1015.5" type="line"/>
      <point x="1180.06" y="1015.5" type="line"/>
      <point x="1180.06" y="923.1" type="line"/>
      <point x="1052.22" y="888.1" type="line"/>
    </contour>
  </outline>
</glyph>
<glyph name="el" format="2">
  <advance width="1128"/>
  <unicode hex="043B"/>
  <guideline x="302.0" y="493.25" angle="90.0" identifier="jHuxcyi1x5"/>
  <guideline x="953.0" y="554.0" angle="90.0" identifier="b1mHk7wgTR"/>
  <guideline x="627.0" y="553.0" angle="90.0" identifier="m4aYe0x4PZ"/>
  <outline>
    <contour>
      <point x="273.53000000000003" y="888.1" type="line"/>
      <point x="246.36" y="477.25" type="line" smooth="yes"/>
      <point x="237.01000000000002" y="342.5"/>
      <point x="174.84" y="195.64"/>
      <point x="103.42" y="195.64" type="qcurve" smooth="yes"/>
      <point x="84.0" y="195.64"/>
      <point x="53.040000000000006" y="201.05999999999997"/>
      <point x="32.300000000000004" y="207.64" type="qcurve"/>
      <point x="32.300000000000004" y="-1.38" type="line"/>
      <point x="51.577626843335004" y="-9.938813421652"/>
      <point x="93.02000000000601" y="-17.31"/>
      <point x="118.88" y="-17.31" type="qcurve" smooth="yes"/>
      <point x="258.570733944968" y="-17.31"/>
      <point x="375.036070913927" y="205.926029310837"/>
      <point x="391.34" y="455.74" type="qcurve" smooth="yes"/>
      <point x="420.09000000000003" y="895.24" type="line"/>
      <point x="684.7" y="895.24" type="line"/>
      <point x="687.01" y="506.07" type="line"/>
      <point x="684.7" y="127.4" type="line"/>
      <point x="567.1800000000001" y="92.4" type="line"/>
      <point x="567.1800000000001" y="0.0" type="line"/>
      <point x="1074.4199999999998" y="0.0" type="line"/>
      <point x="1074.4199999999998" y="92.4" type="line"/>
      <point x="946.5799999999999" y="127.4" type="line"/>
      <point x="944.5799999999999" y="507.75" type="line"/>
      <point x="946.5799999999999" y="888.1" type="line"/>
      <point x="1074.4199999999998" y="923.1" type="line"/>
      <point x="1074.4199999999998" y="1015.5" type="line"/>
      <point x="148.39" y="1015.5" type="line"/>
      <point x="148.39" y="923.1" type="line"/>
    </contour>
  </outline>
</glyph>
<glyph name="pe" format="2">
  <advance width="1211"/>
  <unicode hex="043F"/>
  <guideline x="302.0" y="625.0" angle="90.0" identifier="jHuxcyi1x5"/>
  <guideline x="953.0" y="554.0" angle="90.0" identifier="b1mHk7wgTR"/>
  <guideline x="627.0" y="553.0" angle="90.0" identifier="m4aYe0x4PZ"/>
  <outline>
    <contour>
      <point x="183.71" y="507.75" type="line"/>
      <point x="181.29000000000002" y="888.1" type="line"/>
      <point x="53.449999999999996" y="923.1" type="line"/>
      <point x="53.449999999999996" y="1015.5" type="line"/>
      <point x="1157.9299999999998" y="1015.5" type="line"/>
      <point x="1157.9299999999998" y="923.1" type="line"/>
      <point x="1030.09" y="888.1" type="line"/>
      <point x="1027.6699999999998" y="507.75" type="line"/>
      <point x="1030.09" y="127.4" type="line"/>
      <point x="1157.9299999999998" y="92.4" type="line"/>
      <point x="1157.9299999999998" y="0.0" type="line"/>
      <point x="667.25" y="0.0" type="line"/>
      <point x="667.25" y="92.4" type="line"/>
      <point x="768.21" y="127.4" type="line"/>
      <point x="770.52" y="507.33" type="line"/>
      <point x="768.21" y="895.24" type="line"/>
      <point x="443.16999999999996" y="895.24" type="line"/>
      <point x="440.86" y="506.07" type="line"/>
      <point x="443.16999999999996" y="127.4" type="line"/>
      <point x="544.13" y="92.4" type="line"/>
      <point x="544.13" y="0.0" type="line"/>
      <point x="53.449999999999996" y="0.0" type="line"/>
      <point x="53.449999999999996" y="92.4" type="line"/>
      <point x="181.29000000000002" y="127.4" type="line"/>
    </contour>
  </outline>
</glyph>
<glyph name="te" format="2">
  <advance width="995"/>
  <unicode hex="0442"/>
  <guideline x="302.0" y="625.0" angle="90.0" identifier="0glbwjr6f1"/>
  <guideline x="953.0" y="554.0" angle="90.0" identifier="41A0uQDzZV"/>
  <guideline x="627.0" y="553.0" angle="90.0" identifier="rA3XBl1QkZ"/>
  <outline>
    <contour>
      <point x="760.49" y="92.4" type="line"/>
      <point x="760.49" y="0.0" type="line"/>
      <point x="234.25" y="0.0" type="line"/>
      <point x="234.25" y="92.4" type="line"/>
      <point x="366.43" y="127.4" type="line"/>
      <point x="369.15999999999997" y="508.17" type="line"/>
      <point x="366.43" y="895.24" type="line"/>
      <point x="204.5" y="895.24" type="line"/>
      <point x="145.11" y="650.22" type="line"/>
      <point x="36.55" y="650.22" type="line"/>
      <point x="39.65" y="1015.5" type="line"/>
      <point x="955.4000000000001" y="1015.5" type="line"/>
      <point x="958.5" y="650.22" type="line"/>
      <point x="849.9399999999999" y="650.22" type="line"/>
      <point x="790.55" y="895.24" type="line"/>
      <point x="628.3100000000001" y="895.24" type="line"/>
      <point x="626.3100000000001" y="507.75" type="line"/>
      <point x="628.3100000000001" y="127.4" type="line"/>
    </contour>
  </outline>
</glyph>
<glyph name="ef" format="2">
  <advance width="1428"/>
  <unicode hex="0444"/>
  <outline>
    <contour>
      <point x="835.31" y="527.0" type="line"/>
      <point x="836.31" y="61.6" type="line"/>
      <point x="844.85" y="47.27" type="line"/>
      <point x="845.85" y="-352.6" type="line"/>
      <point x="973.4200000000001" y="-387.6" type="line"/>
      <point x="973.4200000000001" y="-480.0" type="line"/>
      <point x="454.43" y="-480.0" type="line"/>
      <point x="454.43" y="-387.6" type="line"/>
      <point x="582.0" y="-352.6" type="line"/>
      <point x="583.0" y="46.39" type="line"/>
      <point x="591.54" y="59.82" type="line"/>
      <point x="592.9599999999999" y="527.0" type="line"/>
      <point x="591.54" y="972.39" type="line"/>
      <point x="583.0" y="983.98" type="line"/>
      <point x="582.0" y="1361.3" type="line"/>
      <point x="434.28" y="1392.98" type="line"/>
      <point x="434.28" y="1500.0" type="line"/>
      <point x="776.86" y="1534.0" type="line"/>
      <point x="808.86" y="1534.0" type="line"/>
      <point x="845.85" y="1497.35" type="line"/>
      <point x="844.85" y="987.18" type="line"/>
      <point x="836.31" y="973.4599999999999" type="line"/>
    </contour>
    <contour>
      <point x="668.38" y="-23.0" type="line"/>
      <point x="358.32" y="-15.53"/>
      <point x="55.019999999999996" y="267.37"/>
      <point x="55.019999999999996" y="490.5" type="qcurve" smooth="yes"/>
      <point x="55.019999999999996" y="743.12"/>
      <point x="377.004788273621" y="1038.5"/>
      <point x="668.38" y="1038.5" type="qcurve"/>
      <point x="668.38" y="917.0" type="line"/>
      <point x="502.535034642041" y="917.0"/>
      <point x="332.26000000000005" y="701.2"/>
      <point x="332.26000000000005" y="506.5" type="qcurve" smooth="yes"/>
      <point x="332.26000000000005" y="316.57"/>
      <point x="495.63000000000005" y="107.6"/>
      <point x="668.38" y="104.5" type="qcurve"/>
    </contour>
    <contour>
      <point x="763.24" y="-23.0" type="qcurve"/>
      <point x="763.24" y="104.5" type="line"/>
      <point x="926.54" y="107.6"/>
      <point x="1096.01" y="322.78"/>
      <point x="1096.01" y="523.06" type="qcurve" smooth="yes"/>
      <point x="1096.01" y="707.41"/>
      <point x="923.9080132450199" y="917.0"/>
      <point x="763.24" y="917.0" type="qcurve"/>
      <point x="763.24" y="1038.5" type="line"/>
      <point x="1057.718665876159" y="1033.874474993585"/>
      <point x="1373.25" y="752.78"/>
      <point x="1373.25" y="525.0" type="qcurve" smooth="yes"/>
      <point x="1373.25" y="277.03"/>
      <point x="1054.92" y="-20.21"/>
    </contour>
  </outline>
</glyph>
<glyph name="tse" format="2">
  <advance width="1222"/>
  <unicode hex="0446"/>
  <guideline x="302.0" y="625.0" angle="90.0" identifier="jHuxcyi1x5"/>
  <guideline x="953.0" y="554.0" angle="90.0" identifier="b1mHk7wgTR"/>
  <guideline x="627.0" y="553.0" angle="90.0" identifier="m4aYe0x4PZ"/>
  <outline>
    <contour>
      <point x="1030.36" y="120.26" type="line"/>
      <point x="1161.1299999999999" y="120.26" type="line"/>
      <point x="1171.1299999999999" y="-318.0" type="line"/>
      <point x="1064.73" y="-318.0" type="line"/>
      <point x="973.8899999999999" y="0.0" type="line"/>
      <point x="53.449999999999996" y="0.0" type="line"/>
      <point x="53.449999999999996" y="92.4" type="line"/>
      <point x="181.29000000000002" y="127.4" type="line"/>
      <point x="183.29000000000002" y="507.75" type="line"/>
      <point x="181.29000000000002" y="888.1" type="line"/>
      <point x="53.449999999999996" y="923.1" type="line"/>
      <point x="53.449999999999996" y="1015.5" type="line"/>
      <point x="544.13" y="1015.5" type="line"/>
      <point x="544.13" y="923.1" type="line"/>
      <point x="443.16999999999996" y="888.1" type="line"/>
      <point x="440.86" y="507.75" type="line"/>
      <point x="443.16999999999996" y="120.26" type="line"/>
      <point x="768.21" y="120.26" type="line"/>
      <point x="770.52" y="507.75" type="line"/>
      <point x="768.21" y="888.1" type="line"/>
      <point x="667.25" y="923.1" type="line"/>
      <point x="667.25" y="1015.5" type="line"/>
      <point x="1157.9299999999998" y="1015.5" type="line"/>
      <point x="1157.9299999999998" y="923.1" type="line"/>
      <point x="1030.09" y="888.1" type="line"/>
      <point x="1028.09" y="507.75" type="line"/>
    </contour>
  </outline>
</glyph>
<glyph name="shcha" format="2">
  <advance width="1776"/>
  <unicode hex="0449"/>
  <outline>
    <contour>
      <point x="1528.03" y="0.0" type="line"/>
      <point x="53.449999999999996" y="0.0" type="line"/>
      <point x="53.449999999999996" y="92.4" type="line"/>
      <point x="181.29000000000002" y="127.4" type="line"/>
      <point x="183.29000000000002" y="507.75" type="line"/>
      <point x="181.29000000000002" y="888.1" type="line"/>
      <point x="53.449999999999996" y="923.1" type="line"/>
      <point x="53.449999999999996" y="1015.5" type="line"/>
      <point x="537.6199999999999" y="1015.5" type="line"/>
      <point x="537.6199999999999" y="923.1" type="line"/>
      <point x="442.86" y="888.1" type="line"/>
      <point x="440.86" y="506.49" type="line"/>
      <point x="442.86" y="120.26" type="line"/>
      <point x="751.69" y="120.26" type="line"/>
      <point x="753.69" y="507.75" type="line"/>
      <point x="751.42" y="888.1" type="line"/>
      <point x="657.77" y="923.1" type="line"/>
      <point x="657.77" y="1015.5" type="line"/>
      <point x="1107.48" y="1015.5" type="line"/>
      <point x="1107.48" y="923.1" type="line"/>
      <point x="1012.99" y="888.1" type="line"/>
      <point x="1011.26" y="504.81" type="line"/>
      <point x="1013.26" y="120.26" type="line"/>
      <point x="1322.93" y="120.26" type="line"/>
      <point x="1324.93" y="507.75" type="line"/>
      <point x="1322.93" y="888.1" type="line"/>
      <point x="1228.17" y="923.1" type="line"/>
      <point x="1228.17" y="1015.5" type="line"/>
      <point x="1712.65" y="1015.5" type="line"/>
      <point x="1712.65" y="923.1" type="line"/>
      <point x="1584.5" y="888.1" type="line"/>
      <point x="1582.5" y="507.75" type="line"/>
      <point x="1584.5" y="120.26" type="line"/>
      <point x="1715.27" y="120.26" type="line"/>
      <point x="1725.27" y="-318.0" type="line"/>
      <point x="1618.87" y="-318.0" type="line"/>
    </contour>
  </outline>
</glyph>
<glyph name="yeru" format="2">
  <advance width="1553"/>
  <unicode hex="044B"/>
  <outline>
    <contour>
      <point x="1369.62" y="507.75" type="line"/>
      <point x="1371.62" y="127.4" type="line"/>
      <point x="1499.4599999999998" y="92.4" type="line"/>
      <point x="1499.4599999999998" y="0.0" type="line"/>
      <point x="1004.5300000000001" y="0.0" type="line"/>
      <point x="1004.5300000000001" y="92.4" type="line"/>
      <point x="1109.74" y="127.4" type="line"/>
      <point x="1111.21" y="507.75" type="line"/>
      <point x="1109.74" y="888.1" type="line"/>
      <point x="1004.5300000000001" y="923.1" type="line"/>
      <point x="1004.5300000000001" y="1015.5" type="line"/>
      <point x="1499.4599999999998" y="1015.5" type="line"/>
      <point x="1499.4599999999998" y="923.1" type="line"/>
      <point x="1371.62" y="888.1" type="line"/>
    </contour>
    <contour>
      <point x="312.13" y="519.1" type="line"/>
      <point x="312.13" y="637.5" type="line"/>
      <point x="604.1" y="637.5" type="line" smooth="yes"/>
      <point x="789.42" y="637.5"/>
      <point x="989.6800000000001" y="471.83000000000004"/>
      <point x="989.6800000000001" y="320.82" type="qcurve" smooth="yes"/>
      <point x="989.6800000000001" y="172.93"/>
      <point x="790.97" y="0.0"/>
      <point x="604.1" y="0.0" type="qcurve" smooth="yes"/>
      <point x="53.449999999999996" y="0.0" type="line"/>
      <point x="53.449999999999996" y="92.4" type="line"/>
      <point x="181.29000000000002" y="127.4" type="line"/>
      <point x="183.29000000000002" y="507.75" type="line"/>
      <point x="181.29000000000002" y="888.1" type="line"/>
      <point x="53.449999999999996" y="923.1" type="line"/>
      <point x="53.449999999999996" y="1015.5" type="line"/>
      <point x="560.05" y="1015.5" type="line"/>
      <point x="560.05" y="923.1" type="line"/>
      <point x="442.44" y="888.1" type="line"/>
      <point x="440.96999999999997" y="507.75" type="line"/>
      <point x="442.44" y="119.33000000000001" type="line"/>
      <point x="535.9" y="119.33000000000001" type="line" smooth="yes"/>
      <point x="642.39" y="119.33000000000001"/>
      <point x="724.3000000000001" y="232.46"/>
      <point x="724.3000000000001" y="322.06" type="qcurve" smooth="yes"/>
      <point x="724.3000000000001" y="409.75"/>
      <point x="643.3199999999999" y="519.1"/>
      <point x="538.6899999999999" y="519.1" type="qcurve" smooth="yes"/>
    </contour>
  </outline>
</glyph>
<glyph name="ecyr" format="2">
  <advance width="984"/>
  <unicode hex="044D"/>
  <guideline x="180.0" y="548.0" angle="90.0" identifier="n4jm0tBg3Y"/>
  <outline>
    <contour>
      <point x="788.86" y="572.91" type="line"/>
      <point x="788.86" y="455.55" type="line"/>
      <point x="322.55" y="453.55" type="line"/>
      <point x="322.55" y="575.91" type="line"/>
    </contour>
    <contour>
      <point x="456.33000000000004" y="-21.72" type="qcurve" smooth="yes"/>
      <point x="375.43" y="-21.72"/>
      <point x="260.19" y="16.18"/>
      <point x="227.5" y="45.19" type="qcurve"/>
      <point x="208.39" y="-7.02" type="line"/>
      <point x="104.9" y="-7.02" type="line"/>
      <point x="102.8" y="342.62" type="line"/>
      <point x="210.88" y="342.62" type="line"/>
      <point x="225.14" y="274.93" type="line" smooth="yes"/>
      <point x="241.31" y="197.87"/>
      <point x="328.95" y="104.76"/>
      <point x="420.64" y="104.76" type="qcurve" smooth="yes"/>
      <point x="538.36" y="104.76"/>
      <point x="648.0699999999999" y="309.08"/>
      <point x="648.0699999999999" y="512.2" type="qcurve" smooth="yes"/>
      <point x="648.0699999999999" y="705.39"/>
      <point x="535.52" y="908.79"/>
      <point x="434.04999999999995" y="908.79" type="qcurve" smooth="yes"/>
      <point x="345.26" y="908.79"/>
      <point x="255.51" y="815.1899999999999"/>
      <point x="238.65" y="737.42" type="qcurve" smooth="yes"/>
      <point x="225.32" y="673.45" type="line"/>
      <point x="117.24000000000001" y="673.45" type="line"/>
      <point x="119.34" y="1023.09" type="line"/>
      <point x="222.82999999999998" y="1023.09" type="line"/>
      <point x="241.94" y="970.88" type="line"/>
      <point x="273.37" y="997.79"/>
      <point x="398.67999999999995" y="1037.79"/>
      <point x="481.79999999999995" y="1037.79" type="qcurve" smooth="yes"/>
      <point x="687.85" y="1037.79"/>
      <point x="929.6500000000001" y="757.36"/>
      <point x="929.6500000000001" y="513.75" type="qcurve" smooth="yes"/>
      <point x="929.6500000000001" y="284.25"/>
      <point x="677.9599999999999" y="-21.72"/>
    </contour>
  </outline>
</glyph>
